<svg xmlns="http://www.w3.org/2000/svg" viewBox="0 0 508.56 183.07"><defs><style>.cls-1{fill:#010101;}.cls-2{fill:#f4f4f4;}.cls-3{fill:#030303;}.cls-4{fill:#efefef;}.cls-5{fill:#070707;}.cls-6{fill:#e8e8e8;}.cls-7{fill:#181818;}.cls-8{fill:#e9e9e9;}.cls-9{fill:#151515;}.cls-10{fill:#0d0d0d;}.cls-11{fill:#0a0a0a;}.cls-12{fill:#040404;}.cls-13{fill:#080808;}.cls-14{fill:#0f0f0f;}.cls-15{fill:#313131;}.cls-16{fill:#101010;}.cls-17{fill:#1f1f1f;}.cls-18{fill:#232323;}.cls-19{fill:#3c3c3c;}.cls-20{fill:#2a2a2a;}.cls-21{fill:#cdcdcd;}.cls-22{fill:#bdbdbd;}.cls-23{fill:#090909;}.cls-24{fill:#a5a5a5;}.cls-25{fill:#c3c3c3;}.cls-26{fill:#383838;}.cls-27{fill:#afafaf;}.cls-28{fill:#c5c5c5;}.cls-29{fill:#d2d2d2;}.cls-30{fill:#575757;}.cls-31{fill:#3e3e3e;}.cls-32{fill:#fbfbfb;}.cls-33{fill:#f9f9f9;}.cls-34{fill:#f8f8f8;}.cls-35{fill:#f5f5f5;}.cls-36{fill:#fafafa;}.cls-37{fill:#f7f7f7;}.cls-38{fill:#eaeaea;}.cls-39{fill:#f6f6f6;}.cls-40{fill:#f2f2f2;}.cls-41{fill:#ebebeb;}.cls-42{fill:#f1f1f1;}.cls-43{fill:#e4e4e4;}.cls-44{fill:#e3e3e3;}.cls-45{fill:#d1d1d1;}.cls-46{fill:#d6d6d6;}.cls-47{fill:#e0e0e0;}.cls-48{fill:#dbdbdb;}.cls-49{fill:#cecece;}.cls-50{fill:#e7e7e7;}.cls-51{fill:#bbb;}.cls-52{fill:#d3d3d3;}.cls-53{fill:#dcdcdc;}.cls-54{fill:#d7d7d7;}.cls-55{fill:#acacac;}.cls-56{fill:#c8c8c8;}.cls-57{fill:#bababa;}.cls-58{fill:#f0f0f0;}.cls-59{fill:#404040;}.cls-60{fill:#2c2c2c;}.cls-61{fill:#ececec;}.cls-62{fill:#131313;}.cls-63{fill:#a2a2a2;}.cls-64{fill:#d0d0d0;}.cls-65{fill:#a7a7a7;}.cls-66{fill:#dfdfdf;}.cls-67{fill:#c7c7c7;}.cls-68{fill:#373737;}.cls-69{fill:#b0b0b0;}.cls-70{fill:#363636;}.cls-71{fill:#727272;}.cls-72{fill:#a9a9a9;}.cls-73{fill:#4c4c4c;}.cls-74{fill:#c2c2c2;}.cls-75{fill:#cbcbcb;}.cls-76{fill:#dedede;}.cls-77{fill:#d4d4d4;}.cls-78{fill:#0b0b0b;}.cls-79{fill:#ddd;}.cls-80{fill:#191919;}.cls-81{fill:#d9d9d9;}.cls-82{fill:#dadada;}.cls-83{fill:#474747;}.cls-84{fill:#494949;}.cls-85{fill:#454545;}.cls-86{fill:#7e7e7e;}.cls-87{fill:#9c9c9c;}.cls-88{fill:#b3b3b3;}.cls-89{fill:#585858;}.cls-90{fill:#c1c1c1;}.cls-91{fill:#c6c6c6;}.cls-92{fill:#d5d5d5;}.cls-93{fill:#ededed;}.cls-94{fill:#eee;}.cls-95{fill:#323232;}.cls-96{fill:#747474;}.cls-97{fill:#9e9e9e;}.cls-98{fill:#505050;}.cls-99{fill:#b2b2b2;}.cls-100{fill:#787878;}.cls-101{fill:#060606;}.cls-102{fill:#a4a4a4;}.cls-103{fill:#2d2d2d;}.cls-104{fill:#2b2b2b;}.cls-105{fill:#ccc;}.cls-106{fill:#202020;}.cls-107{fill:#434343;}.cls-108{fill:#969696;}.cls-109{fill:#c9c9c9;}.cls-110{fill:#767676;}.cls-111{fill:#b5b5b5;}.cls-112{fill:#ababab;}.cls-113{fill:#9a9a9a;}.cls-114{fill:#626262;}.cls-115{fill:#919191;}.cls-116{fill:#5c5c5c;}.cls-117{fill:#6b6b6b;}.cls-118{fill:#111;}.cls-119{fill:#3f3f3f;}.cls-120{fill:#717171;}.cls-121{fill:#1a1a1a;}.cls-122{fill:#1b1b1b;}.cls-123{fill:#272727;}.cls-124{fill:#303030;}.cls-125{fill:#6a6a6a;}.cls-126{fill:#393939;}.cls-127{fill:#2e2e2e;}.cls-128{fill:#bfbfbf;}.cls-129{fill:#616161;}.cls-130{fill:#4d4d4d;}.cls-131{fill:#c4c4c4;}.cls-132{fill:#5f5f5f;}.cls-133{fill:#2f2f2f;}.cls-134{fill:#838383;}.cls-135{fill:#484848;}.cls-136{fill:#bebebe;}.cls-137{fill:#696969;}.cls-138{fill:#444;}.cls-139{fill:#848484;}.cls-140{fill:#212121;}.cls-141{fill:#858585;}</style></defs><title>logo_modif</title><g id="Calque_2" data-name="Calque 2"><g id="Calque_2-2" data-name="Calque 2"><path class="cls-1" d="M67,111.27c-1.59-.4-2.77-1.07-2.78-2.7,0-.85-.58-1.2-1.66-1.06a47.9,47.9,0,0,0-11.19,2.33,6.48,6.48,0,0,1-2.43.59c-.79,0-1.74-.1-2.14.55-.54.87.82,1.1,1.12,1.72-.19.94-1.06.65-1.74.71a7.91,7.91,0,0,0-1.75-.22c-1.31.49-.23,1.25-.28,1.88a25.39,25.39,0,0,1-.79,4.47c-.22.23-.37.6-.71.64-2.49.27-4.16,1.67-5.86,3-2.58,1.91-2.91,4.6-3.46,7.26,2.76-1.28,3.36-4.09,5.71-5.6a3.69,3.69,0,0,1,2.47-3.13c1-.39,1.2-1.31,1.71-2a2.24,2.24,0,0,1,1.59-1.12,3.31,3.31,0,0,0,2.85-2.42c.26-.49.23-1.07.56-1.52s.9-1,1.53-.14c.33,2.46-1.35,4.22-3.12,5.8a20.8,20.8,0,0,1-4.79,3.77c-1.44.7-1.15,2.37-1.11,3.69a8.66,8.66,0,0,1-4.06,7.81,4.51,4.51,0,0,1-3,.93,19.6,19.6,0,0,1-7.14-1.87c-.11-.92,1-.66,1.42-1.07,1.05-.69,1-1.73,1.17-2.69.16-1.29,1-2.41,1.24-3.67-.41,1.47-1.35,2.81-1.35,4.38-.21.89-.46,1.74-1.91,1.44a2.12,2.12,0,0,1-.89-2.77c.41-1.27.56-2.63,1.48-3.77.63-.8.27-1.23-.79-1.33a1.31,1.31,0,0,1-1-.59,3.82,3.82,0,0,1,4.86-1.78c.46.19.81.75,1.45.3A22.61,22.61,0,0,0,34,120.61a7.57,7.57,0,0,0,3.39-3.92,5.36,5.36,0,0,1,.92-1c.37-.65,2.36-1.29,0-2-.41-.12-.77-.27-.77-.71.55-1,1.8-.71,2.69-1.08a3.38,3.38,0,0,0,1.44-.79,6.27,6.27,0,0,1,1.74-1.07c1.81-.89,1.8-.9,0-2l-.94-.44c-1.84-.84-1.89-1.06-.55-2.56a14.27,14.27,0,0,1,2.45-.43c.75-.18,1.51.07,2.3-.06-.3-.57-1.25-.6-1.34-1.28.63-1,1.54-.58,2.4-.33,1,.29,1.76,1,2.77,1.32a47.46,47.46,0,0,0,5.33.17c.11-.28,1.08.23.66-.52a7.3,7.3,0,0,0-1.91-2.34c-.92-1.12-1.74-2.24-1.08-3.71.37-.83-.4-1.15-1.09-1.53-1.92-1.06-1.7-4.67.29-5.64a1.35,1.35,0,0,1,1.83.42,2.89,2.89,0,0,1,.81,2.15,7,7,0,0,0-.81-3.18,2.93,2.93,0,0,1,.15-3.47,3.11,3.11,0,0,0,.32-3,4.82,4.82,0,0,1-.11-.52,2.77,2.77,0,0,1,.67-2.08A5.87,5.87,0,0,0,57,77c-.15-2.09,1.92-1.67,3.25-2.06-.27-.35-.75-.47-1.07-.76-.79-.78-.15-1,.64-1.17a4.94,4.94,0,0,1,2.47.26A4,4,0,0,0,66,73a2.3,2.3,0,0,1,1.82-.12c.7.74.13,1.33-.52,1.64-1.09.52-1,1.32-1,2.14a2.81,2.81,0,0,1-.86.74c-3.48,1.16-2.67,3.68-2.49,5.92A12.54,12.54,0,0,1,63,86.92c-.35,1.6.63,2.83,2.18,3.46,4.9,2,7.68,5.75,10.67,9.29,2.09,2.47,4.15,5,6.22,7.45,1,1.23,1.72,1,2.55,0l.4-.44c1.82-2.05,1.82-2.05,5.1-1.63-2.82-1.82-5.38-3.47-7.73-5.34-.87-.7-2-1.28-2.21-2.4.09-.75,1-.74,1.48-1.15,1.15-.7,1.83-1.43.32-2.4-.2-.14,0-.45.09-.67a5.77,5.77,0,0,0,1.78-2c.67-1.65,2.13-2.48,4-2.89.8.15,1.5.37,1.42,1.24-.28.76-1.07,1.1-1.69,1.59,1.4.17,1.64.94,1.07,1.9-.7,1.2-.8,2.58-1.65,3.74-.3.41-.45,1.05.34,1.17s.65-.54.71-.93c.26-2,2.34-3.53,1.64-5.71a10.71,10.71,0,0,1-.22-1.62c.42-1.25-1.73-1.08-1.64-2.15a1.4,1.4,0,0,1,.72-1.09c5.26-3,7.53-7.87,10.59-12.22,5.19-7.37,9.15-15.33,14.91-22.41,2-2.51,3.76-5.16,5.69-7.71,2-3.26,4.64-6.14,6.84-9.28a5.71,5.71,0,0,0,1.22-3.61c0-.59.3-1.28-.64-1.56a3.26,3.26,0,0,0-2.47.1c-1.66.78-2.07,2.25-2.9,3.5-1.12,2.13-3,3.88-4.32,5.9a29.37,29.37,0,0,1-4.93,4.91c-.65.31-1.39,1.23-1.84-.16a2.31,2.31,0,0,1,.49-1.24,28.82,28.82,0,0,0,3-3.37,18.44,18.44,0,0,0,1.94-2.83c.16-.37.33-.69-.2-.93a.94.94,0,0,1-.46-.6,1.58,1.58,0,0,1,.44-1.19c.56-.73.26-1-.67-1.27-1.82-.5-2-1.27-.54-2.43a70.82,70.82,0,0,1,5.84-4c.17-.11.36-.21.53-.31,3.69-2.21,3.71-2.52.29-5q-.41-.3-.78-.63c-.84-1-2-2-.48-3.28a3.43,3.43,0,0,1,2-.16c1.72.7,2.46,2.34,4.16,3.11a9.72,9.72,0,0,0,2.53.95c1.34.58,2.69,1.16,2.9,2.65.7,1.42.14,2.79-.2,4.2-1.3,5.33-4.31,9.92-7.8,14.47a275.4,275.4,0,0,0-20.75,30.88c-2.27,4-5.44,7.49-8,11.34A6.47,6.47,0,0,0,94,88.21c.08,3.84,1.52,7.47,1.65,11.32.12,3.29.84,6.6.6,9.94-.42,5.84-1.51,11.64-1.23,17.5a126.39,126.39,0,0,1-.54,17.73c-.41,4.44.28,8.91-.71,13.3s-.25,8.51-.45,12.76c-.06,1.33-1,2.38-.95,3.7,0,.67-1,.53-1.59.55a40.21,40.21,0,0,1-7.91-.51c-.15,0-.28-.06-.42-.09-4.91-.72-5.13-.56-5.09,3.54,0,3.42-1.23,4.36-5.29,4-2.23-.18-4.43.5-6.76-.15-1.2-.33-2.61.9-4.19,1-1.34.09-2.69.19-4,.23-.37-.23-.79-.44-.36-.9,2.69-1.11,5.58-1.84,8.32-2.87a3.44,3.44,0,0,1,2.87.19,4.37,4.37,0,0,0,3.22.88c.64,0,1.28,0,1.92,0a1.78,1.78,0,0,0,2-1.57c.52-3-.27-3.82-3.81-4a22.51,22.51,0,0,1-3.19-.13c-.65-.11-1.53-.2-1-1.11.5-3.11,2.15-5.92,3.22-8.88a3.2,3.2,0,0,0,.12-1.78c-.28-1,.24-1.81.42-2.72.63-3.15,2.64-5.9,3.31-9,.24-1.13.92-1.23,2-.93,1.19.8,1,1.83.5,2.82A34.4,34.4,0,0,0,74,161.52a9.71,9.71,0,0,1-1,2.21c-1,1.9-2.07,3.78-1.84,6a1.16,1.16,0,0,1-.24.87c-.89,1.09-.83,1.35.67,1.35a48.75,48.75,0,0,1,8.72,1c2.75.49,5.57-.42,8.35.14.59.11.57-.41.47-.79a1.37,1.37,0,0,1,.82-2.12,1.53,1.53,0,0,0,.82-1,6.65,6.65,0,0,0,.49-5.29c-.49-1.56-.23-3.24-.43-4.87.07-.51.5-.88.75-1.31a6.42,6.42,0,0,0,.12-3.58,6.77,6.77,0,0,1,0-2.87,3.56,3.56,0,0,0-.61-3.14,5,5,0,0,1-1-3.28c.17-2.82-.87-5.54-1.08-8.34a9.3,9.3,0,0,1,.35-4.32,10.34,10.34,0,0,0,.47-1.88c.26-.84.78-1.1,1.57-.36a5.6,5.6,0,0,1,.19,3.59c-.35,2.31-.52,4.6.67,6.81a5.75,5.75,0,0,1,.5,2.68c-.8-4.33.18-8.66-.08-13,.13-2.09.18-4.17-1-6.1-.65-1.46-1.24-2.91.37-4.22.11-.09.29-.2.25-.28-.82-1.76.06-3.05,1.09-4.62.92-1.41,0-3.33-.22-5,0-.31,0-.61-.09-1.24-.24,2.1.41,4-.63,5.68-.29.48-.5,1.09-1.26,1.12s-1-.6-1.13-1.13a11.53,11.53,0,0,0,.52-4.51,1.69,1.69,0,0,0-1.32-1.7c-.55-.17-1.16-.11-.94.52a4.66,4.66,0,0,1-.33,3.72c-.22.44.27.92.59,1.33A8.06,8.06,0,0,1,90.93,117a2.55,2.55,0,0,1-.8,3c-.89.88-1.83.32-2.76.13a1.69,1.69,0,0,0-.8.23,6.46,6.46,0,0,0-1.12,1,1.31,1.31,0,0,1-2.19,0l-.39-.35c-.49-.38-1.29-.43-1.52-1.06-.24-2.1-2.13-3.42-3.33-5-3.59-4.85-7.61-9.46-11.35-14.23a.57.57,0,0,0-.65-.24c-.33.76.19,1.28.83,1.79,2.34,1.86,3.88,4.22,5.58,6.48.95,1.27.09,2.81,1,4a11,11,0,0,0,1.29,3.9,3.88,3.88,0,0,0,.62,1.56c3.6,3.61,4.08,8.31,6.1,12.47.72,1.48-.23,2.45-1.62,3.21-1.69.92-4.09,1.12-5.09.42a2.06,2.06,0,0,1-.81-1.26,10.25,10.25,0,0,0-.43-1.8,14.91,14.91,0,0,1-.68-1.93,5.07,5.07,0,0,0,.23,2.26c.67,1.8,1.52,3.58.21,5.44-.22.31,0,.72.09,1.08a4.29,4.29,0,0,1,.2,1.09c.51-.25.34-.82.74-1.1,1.67-.57,2.52-.22,2.22,1.09s-.81,2.77.25,4.14c.26.33-.09.82-.36,1.18a8.94,8.94,0,0,1-3.05,1.73c.91,0,2-.53,2.13.75-.33,1.06-1.34,1.88-1.47,3a7.14,7.14,0,0,0-2.33,5.51c-.07,1.5.29,3.12-1.64,4.07a12.07,12.07,0,0,1,.67-8.19,2.78,2.78,0,0,0,.18-1.25c-.45-5.57.19-11.15.06-16.73a36.12,36.12,0,0,0-1.1-8.29,32.65,32.65,0,0,1-.66-7.35c.46-.49,1.93-.65.76-1.67A22.56,22.56,0,0,1,67,111.27Z"/><path class="cls-1" d="M18.67,95.4c-.4-1.13-1.9-1.43-2.53-2.37-.22-.33-.7-.74-.23-1.14s.78.07,1.18.12a1.62,1.62,0,0,1,1.24.65c1.11,1.81,2.88,1.87,4.89,1.41l.62-.12c.7-.17,1.84.45,2.08-.34s-1-1.33-1.65-1.87a27.47,27.47,0,0,0-2.66-2.5c-.74-1-.3-2.16-.87-3.15-.7-1.25-.25-2.64-.63-3.92a1.75,1.75,0,0,1-1.87-.8,2,2,0,0,1-.3-.42c-.33-.7-.08-1.48-.47-2.17-.18-.3-.38-.59-.57-.88-.38-.73-1.14-1.31-1.12-2.19.18-.55.51-.83,1.21-.51,1.41.8,1.54,2.26,2.43,3.34a2.84,2.84,0,0,0,4.57.07,14.7,14.7,0,0,1,2.44-1.76,50.08,50.08,0,0,0,4.44-4.42c2.57-2.59,6.28-3.67,10-4.56,4.21-1,8.45-1.92,12.63-3a5.33,5.33,0,0,1,3.63.58c3.33,1.43,6.25.16,9.12-.9,3.6-1.33,6.61-3.55,10.07-5.15,2.61-1.2,5.56-2.4,7.37-4.88,1.28-1.74,3.7-2.79,5.36-4.39a32.77,32.77,0,0,0,3.06-3.88c3.74-4.92,7.14-10.05,12.32-14.08A74.75,74.75,0,0,0,110.87,26a20.12,20.12,0,0,1,3.79-2.62,3.63,3.63,0,0,0,2-2.84,3.18,3.18,0,0,1,3.06-1.37,1.11,1.11,0,0,1,.76.85c-.46,2.2-2.65,3.25-4.44,4.46s-3.7,2.19-3.38,4.62c.15,1.15-1.23,1.84-2.32,2.45-2.91,1.66-5.89,3.24-7.17,6.27-.33.8-1.23,1.34-1.94,1.94a15.21,15.21,0,0,0-3.88,4.78A2.31,2.31,0,0,1,95,46.07c-1-.07-1.31.62-1.64,1.22A8.58,8.58,0,0,1,91.69,50a16,16,0,0,0-1.52,1.16,5.44,5.44,0,0,0-1.37,1.51c-.45.9-1.7.78-2.67,1.52,1.27-.15,2.69-.94,2.84.78-.27,1.11-.52,2.17-2.33,2.14-1,0-.1.62-.29.91a.81.81,0,0,1-.61.81c-.77-.06-1.3.09-1.52.85A16.69,16.69,0,0,0,83.89,62a6.6,6.6,0,0,1-.59,1.89,1.41,1.41,0,0,1-2.12.3c-.85-1.12,0-2.11.23-3.17-.86,1.78-1.52,3.62-2.39,5.4a2.3,2.3,0,0,1-.26.49c-.47.69-.63,1.9-2,1.44s-1.3-1.48-.86-2.49c.14-.34.34-.66.51-1a4.15,4.15,0,0,1-1.27,1.44c-.93,1.07-1.31,2.39-2.25,3.45A4.49,4.49,0,0,1,71,71.18c-1.79.24-1.44-.82-1.21-1.6.4-1.38,1.63-2.4,2.44-3.61a12.29,12.29,0,0,0,2.63-2.87c.23-.38.41-.88-.08-1.17s-.83.09-1.08.36c-1.64,1.75-4.45,1.95-6.26,3.46-.47.61-.46,1.47-1.34,1.87a3.32,3.32,0,0,1-.54.25,3.68,3.68,0,0,1-1.55.28c-2.82.08-5.46-.69-8.15-1.24-.32,0-.64,0-.95-.1-2.13-.37-3.84.07-4.93,1.79-.32.49-1.07.58-1.58,1.07.87.35,1.82.31,2.63.63.52.2,1.13.4,1,1s-.68.6-1.18.64c-1.63.14-3.28,0-4.92.07a55,55,0,0,0-7.26.19,5.05,5.05,0,0,1-1.89.11,4.34,4.34,0,0,0-4.67,1.76c-.17.19-.37.37-.56.55a11.55,11.55,0,0,1-1.33,1.18,8.59,8.59,0,0,0-1,1.37c-.6.61-1.14,1.28-1.72,1.91a6.65,6.65,0,0,1-.65.51c-1,.71-1.77,1.59-2.77,2.3-.57.4-1.38,1.2.2,1.59.85.2.92.8.64,1.31-.82,1.58.12,2.71,1.2,3.81a31.14,31.14,0,0,1,3.65,4.52c1.55,2.33,1,3.26-2.16,3.73a6.82,6.82,0,0,0-2.46.34c.25.4.65.39,1,.49a41,41,0,0,0,4.43.14c.83,0,1.86,0,2.11.84s-.69,1.3-1.6,1.53c-1.29.17-2.59,0-3.87.11a7.72,7.72,0,0,1-6.15-2.08,2,2,0,0,1-.4-.43C20.33,96.81,19.36,96.19,18.67,95.4Z"/><path class="cls-2" d="M67.86,179.85c-1.61-.74-3,.06-4.4.49-2.26.67-4.32,1.84-6.79,2-.91-.21-1.45-.54-.26-1.07a15.83,15.83,0,0,0,2-.63q.36-.22.69-.48a11.77,11.77,0,0,1,4.31-2.87,4.18,4.18,0,0,0,2.76-3,1.21,1.21,0,0,1,.92-.72c-.12,1.19.94.8,1.6.8,2.12,0,4.25-.21,6.25.66.38.16,1.06.32,1,.59-.54,1.48.15,3-.38,4.46-.29.78-1.29.91-2.16.91s-1.56-.12-2.33-.19A9.19,9.19,0,0,0,67.86,179.85Z"/><path class="cls-3" d="M127.88,3.68c.94-1.88,2.05-3.61,4.89-3.68,2.49,0,4,.75,4.62,2.84,1.15,3.62-.2,6.88-2.64,9.77a3.22,3.22,0,0,0-.74,3.75c.79,1.88,1.55,3.87-.93,5.39-1,.18-1.19-.2-.65-.83s1.17-1,.63-1.85a13.16,13.16,0,0,1-1-2.22c-.55.28-.27.69-.38,1-.24.75-.88.9-1.66.83s-1.24-.56-1.2-1.26a6.34,6.34,0,0,1,1.25-2.87c.75-1.21,2-2.28,1.73-3.82a2,2,0,0,1,.06-.76c.2-.59.84-.8,1.36-1.1a2.09,2.09,0,0,0,1.21-2.36,7.31,7.31,0,0,1,.82-2.45c-.2-1.77-.64-2.1-2.42-1.77a5.87,5.87,0,0,0-1.44.31c-.63.27-1,.86-1.59,1.12S128.47,4.63,127.88,3.68Z"/><path class="cls-4" d="M6.7,81.78c-.6-.28-1.07-.83-1.89-.71a.83.83,0,0,1-.18-.47c.1-.71-.26-1.15-1-1.39a1.86,1.86,0,0,1-1.42-1.67c-.38-1.85.7-3.5,1-5.26.85-1.88,3-1.52,4.66-1.91a4.11,4.11,0,0,1,1,0c.62.09,1.29.14,1.43.83s-.27.9-.71,1.22a6.64,6.64,0,0,1-1.41.77c-1.24.74.49,1.32.17,2,.13.79-.54,1.56-.08,2.36a1.91,1.91,0,0,1,.26.71C8.27,79.6,7.28,80.62,6.7,81.78Z"/><path class="cls-5" d="M24.72,131.75c-1.25-1.15-1.63-2.63-2.16-4.06a1.8,1.8,0,0,1-.45-1.33,12.53,12.53,0,0,1,1.35-4.62c1.25-2-.75-3-1.8-4.2-.53-.62-1.47-1-1.81-1.74C19,115,19,114,18.66,113c-.3-1.24-1.17-2.35-1.21-3.66.6-.11.92.3,1.35.51,1.86.74,2.09,2.28,2.54,3.72a8.78,8.78,0,0,0,3.06,2.74,4.6,4.6,0,0,1,1.3,7,3.72,3.72,0,0,0-.91,1.23,4.91,4.91,0,0,0,.42,5,3.62,3.62,0,0,1-.09,1.73A1.15,1.15,0,0,1,24.72,131.75Z"/><path class="cls-6" d="M127.88,3.68a1.54,1.54,0,0,0,2-.54c.31-.46.59-.93,1.31-1,1.83.27,1.54,2,2.73,2.76a3.82,3.82,0,0,0,.88,1.69c.59,2-1,2.59-2.67,3.2-1.45.19-1.76-1-2.54-1.55-.83-1-.3-1.86.36-2.71-1.32-.32-1.44,1.1-2.49,1.08C127.63,5.65,127,4.59,127.88,3.68Z"/><path class="cls-7" d="M18.25,110.07l-.8-.72a3.1,3.1,0,0,0,.42-1.9c0-2.21-.44-4.44.39-6.64A2.63,2.63,0,0,0,18,99c-.38-1-.63-2.14.69-2.93,1,.21,1.49,1,2.18,1.5l-.05,0c.19.19.43.53.33.63-1.31,1.35-.29,3.08-1,4.47a4.28,4.28,0,0,0,.12,4.36c.16.51.09,1.07.5,1.53s1,.83.38,1.4-1.14.21-1.7,0A1,1,0,0,0,18.25,110.07Z"/><path class="cls-8" d="M76,150.55c-.66,0-1.57-.4-1.31.75a3.36,3.36,0,0,1-.89,2.75,12,12,0,0,0-2,5.67c-.21,1.16-2,1.8-1.38,3.18-.78-1-.22-2.2-.38-3.3a5.33,5.33,0,0,0,1.12-3.83c-.07-1.14-.79-2.27.86-3a.33.33,0,0,0,.13-.32c-1.08-1.61.49-2.05,1.61-2.68S75.77,149.27,76,150.55Z"/><path class="cls-9" d="M7.5,73.05a8.72,8.72,0,0,0,1.1-.56c.52-.37,1.55-.54,1.33-1.25-.28-.92-1.35-.29-2-.46,0-.82.78-.6,1.3-.73a16,16,0,0,1,5.29,2.46,1.54,1.54,0,0,1,.76,1.57c.47,1.34-.43,1.69-1.73,1.75-1.21-.43-.89-1.41-1.08-2.2-.14-.38-.37-.57-.51,0a5,5,0,0,1-.67,2.26,2,2,0,0,1-.45.36c-1.31.47-2.26.24-2.68-1a1.12,1.12,0,0,1,.63-.87,3.35,3.35,0,0,0,.45-.27c-.22,0-.36.16-.55.17C7.68,74.26,7,74.09,7.5,73.05Z"/><path class="cls-10" d="M22.56,126.22v1.47c-3.32-1.84-3.31-5.13-4.68-7.82-.05-.1-.05-.29,0-.35,2.5-2,.27-4.36.75-6.51l1.72,2.61c.06,1.86,1.14,3.35,2.44,4.75-.33,1.61-.49,1.63-2.85.19A19.39,19.39,0,0,0,22.56,126.22Z"/><path class="cls-11" d="M4.88,80.73a1.37,1.37,0,0,0-.07.34c-.9.89-.08,1.4.63,1.88.44.3,1,.48,1.46.76.71.42.91,1,.26,1.52s-1.16.19-1.39-.45c-.14-.38-.49-.4-.84-.44-1.12-.28-2.25-.6-3.18.35C.09,84.26.05,83.11.15,82c.12-1.37,1.41-.59,2.17-.76.59-.14,1.37,0,1.3-.84A1.06,1.06,0,0,1,4.88,80.73Z"/><path class="cls-12" d="M66.16,174.28c1,1.82-.75,2.77-2,3.23a22.54,22.54,0,0,0-4.89,3c-1.37,0-1.29-.71-.9-1.51a7.88,7.88,0,0,1,4.2-2.54C64.08,176.11,64.81,174.83,66.16,174.28Z"/><path class="cls-5" d="M4.88,80.73l-1.26-.37c-2.21-.88-3.95-2-3.57-4.42.1-.6.11-1.21.16-1.82a1.1,1.1,0,0,1,1-.14A1.73,1.73,0,0,1,2.5,75.85a3.33,3.33,0,0,0,.17,2,1.38,1.38,0,0,0,1.4,1.09C5.8,79,5.7,79.77,4.88,80.73Z"/><path class="cls-13" d="M22.53,92.44a14.54,14.54,0,0,1-8.22-3.22c-.19-.33,0-.5.34-.64,1.24,0,2.52-.28,3.7.29A5.16,5.16,0,0,0,20.74,90c.72.21,1.57.16,2.12.69C23.55,91.37,23.49,92,22.53,92.44Z"/><path class="cls-14" d="M1,74.12H.21c1.71-3.92,4.4-5.13,9-4.07l-1.3.73c-1.38.62-3.43-.13-4.31,1.52C3.29,73.51,1.92,73.61,1,74.12Z"/><path class="cls-15" d="M14.87,88.75l-.56.47c-.49-1-1.86-1-2.72-1.7A4.43,4.43,0,0,1,10,85.16c.1-.77-.77-1.57.12-2.31,1.26.25,1.21,1.14,1.31,2,0,.49.13.83.84.76a4.37,4.37,0,0,1,1.69,0C15.88,86.66,15.93,86.83,14.87,88.75Z"/><path class="cls-16" d="M10,83c-.27.71,1.07,1.45,0,2.14L6.7,81.78c-.51-1.48,1.23-2.31,1.46-3.58a1.68,1.68,0,0,1,1.79.15s.13.12.12.14C8.7,80,9.08,81.5,10,83Z"/><path class="cls-17" d="M119.7,19.45c-1.2,0-1.9.95-3,1.11-.41-2.1,1.33-3.5,2.37-5.1.47-.71,1.55.41,2.32-.09a1.42,1.42,0,0,1,1,.39c0,.39.21.8-.16,1.15l-2.12,0C118.18,17.55,119.71,18.58,119.7,19.45Z"/><path class="cls-9" d="M127.46,6.63a2.4,2.4,0,0,1,2.2-1.69c.61-.07,1.21-.26,1.5.28.52,1-.62.46-.94.7-.93.69-.73,1.46-.22,2.25.12.32-.13.41-.41.49a2.09,2.09,0,0,1-.56,0c-.53-.15-1.13-.15-1.52-.55Z"/><path class="cls-18" d="M13.55,75.57a1.68,1.68,0,0,0,1.69-1.49L17,75.2A.88.88,0,0,0,16,76c-.7.28-.51.71-.28,1.17.33.67.58,1.34-.26,1.9a1.71,1.71,0,0,1-1.79-.32,3.76,3.76,0,0,1-1-2.05A1.56,1.56,0,0,1,13.55,75.57Z"/><path class="cls-19" d="M123.92,12.81l3-4c.92-.09.91.51,1,1a7.32,7.32,0,0,1-.65,2.58c-.62.64-2,.56-2.12,1.66a.76.76,0,0,1-.79.34C123.84,13.94,124,13.36,123.92,12.81Z"/><path class="cls-20" d="M67,111.27c1.31.54,1.46,1.76,2.06,2.68.45.69,1,1.31,1.42,2-.45.3-.22,1.19-1.22,1A8.92,8.92,0,0,1,67,111.27Z"/><path class="cls-21" d="M133.51,19.08c.67.77.58,1.42-.48,1.86-.79.32-.88.58.05.81-.68.35-1.47.63-1.39,1.49-.36-1.35-2.18-1.35-2.94-2.33.26-1.15,1.41-1.06,2.31-1A3.31,3.31,0,0,0,133.51,19.08Z"/><path class="cls-22" d="M45.86,113.08c.66-.2,1.5.29,2-.38,1,.35,2.91,0,1.83,1.81-.56-.56-.87-.32-1.14.22s.1,1.19-.53,1.62A21.27,21.27,0,0,0,45.86,113.08Z"/><path class="cls-23" d="M123.92,12.81c.8.36.33,1.06.57,1.58.09,1.4-.77,1.72-2.2,1.4-.36,0-.73-.09-.91-.42C122.62,14.8,122.9,13.54,123.92,12.81Z"/><path class="cls-24" d="M22.53,92.44c1-.94.46-1.44-.71-1.74-.5-.12-1.12.11-1.5-.37.43-.54,1.2-.69,1.76-1.07a3,3,0,0,1,2.19,2.48C23.64,91.89,23.4,92.73,22.53,92.44Z"/><path class="cls-25" d="M58.82,180.88a2.69,2.69,0,0,1-2.22.73c-.26,0-.64,0-.33.36a5,5,0,0,0,.4.4l.44.7a8,8,0,0,1-2.63-.67c.37-.78-.42-1.11-.86-1.57a3,3,0,0,1,2.26-.28C56.81,181,57.93,180.17,58.82,180.88Z"/><path class="cls-26" d="M58.82,180.88c-1-.27-2.17,1.12-2.94-.33A8.19,8.19,0,0,0,58.36,179a1.27,1.27,0,0,0,.9,1.51Z"/><path class="cls-27" d="M1.75,84.69c.61-1.77.61-1.77,3.18-.35A3.92,3.92,0,0,1,1.75,84.69Z"/><path class="cls-11" d="M53.62,180.83c.47.26,1.38-.37,1.53.52.09.47.19,1-.67,1.05C52.91,181.91,52.78,181.66,53.62,180.83Z"/><path class="cls-28" d="M69.24,117c.66-.11,0-1.37,1.22-1,.27.65.85,1.23.79,2-.75.21-1.3-.93-2.06-.16Z"/><path class="cls-29" d="M20.86,97.61c-1.22,0-1.54-.91-2.18-1.5V95.4C19.68,95.94,21.25,96.07,20.86,97.61Z"/><path class="cls-30" d="M24.72,131.75v-.4c1.28,0,1.22,1.15,1.93,1.66.4.45,1.2.44,1.56,1-.44.5-1.37.08-1.75.68C26.05,133.6,24.61,133,24.72,131.75Z"/><path class="cls-31" d="M127.49,10c0-.45,0-1-.57-1.21l.59-.69c.59,0,1.25-.2,1.67.36C128.56,8.92,128.47,9.81,127.49,10Z"/><path class="cls-32" d="M76,150.55c-.51-.76-1.41-.74-2.27-.8-.68-1.33,1-1.74,1.41-2.65.58-.8,0-1.88.86-2.62.36-.9.72-1.77-.68-2.3-.95-.35-.47-.86-.11-1.31.46-.6,1.09-1.08.93-1.94-.21-1.13-.78-1.15-1.69-.55-.5.39-1,.52-1.47,0-.66-.44-.9-1-.41-1.6,1.5-1.69.71-3.28-.13-4.91a1.81,1.81,0,0,1-.21-1.06c.14-.85-2.17-8.41-1.1-8.3.57.06,1.91,7.24,2.39,7.83a5,5,0,0,1,.85,2.74c.27,1.92,2.16,1.32,3.36,1.19,2.86-.3,3.43-1.78,2.87-4.18-.74-3.16-3.4-5.78-3.31-9.13,0-.43-.46-.72-.9-1a3.81,3.81,0,0,1-2.13-3.2c0-.24-.12.06-.05-.16a4,4,0,0,0-1.21-4c-.23-.31-.63-.62-.64-.93-.12-4.24-3.29-6.91-6.63-9.52a1.83,1.83,0,0,1-.41-2.37c.51-.94,1.3-.19,1.58.26,2.06,3.42,5.2,6.22,7.55,9.47,2.08,2.88,4.42,5.62,6.75,8.36a1.85,1.85,0,0,1,.4,2,3.58,3.58,0,0,1-.7,1.33c.85-.46,1.48-1.11,2.39-.54a.39.39,0,0,1,.1.35c.92,1.7,0,2-1.58,3.21.85.21,1.79.17,2.22.89a2.39,2.39,0,0,1,.08,2,1,1,0,0,0,.12,1c1.46-.16,1.77-1.85,3.37-1.8a2.61,2.61,0,0,0,.59-.75c.1-.4-.15-.51-.56-.48-1.39.13-1.48-.53-1.19-1.41a13,13,0,0,0,.54-4.1l.84-.05c.64,0,.9,1.52,1.72.4.59-.8,1.91-1.46.93-2.82-.81-1.12-1.11-2.49-2.33-3.43-.42-.68,0-.89.7-.79a2.12,2.12,0,0,1,1.54,1.12c.36.27.12,1,.81,1s.48-.52.68-.81c1.24-1.76.56-3.66.52-5.51,0-.5-.19-1.18.47-1.23.85-.06.75.66.74,1.2,0,2.12,1.21,4.14.58,6.3-.11.4.08.89-.39,1.18-1.85,1.16-1.91,2-.2,3.43-2.22.54-2.52,1.35-1.51,4,.23,1.07-.69,1.93-.72,3,.06,1.93-1.75,3.51-1.43,5.49-.9,3.18,0,6.29.52,9.4a11.39,11.39,0,0,1,.23,3.44c-.12,3-.56,5.93-.25,8.91-.93,1.8.45,3.39.69,5.08.18,3.53,2.29,7.05,0,10.58a1.41,1.41,0,0,1-.8.57c-2.46.46-2.45.46-.87,2,.44.48,1,1,.62,1.6s-1.18,0-1.79-.06a19.14,19.14,0,0,0-4.48-.18c-2.74.46-5.38-.33-8-.78-1.4-.24-2.7,0-4-.11a4.06,4.06,0,0,1-2.24-.52,1.16,1.16,0,0,1-.36-1.66c.51-.68.85.53,1.53.11a6,6,0,0,1,1-5.48c2.11-3.19,2-6.89,3.47-10.2.33-.74.66-1.48,1-2.19A1.55,1.55,0,0,0,76,150.55Z"/><path class="cls-32" d="M120.19,44.21c-3.34,5.25-7.72,10-11.09,15.19-1.83,2.84-3.48,5.76-5.31,8.6-2.8,4.33-5.5,8.72-8.61,12.88-1.57,2.09-3.13,4.4-6.07,5.51-.41.15-.65.61-1,.93s.05.82-.38,1.12A5.71,5.71,0,0,0,83.89,92a1.89,1.89,0,0,1-1.59,1.31,4.74,4.74,0,0,1-2.94,1.26c-.4.07-2.14,0-.89,1.23.7.45,1.59.73,1.88,1.54A43.93,43.93,0,0,0,90,104.24c.48.27,1.5.33,1.13,1.06s-1.19.32-1.82.09a2.6,2.6,0,0,0-3.46,1c-2.22,3-2.43,3-4.86.22-3.57-4.09-7-8.27-10.47-12.4-1.37-1.61-3.52-2.42-5.45-3.4s-3.08-2.62-2.39-4.6c.56-1.61-.48-3.07-.45-4.66,0-2.13.4-3.82,3.05-4.56,1.29.85,1.32,1.21.24,3.29-1.75,1.9-1.49,3.76.18,5.59.39.5.84,1,1.21,1.49.9,1.26,1.07.36,1.3-.33a2.23,2.23,0,0,1,.62-1.45c1.76-1.68,3.64-3.21,6.52-3.58-.61-.41-1.11-.18-1.59-.16a14.76,14.76,0,0,0-1.49.17c-2.28.37-2.57.18-2.74-1.82,0-.25,0-.49,0-.73a5,5,0,0,1,.92-3.43c.54-.81,1.57-.37,2.32-.67A11.22,11.22,0,0,0,74,73a7.18,7.18,0,0,0,.47-1.19A3.78,3.78,0,0,1,76.33,69c1.19-.73,2.27-.89,3,.35.6,1.05,1.36.83,2.25.46a3.77,3.77,0,0,1,.58-.14,5.89,5.89,0,0,1,1.92,0c1.7.35,2,1.2.91,2.43.26.42.79.53,1.23.75,1.15.62,1.16,1.21-.12,1.64a7.84,7.84,0,0,1-4.6.14,22.18,22.18,0,0,1-3.26-1.37,4.49,4.49,0,0,0,2.37,1.26c1,.28,2.15.28,2.74,1.21s.19,1.77.22,2.65c.36,2.17-1.57,3.65-2.31,5.49a2.17,2.17,0,0,1,1.68-1.64,1.66,1.66,0,0,1,1.43.45,1.07,1.07,0,0,1,.22.5c.08.74-.72,1.3-.66,2.08.74-.13.69-.73,1-1.1.86-1.23.33-2.8,1.37-4,.34-.73.75-1.42,1.14-2.12A14.88,14.88,0,0,1,89.89,75c.86-.9,1.3-2,2.19-2.92a21.85,21.85,0,0,1,1.73-1.6c.63-.6.77-1.47,1.52-2,1-.62.61-2.08,2-2.46s2,.34,2.09,1.43a11.32,11.32,0,0,1-1.74,3.83c-.89,2.4-3.69,3.66-4.86,5.88a9.19,9.19,0,0,0-1.23,1.47c.37-.43.69-.74,1-1.06,1.69-1.87,3.45-3.69,5.07-5.61,1.73-2.48,2.75-5.21,4.07-7.84,1.81-3.61,5.28-6.36,7.3-9.87A7.19,7.19,0,0,0,110,52.6a3.85,3.85,0,0,1,1.17-2.26,3.33,3.33,0,0,0,1-2.49c0-1,.6-1.65,1.87-1.72s2-1.05,2.89-1.7,1.41-1.63,2.84-1.22C120.15,43.48,120.36,43.8,120.19,44.21Z"/><path class="cls-32" d="M91.21,49.91c1.16-1.12,1.46-2.59,2.22-3.88.3-.52.57-1.23,1.55-.57a1.05,1.05,0,0,0,1.76-.59c.78-2.77,3.32-4.43,5.33-6.43.32-.32.86-.67.85-1-.06-2.25,2.32-2.84,3.72-4.08a13.47,13.47,0,0,1,4.2-2.6c.88-.33,1.8-1.08,1.47-2-.87-2.47,1.42-3.2,3.06-4.35s3.8-2.3,4.82-4.18c.19-.35.41-.63.94-.46a25.49,25.49,0,0,0,2.66,1.82c1.27.66,1.51,1.17.39,2.23-2.28,2.15-5.25,3.56-7.79,5.42a15.29,15.29,0,0,0-1.74,1.32c-.31.31-.72.68-.41,1.14s.74.3,1.15.37c.58.1,1.38-.5,1.72.23s-.35,1.12-.81,1.59c-.27.27-.61.52-.56.94-.3,1.13-1.45,1.67-2.32,2.42A3.89,3.89,0,0,1,110,38.56a6.27,6.27,0,0,0-2.84.52c-.11,0-.27.08-.32.17s.06.15.23.12c.38-.08.76-.19,1.15-.27,1.77-.92,3.85-.26,5.72-.77.55-.15,1,.37.62,1a9.91,9.91,0,0,1-2.94,3.3c-.74.45-1.83.74-1.08,1.86.15.23-.1.68-.43.77-1.65.46-2.8,1.95-4.79,1.7a5.09,5.09,0,0,0,2.92-.73c1-.39,2.26-.84,2,.92a19.43,19.43,0,0,1-10.65,6.53,2.74,2.74,0,0,0-.41,0c-.76.2-2.09-.58-2.2.64-.08,1,.8,1.59,2.08,1.53a1.77,1.77,0,0,1,.57.21c.57.51.49,1-.15,1.37a2.23,2.23,0,0,1-1.2.11,9.24,9.24,0,0,1-3.58-.82c-.7-.45-1.16-1.12-1.92-1.53a1.76,1.76,0,0,1-.54-.65,3.74,3.74,0,0,1-.23-1.36C92.43,52,90.74,51.11,91.21,49.91Z"/><path class="cls-33" d="M31.21,74.51c0-.24.13-.38.39-.44a2.52,2.52,0,0,0,2.51-.64,1.72,1.72,0,0,1,2.3-.05,8.69,8.69,0,0,0,4.8,1.85c.86.06,1.26.73,2,1.22,0-1.31,1.12-1.93,1.93-2.73a1.69,1.69,0,0,1,1.72-.43c2.9.7,2.91.68,3.66-1.45a12.93,12.93,0,0,0,2.06-.4c.73.31.72,1.18,1.52,1.43.2.07.55.29.54-.16,0-.16-.18-.32-.26-.49a.42.42,0,0,1,.16-.45,4.35,4.35,0,0,1,1.75-.4,1.51,1.51,0,0,1,.57.16c1.46.77,2.82,1.34,4.32-.11.75-.71,1.41.07,1.7.69s0,1.18-.65,1.57a4.38,4.38,0,0,0-2.66-.32c-1.25.22.24.49,0,.77-.6.49-1.51.61-2,1.2a25.43,25.43,0,0,1-2.28,1.13,1,1,0,0,1-.56-.14c-.9-1.13-1.89-1.9-3.49-.74a2.18,2.18,0,0,1-1.65.11c-.81-.12-1.4.06-1.54,1,1.1,0,2-.55,3-.39.69.11,1.67-.16,1.71.88a2.14,2.14,0,0,1-.55.26c-2.83.93-6,.41-8.78,1.52a26,26,0,0,0-3.05.44c-.63-.57-.59-1.53-1.52-1.92-.1-.47.35-.59.62-.89-.8,0-1.66,0-1.85,1-.17.65-.38,1.27.23,1.88s1.28,1.35,2.39.44a4.17,4.17,0,0,1,2.83-.58c.82,0,1.43.28.9,1.14-.41,1.11.8.36,1.08.66,1.38.34,1.14,1,.48,1.74S44,84,43.33,84.69s0,.62.46.72c2,.13,3.45.78,3.86,2.59.16.92-.51,1.47-1.24,2a1.26,1.26,0,0,1-.61,0c-.91-.16-1.17-1.72-2.42-1a4.4,4.4,0,0,0-1.85,3c-.13.58.37.88,1.1.72.53-.11,1-.58,1.6-.32.48,1-.56,1.44-1,2.09a1.94,1.94,0,0,1-1.59.74c-.75-.14-.88-.78-1.32-1.47,0,.64.11,1,.11,1.35-.2,1.17.74,1.92,1.36,2.8s.94,1.64-.74,1.82a2.88,2.88,0,0,1-2.18-1.23c.54.92,1.77,1.2,2.32,2,.61,1.41-.45,1.7-1.72,1.86a5.81,5.81,0,0,1-3.24-.77c-.37-.28-.93-.6-.86-1,.26-1.51-1-1.75-2.2-2.13-1.22-.81-2.64-.32-4-.44A19,19,0,0,1,25.55,98c-.66-.12-1.7,0-1.65-.79s1.05-.68,1.74-.68c1.58,0,3.66.18,4.34-1,.77-1.28-.89-2.5-1.76-3.65a33.87,33.87,0,0,0-2.87-3.39c-1-1.07-2.27-2.31-.74-3.85.3-.31.4-.88-.36-.93-.45,0-.62,1.24-1.34.33a1.76,1.76,0,0,1,.16-2c1.74-.49,2-2.41,3.78-2.71,1.56,1,3.18,1.88,4.08,3.42,1.67,2.25.9,4.23-2,5.11-.89.29-.42.81-.29,1.28.91,1.38,2.4,2.4,3.28,3.81.38.61,1,1.09,1.82.21A1.28,1.28,0,0,1,35,93c1.88.52,2.14.4,2.37-1.1a1.23,1.23,0,0,1-.25-.95c.33-1.7.14-1.82-2.08-1.24a3.82,3.82,0,0,1-2.86-2.36c0-.54.25-1.18.79-1.14,1.46.09,2.47-.89,3.83-.93a1.11,1.11,0,0,1,.72.47c.3.57,0,1.13-.14,1.76.84-.29.63-1.3,1.59-1.32.6.13,1.05,1.19,1.71.48a2,2,0,0,0-.06-2.23c-.52-1-1.12.39-1.72.06a2.2,2.2,0,0,0-3.1.54,2,2,0,0,1-2.45.59c-.94-.45-.88-1.17-.44-1.9.55-1-.52-1.21-1.16-1.6s-1.71-.49-1.39-1.52c.94-1.07,2.55-1.27,4-2.12-2.26.31-3.69-.85-5.36-1.42.2-.54.33-1.12,1-1.42.94-.56,1.53,0,2.21.54C32.15,75.42,30.44,75.47,31.21,74.51Z"/><path class="cls-33" d="M24.43,124.36c0-.12-.13-.31-.09-.34,2.91-2,2.19-4.24.76-6.57-.16-.26-.37-.69-.61-.71-2.18-.2-2.62-1.86-3.64-3a4.14,4.14,0,0,1,.82-4.38c.49-2.16,1.36-2.68,4.16-2.48.27.07,0-.4,0-.15,0,0,0,0-.09,0-1.89-.53-2.61-2.13-1.54-3.45,1.56-.05,2.34,1,3.32,1.74a16.08,16.08,0,0,0,1.7,1.36,2.18,2.18,0,0,0,1.86.12,11.78,11.78,0,0,1,4.82-.6c1.29-.06,2.39.57,3.62.73,1.45.27,2.71,1,4.19,1.23a2.11,2.11,0,0,1,.6.18c.51.38,1.65.33,1.52,1-.08.45-1,.83-1.53,1.15-.8.45-1.87.53-2.42,1.31-.94-.25-.94-.25-.89-2-.51.77-.93,1.32-1.71,1.48-.13,0-.27.08-.39.13s-.53,0-.61.27a1,1,0,0,1,.6-.06c.64.26,1.69-.08,1.81.91-.79.74-2.19,0-2.92.85-.73,1.2-.13,2.4,0,3.61a5.19,5.19,0,0,1-3.47,4c-.94.61-2.41-.75-3.18.63.51.63,2.31.58,1.4,1.92-.37.85-.64,1.91-1.58.22-.57-1-1.76-.72-2.62-.41a5.45,5.45,0,0,0-2.36,1.19,1,1,0,0,1-1.24.54A.59.59,0,0,1,24.43,124.36Z"/><path class="cls-34" d="M43.7,107.87c-1.59.36-2.86-.64-4.34-.75-.38-.8-.29-1.72-.93-2.45a2.46,2.46,0,0,1,0-1.65c.28-.32.66-.57.81-1,1-.12,2.28-.07,1.42-1.49a1.8,1.8,0,0,1,1.24-.73c1-.1,1.2-.43.49-1.11s-1.55-1.25-1.07-2.3a3.43,3.43,0,0,1,2.3-1.32c.6,0,1.31.21,1.3-.7,0-.52,0-1.18.81-1.31s1,.57,1.34,1c.23.23.41.49.83.87a2.54,2.54,0,0,1,0-1.83,2.47,2.47,0,0,1,.55-.93A5.94,5.94,0,0,1,49.79,91a2.63,2.63,0,0,0,1.56-3c.07-.89-.45-1.72-.38-2.61,0-1.16,1.34-2.09.83-3.35.7-.76,1.24-.22,1.71.2a19.2,19.2,0,0,0,1.89,1.44A2.6,2.6,0,0,1,55.13,87c-1.06,1-.66,1.91-.1,3a7.32,7.32,0,0,1,.44,5.5,1.47,1.47,0,0,1-.67-2A1.89,1.89,0,0,0,53.43,91c-.93-.2-1.42.94-1.67,1.92-.44,1.68-.92,3.16,1.94,3.5.71.09,1.14.94.73,1.31-1.76,1.56.1,2.66.51,3.94.48,1.07,1.67,1.94,1.26,3.26-2,.49-4-.08-6,0a2.07,2.07,0,0,1-.6-1.31c-.14-.74-.65-1-1.49-.88a18.49,18.49,0,0,1-4.4-.11c-2.87.15-3.1.55-1.64,2.79-.63.74-1.6,1.52.46,1.8C43,107.2,43.32,107.62,43.7,107.87Z"/><path class="cls-35" d="M127.49,10c.45-.6.07-1.86,1.69-1.54h0a16,16,0,0,1,2.94,2.32c.8.55.55,1,0,1.66a15.45,15.45,0,0,0-2.88,4.83c-.1.34-.5.92.22,1.08a3.37,3.37,0,0,0,1.67-.08c.49-.17.27-.65.09-1-.4-.67-.31-1.29.57-1.43s.74.67.91,1.15c.24.69.52,1.37.79,2.06-.07,1.11-.47,1.76-2,1.22a3.3,3.3,0,0,0-2.75.61c-2.39.18-3.47-1.53-5-2.54a10.57,10.57,0,0,1-1.53-1.46c-.32-.39-.39-.77.09-1.12.92-.25,2.22-.08,2.2-1.4l.37-.44c.09-1.13,1.63-.79,2.14-1.5C127.16,11.63,126.93,10.75,127.49,10Z"/><path class="cls-2" d="M70,79.5c0,.55,0,1.09.1,1.63s.31,1.1,1,.73c1.31-.65,2.86-.1,4.13-.76.38-.2.81-.31,1.08.15s0,.59-.3.8-.76.76-1.14.76c-2.66,0-3.95,1.84-5.7,3-.67-.46-1.14.35-1.77.21a.91.91,0,0,1-.48-.24c-.09-.64.41-1,.93-1.29,1.15-.61.35-1-.19-1.41A7.08,7.08,0,0,0,67,79.2a5.4,5.4,0,0,0-.84-2.28c0-.08,0-.16,0-.24-1-1.05-1.24-1.86.77-2.28A1.3,1.3,0,0,0,68,73c-.21-.36-.66-.44-1-.61-2.84-1.37-3.12-2.45-1.26-4.93v0c1.36-.09,1.62,1.65,3.1,1.35,1.18.28,1,1.07,1.07,1.85,0,1,.55.74,1.11.27a6.86,6.86,0,0,0,3-4.1,1.1,1.1,0,0,1,.79-.77c.59-.3,1-.13,1.07.42a3,3,0,0,1-.73,2.93A3.31,3.31,0,0,0,74,72.08a4.91,4.91,0,0,1-1,2.33c-.65,1.1-1.6-.25-2.33.21-.94,1.5-1.69,3-1.16,4.78.06.17-.12.36-.08.55A.52.52,0,0,1,70,79.5Z"/><path class="cls-36" d="M120.19,44.21l-.55-1a8.93,8.93,0,0,1,1.77-5.12c.17-1.61,1.78-2.71,2.07-4.28.07-.63.55-1.2.57-2-1,.66-.62,1.73-1.43,2.28-1.59.56-1.51-.22-1.27-1.14.9-1,.87-2.31,2.21-3.27,1.52-1.09,2.89-.63,4.36-.61.62,0,.76.38.71.9a12.49,12.49,0,0,1-2.76,6.65C123.93,39.12,121.62,41.43,120.19,44.21Z"/><path class="cls-32" d="M62.28,73.68c.18-.78.89-1.63-.43-2.19a3.22,3.22,0,0,1-5.18.07c-.23-.8-.92-1.5-.76-2.4.06-.23.16-.46.22-.7.19-.69-1.12-1.25-.25-2,1.12-.45,2,.26,2.76.63,1.86.88,4-.09,5.8.78.21.18.44.46.29.63-1.28,1.41-.15,2.33.87,3.3.44.42,1.14.8.53,1.5A3.14,3.14,0,0,1,62.28,73.68Z"/><path class="cls-32" d="M55.4,83.65a2.22,2.22,0,0,1-2.23-1.14c-.27-.4-.6-1-1.25-.27-.53,2.2-2.08,3.94-3.63,5.67a.58.58,0,0,1-.74.14c-2.29.11-1.09-1.09-.93-1.9-.89-.58-2.6,1.46-2.92-.68-.07-1.13,1.45-1.29,1.82-2.15,1.24-1.72,3.7-1.82,5.39-2.94C52,79.84,53,79.27,54,80.5a4.47,4.47,0,0,1,1.33,2.79Z"/><path class="cls-37" d="M93.28,129.9c.34,4.74-.41,9.44-.32,14.19-.58-3.17-2.88-6-2.16-9.33.35-1.61.84-3.22.39-4.88a3,3,0,0,1,.94-3.44c1-.14,1,.4,1,1A7.66,7.66,0,0,0,93.28,129.9Z"/><path class="cls-36" d="M39.47,125.25c-2.62,1.62-3.28,4.81-6.65,5.95.2-3.11.91-6,3.43-8.34C39.35,122.76,39.69,123,39.47,125.25Z"/><path class="cls-38" d="M55.31,83.29l-1.65-2.61c.56-.93-.24-1-.95-1s-1.15.39-1.79.35a1.55,1.55,0,0,1-1.3-.51c-.23-.77.38-1.09,1.06-1.33a2.74,2.74,0,0,0,1.61-1.11l.45-.08a2.23,2.23,0,0,1,1.62-.46c.37,0,1,.7,1-.27a2.22,2.22,0,0,1,2.17-1c1-.79,2.28-.37,3.45-.37.37.12.94.21.41.67-.16.13-.55,0-.84.07-3,.15-3.12.16-3,2.6.07,1.2-.74,1.92-1.37,2.76A3.13,3.13,0,0,0,55.31,83.29Z"/><path class="cls-39" d="M45.86,113.08c1.43.74,2.59,1.63,2.2,3.27-.31,2.53-3,2.45-4.91,3.23l.06,0c-.32-1.64.27-3.19.56-4.77.5-.67-.08-1.49.39-2.16A1.87,1.87,0,0,1,45.86,113.08Z"/><path class="cls-38" d="M89.89,154.07a21.63,21.63,0,0,1,.82-9.14c0,1.14,0,2.26,1.2,3.13a1.52,1.52,0,0,1,.47,1.35c-.45,2.71.31,5.41.07,8.11,0,.22-.25.42-.38.63-1.58.32-1.32-.88-1.7-1.52C89.9,155.83,90.67,154.84,89.89,154.07Z"/><path class="cls-40" d="M92.07,96.86c2,.49.93-1.22,2-1.86a25.06,25.06,0,0,1,.12,6.63c-.2.7-.5,1.15-1.31.41-.64-.69-.23-1.36,0-2.06.18-.52.32-1.26-.54-1.35s-.83.71-1,1.21c-.28.89.68,1.75.15,2.67a3.68,3.68,0,0,1-2.16-.69c-.64-.3-1.46-.84.19-1,1.2-.11.87-1,.85-1.57-.06-1.35-.17-2.69.94-3.82C92.41,95.57,91.43,96.54,92.07,96.86Z"/><path class="cls-41" d="M89.87,89.54c.54,1.85,1.12,3.71-.45,5.42a3,3,0,0,0-.86,2.37c0,.53,0,1.2-.68,1.41a1.74,1.74,0,0,1-1.52-.54c-.5-.44-.69-1.2-.27-1.5,1.36-1,1.24-2.42,1.89-3.6.24-.44,1.1-.85.54-1.42a2,2,0,0,0-2.28-.22l2.73-2A.74.74,0,0,1,89.87,89.54Z"/><path class="cls-42" d="M90.41,114.08c-.79.09-1.22-1.53-2.24-.33-.56-.39-.38-1.14-1-1.5-.26-.14-.49-.6,0-.69,2.22-.41.79-1.67.79-2.53,0-.63-1.1-1.57.14-1.8s2.93.2,3.05,1.39C91.3,110.43,91.82,112.38,90.41,114.08Z"/><path class="cls-43" d="M83.83,128.8c-.66-.58-.44-1.23-.18-1.86.53-1.3.21-2.09-1.61-2.14-.39,0-1.07.42-1.19-.33-.07-.51.26-.73.84-.85,1.58-.32,1.81-1.36,1.73-2.52.46.47,1,1.09,1.52.12a2.44,2.44,0,0,1,1.5-1.21c.9.36.9.95.62,1.64s-.78,1.27-1,1.94a1.64,1.64,0,0,0,0,1.55c.29.64.73,1.26-.74,1.57C84.59,126.87,84.87,128.34,83.83,128.8Z"/><path class="cls-33" d="M42.08,105.34c-.83-.57-2.28-1-1.55-2.14a2.32,2.32,0,0,1,3.19-.83,3.38,3.38,0,0,1,1.74,1.09c.82.5,2.1.43,2.59,1.75A34.73,34.73,0,0,0,42.08,105.34Z"/><path class="cls-2" d="M26.34,133.28l-1.62-1.93.09-1.83c.11-1,.51-1.89.62-2.85s.21-1.72,1.51-1.89h2.21c-1.22,2.64-3.4,5-2.18,7.93C27.06,133.14,26.83,133.31,26.34,133.28Z"/><path class="cls-44" d="M39.47,125.25c.32-2.15-1.79-1.94-3.22-2.39,1.36-.14,1.48-1.46,2.64-2,1.41-.6,3-.69,4.33-1.29l-.07,0c.77,1,0,1.91-.88,2.25C40.43,122.54,39.57,123.62,39.47,125.25Z"/><path class="cls-4" d="M31.48,134.91c2.32-1.39,4.86-2.39,6.28-4.51a.56.56,0,0,1,.89-.05.6.6,0,0,1,0,1c-1.31,1.3-2.21,2.87-3.81,4C33.52,136.23,32.6,135.44,31.48,134.91Z"/><path class="cls-45" d="M106.71,38.83a3.32,3.32,0,0,1,2.56-.64,3.93,3.93,0,0,0,4-1.48c.58.47,1,.14,1.37-.23a3.34,3.34,0,0,1,1.67-1.23c.37-.12.68-.61,1.1-.35s0,.55-.22.85c-1,1.13-1.3,2.6-2.62,3.56-.1-.35-.34-.93-.7-.69-1.8,1.15-4.12-.17-5.86,1C107.7,39.16,106.93,39.32,106.71,38.83Z"/><path class="cls-46" d="M124,33.77c0,1.73-2,2.73-2.1,4.41-.49-.48-.85-1-1.81-.41a9.41,9.41,0,0,1-2.21,1.33.93.93,0,0,1-.83-.21l4.29-6c.12.69.17,1.46,1.39.83.62.63-.06,1.12-.21,1.57C123.19,35,122.66,33.77,124,33.77Z"/><path class="cls-47" d="M109.81,47.07c0-1.55-1-.74-1.56-.43a6.09,6.09,0,0,1-3.7.68c-.43,0-1-.08-1-.53s.54-.53,1-.36c2.27.87,3.68-.85,5.19-1.56s-.53-1.11-1.29-1.44c.94-1.12,2.28-.17,3.11-.82l-.62,1c-.16.29-.22.66.14.77,1.71.53,1.41,1.36.56,2.31A2,2,0,0,1,109.81,47.07Z"/><path class="cls-48" d="M78.35,96.09c-.58-.19-1.42-.25-1.5-.82-.1-.74,1-.49,1.39-.83,1.14-.91,2.9-.29,4.06-1.18a.55.55,0,0,0,0,.18c.1.94,2.12.38,1.75,1.51-.23.71-1.64.64-2,1.47-1.72.79-2.19-.18-2.5-1.34C79,95.31,78.86,95.87,78.35,96.09Z"/><path class="cls-49" d="M45.46,103.46a2,2,0,0,1-1.74-1.09c.07-.31.15-.67.64-.36a4.5,4.5,0,0,0,3.1.31c2.64-.33,2.64-.37,2.71,1.8,0,.25,0,.49,0,.73C48.7,104.22,47.65,102.43,45.46,103.46Z"/><path class="cls-50" d="M130.15,26.78c-.11.94-.22,1.75-1.38,1.26-1-.41-2.88.6-2.88-1,0-.78,1.2-1.56,2.63-1.3C129.41,25.92,130.58,25.66,130.15,26.78Z"/><path class="cls-51" d="M66.13,73.3a6.48,6.48,0,0,0-2.53-2.8c-.84-.5-1.28-.89.13-1.25.77-.19.74-.81.71-1.38l1.24-.41c-.44.84-.16,1.78-.64,2.69s1,1.1,1.59,1.62c.45.39,2,0,1.33,1.23A3,3,0,0,0,66.13,73.3Z"/><path class="cls-4" d="M117.06,38.89H118c.09,2.08-2.71,5.08-5.31,5.66-.51-.2-.63-.51-.33-.93Z"/><path class="cls-52" d="M32.49,123.28c-.12-.43.07-1-.79-1.06s-2-.06-1.49-.94a2.14,2.14,0,0,1,2.73-1c.44.18.88.34,1.33.5A6.11,6.11,0,0,1,32.49,123.28Z"/><path class="cls-29" d="M123.21,27.65c-1.67,1.38-3,3.19-6,3.2A9.45,9.45,0,0,1,123.21,27.65Z"/><path class="cls-53" d="M28.65,131.34c-.22-2.06.77-3.78,2.19-5.38.25,1.82-1,3.34-1.42,5C29.23,131.19,29.12,131.55,28.65,131.34Z"/><path class="cls-54" d="M40.68,112.25c-.53-.67-1.61,0-2.16-.65.12-.3.69-.43.43-.86.25-.42,1.33-.17,1.13-.88-.26-.92.32-1,1-.8s1,.65.68,1.29c-.19.39-1.24.84.08,1.17C41.67,112,41.18,112.13,40.68,112.25Z"/><path class="cls-55" d="M93.28,129.9c-.6-.67-.41-1.48-.5-2.24,0-.46.12-1-.72-1.08a2.53,2.53,0,0,1-1.24-.33l1.29-2.61C93.88,125.54,92.94,127.81,93.28,129.9Z"/><path class="cls-56" d="M76,144.48c0,.94.33,2-.86,2.62-.25-1.28-.92-.7-1.55-.25-.47.34-1.12.61-1.46.09s.26-1.12.87-1.19C74.25,145.63,75,144.82,76,144.48Z"/><path class="cls-57" d="M64.87,80.36c.5-1.08,1.51-2.11.39-3.33a.67.67,0,0,1,.88-.35l0,0c.71,1,.59,2.26,1.15,3.33a4.87,4.87,0,0,1-.55,2.86c-.47.33-.82.08-1.17-.18C65,82,65.35,81.08,64.87,80.36Z"/><path class="cls-58" d="M127.32,25.32c-.39.1-.66,0-.74-.26a1.65,1.65,0,0,1,.35-1.55.9.9,0,0,1,1.08-.38c.51.17,1,.52,1.46.67s1.27.07,1,.81-.73.06-1.11,0C128.43,24.42,127.94,25.07,127.32,25.32Z"/><path class="cls-49" d="M89.52,172.05c-.13-.05-.34-.08-.37-.16-.37-.79-2.35-.28-1.89-1.12a2.31,2.31,0,0,1,3.16-1c.14.07.5-.16.77-.25a.81.81,0,0,1-.89,1C88.68,170.56,89.45,171.42,89.52,172.05Z"/><path class="cls-26" d="M78.35,96.09a1.76,1.76,0,0,1,.76-1.61,1.17,1.17,0,0,1,1.35-.18c.58.3,0,.55-.11.85-.44,1.37.48,1.5,1.73,1.27-.26.75-1.37.26-1.73.87A5.93,5.93,0,0,1,78.35,96.09Z"/><path class="cls-59" d="M90.82,126.25c.65-.52,1-.14,1.24.33l-.87,3.3c-.44-.15-.79-.22-.81.36s.2,1.32-.42,1.85C89.41,130.06,90.92,128.24,90.82,126.25Z"/><path class="cls-60" d="M89.89,154.07c1.56-.29.79.75.92,1.22.28,1-.47,2.32,1.26,2.86l-.92.77C90,157.44,89,155.93,89.89,154.07Z"/><path class="cls-28" d="M73,112.66a4.31,4.31,0,0,0,3.47,1.66c-1.45.86-2.53,1.31-2.21,2.45A6.17,6.17,0,0,1,73,112.66Z"/><path class="cls-61" d="M38.6,113.45c.6,0,1.52-.36,1.59.39A2.25,2.25,0,0,1,38.57,116c-.68.26-1.11,0-1.23-.55A1.56,1.56,0,0,1,38.6,113.45Z"/><path class="cls-62" d="M85.52,123.64a2.1,2.1,0,0,1,.8-1.59c.84-.65.72-1.34.12-2l.57-.36c1.27,1.48.26,2.88-.17,4.31C86.24,124.33,85.73,124.45,85.52,123.64Z"/><path class="cls-63" d="M112.31,43.63c0,.32.06.64.48.78-.08,1.1,1.59,1.21,1.71,2.2-1.26-.08-2.08.22-1.75,1.49-1.07-.12-1.21-.81-1.28-1.53.32-.71.9-1.42-.48-1.88-.51-.17-.51-.68,0-1C111.45,45,111.86,43.58,112.31,43.63Z"/><path class="cls-64" d="M121.13,19.74l-.94.46c-.15-.26-.06-.63-.49-.75a1.8,1.8,0,0,1-.62-3c.59-.54.75.1,1,.41C119.48,18.09,120.38,18.9,121.13,19.74Z"/><path class="cls-65" d="M56.2,104.89c0-1.2-1.66-2-1.26-3.26.52.66,2.13.52,1.71,1.94-.15.52,1.43-.17,1.62.81C57.73,104.89,56.8,104.47,56.2,104.89Z"/><path class="cls-66" d="M50,107c-2,1.08-3.7.21-5.82-.51C46.45,106.16,48.21,106.89,50,107Z"/><path class="cls-66" d="M91.09,87.47c1,.49,2.93.24,2,2-.16.29-.42.7-.93.58a.66.66,0,0,1-.5-.74A2.71,2.71,0,0,0,91.09,87.47Z"/><path class="cls-67" d="M92.84,102a1,1,0,0,0,1.31-.41c-.28,1.06,1,1.73.95,2.72,0,.48.12,1.16-.61,1.19a.71.71,0,0,1-.64-1.11C94.48,103.29,93.1,102.85,92.84,102Z"/><path class="cls-22" d="M28.65,131.34l.77-.36c-.72.9.35,2.33-1.21,3-.67-.14-1.57.19-1.87-.68l.63-.57C28.56,133.16,28.61,132.26,28.65,131.34Z"/><path class="cls-68" d="M26.94,124.78c-1.12.46-.85,1.36-.94,2.15-.68.82-1.31.73-1.6-.19a2.6,2.6,0,0,1,.26-2.29c.48.23.83-.2,1.27-.17C26.13,124.64,26.58,124.65,26.94,124.78Z"/><path class="cls-69" d="M52.9,108.35c-1.36-.18-.86-1-1.17-1.48s.54-.68,1-.77,1.24.22,1.06.55A5.38,5.38,0,0,0,52.9,108.35Z"/><path class="cls-70" d="M116.27,35.25c-.58.67-1.14,1.34-1.72,2-.26.3-.6.6-1,.43s-.24-.63-.27-1l2.51-1.91Z"/><path class="cls-71" d="M38.6,113.45c-.46.85-2,1.68,0,2.54l-.83.72c-1-1.21-1.79-2.42,0-3.61Z"/><path class="cls-32" d="M61,74.85c-1.06.74-2.31.2-3.45.37.11-1.21,1.17-1.09,2.13-1.09A2.48,2.48,0,0,1,61,74.85Z"/><path class="cls-72" d="M83.32,120.75c-1.36-.09-2,.76-2.54,2-.68-1.51-.31-2.27.85-2.8C81.79,120.83,83.08,120,83.32,120.75Z"/><path class="cls-44" d="M40.33,119.73c-1.34-1.09-1-2,.66-3C40.34,117.85,41.48,118.86,40.33,119.73Z"/><path class="cls-73" d="M67.86,179.85c1.39-.5,2.74-.91,3.16.94C69.78,180.93,68.6,180.92,67.86,179.85Z"/><path class="cls-43" d="M57.52,106.61c-.11.63-.59.86-1.19.92s-1.19.15-1.27-.36c-.13-.84.92-.79,1.48-1S57.29,106.33,57.52,106.61Z"/><path class="cls-22" d="M44.16,112.69c.6.81,1.11,1.62-.39,2.16C42.66,114,42.36,113.19,44.16,112.69Z"/><path class="cls-72" d="M89.87,89.54l-.9-.05c0-.68-.46-1-1.22-1a1.2,1.2,0,0,1,.38-1.12C88.25,88.32,90.61,88.05,89.87,89.54Z"/><path class="cls-74" d="M73,138.35a2.18,2.18,0,0,0,1.47,0c0,.17-.11.34-.15.51-.13.56,0,1.42-1,1.32s-.2-.87-.31-1.34A4.6,4.6,0,0,1,73,138.35Z"/><path class="cls-75" d="M92.07,96.86c-.71-.3-.19-1.08-.78-1.43.36-.56.13-1.35,1.18-1.88C92.86,94.78,91.68,95.79,92.07,96.86Z"/><path class="cls-76" d="M60.58,106.06c0,.32-.16.64-.58.62a.86.86,0,0,1-.84-.88c0-.32.07-.61.55-.57S60.58,105.57,60.58,106.06Z"/><path class="cls-39" d="M92.47,53.16l0,1.43a10,10,0,0,0-1.25,1.6c-.4.32-.26.82-.57,1.17-.9,0-1.18.52-1.43,1.09-.44.68-.88,1.34-1.43,2.1,1-.43,1-1.35,1.58-1.88a.84.84,0,0,1,1,.49c.9,1.35,2.19,1.49,3.74.89a2.23,2.23,0,0,1,1.61.62c.63.66,1.64,1,2.15,1.75a.75.75,0,0,1-.13.73c-1.66-.18-1.71.74-1.66,1.74a1.27,1.27,0,0,0-.25,1.57c-.08.72-.56,1.4-.33,2.15l-1.29,2.21a2.31,2.31,0,0,1-.71-1.42c-.28-1.21-.05-2.48-.22-3.94-1.41.81.88,2.21-1.15,2.49-.86-.45-1.87,0-2.75-.36A2.42,2.42,0,0,0,87.59,66c-.15-1.32.92-1.62,2.1-1.79.83-.12,1.73,0,2.35-.66a6.91,6.91,0,0,0,.57-.51c-.24.13-.37.35-.59.5a6.52,6.52,0,0,1-2,.08c-.59,0-1.16.14-1.75.15a1.49,1.49,0,0,1-.55-.14c-.43-.59-1.24-.59-1.88-.86a1.34,1.34,0,0,1-.45-1.41,14.22,14.22,0,0,1,1.11-2.25c.39-.46.24-.88-.45-1.09-.14-.56-1.3-.85-.73-1.51s1,.18,1.47.28C88.6,57.09,88,55.61,88.6,55a.75.75,0,0,1,.51-.17c.73.07.79-.32.77-.79a3.27,3.27,0,0,1,.31-2.31C91.47,51.62,91.34,53.14,92.47,53.16Z"/><path class="cls-32" d="M50.61,72a2,2,0,0,1,0,.55c-.18.63,1,1.61,0,1.75a5.32,5.32,0,0,1-3.06,0C47,74,46.4,73,45.88,73.74s-2.4,1.14-2,2.55c.12.36.34.77-.12,1a.81.81,0,0,1-1.14-.53c-.79-1.82-3.22-.65-4.4-1.77-.31-.29-1-.28-1.29-.58-1.12-1.23-2.08-1.39-3.31,0-.59.65-1.59,1-2.06-.27,1.19-1.61,2.49-3,5.13-2.16a5.74,5.74,0,0,0,1.7,0A82.53,82.53,0,0,1,50.61,72Z"/><path class="cls-39" d="M24.48,103.41c-.77,1.2,0,2.66,2.21,3.6-2.05.33-4.55-.18-4.56,2.32-1.4-.24-1.05-1.75-2.19-2.18-1.39-1.64-1.14-3.35-.12-5,.3-.48.48-.84.21-1.31-.43-.74-2.21-1.75.6-1.79.36,0,.4-1,.18-1.49a9.58,9.58,0,0,0,7.62,2.23,15.28,15.28,0,0,1,2.34,0,1.32,1.32,0,0,0,.81.12c.69-.07,1.14.16,1.15.77s-.51.83-1.11.94a6.35,6.35,0,0,1-2.34,0,11.78,11.78,0,0,0-4,.35c-1.44.14-2.11-.85-3-1.55-.24.38.31.7,0,1-.18.16-.46.22-.57.43.22,0,.27-.26.47-.34A2.87,2.87,0,0,1,24.48,103.41Z"/><path class="cls-58" d="M24.59,101.68a12.79,12.79,0,0,1,5.78-.46c.61.12,1.78.45,2-.49s-1.24-.32-1.56-.9c.58-.33,1.87-.1,1.63-1-.17-.67-1.2-.4-1.88-.46-1.65-.16-3.36.34-5-.34,2.75.15,5.53-.42,8.24.35a2.78,2.78,0,0,1,1.44,2.43c-.12.37-.42.74.28,1,.38.12.72.37.33.79-.17.1-.39.14-.57.23-.59.3.07.26.15.28,1.2.28,1.66.86,1.11,1.88-.87.56-2.22-.79-2.9.53.7.46,2.06-.27,2.38.93-1.65.13-3.32-.17-4.91.65a2,2,0,0,1-2.44-.39c.32-.27.83-.2,1.27-.55C27.23,105.39,25.87,103.57,24.59,101.68Z"/><path class="cls-61" d="M50.61,72l-12.18-.08c2.36-.66,4.8-.22,7.2-.31,2-.08,4,0,6.42,0-1.65-1.49-3.66-1-5.25-1.73.79-.95,2.41-.72,3.15-1.64,0-.62-1.46-.24-1.1-1s1-.07,1.45.05A.9.9,0,0,0,51.4,67c.91-1.36,2.13-1.13,3.44-.49.69.41.64,1.08.82,1.68,0,1-.47,1.4-1.53,1.3.82.48,1.27-.76,2.11-.46-.37.92,1.37,1.58.43,2.56h-.4a1.52,1.52,0,0,0-1.76.35v0a1.72,1.72,0,0,1-1.73-.39A4.69,4.69,0,0,1,50.61,72Z"/><path class="cls-39" d="M67,65.65c.09-.66.7-.85,1.3-1.06a15.58,15.58,0,0,0,5.37-2.86c.4-.37.88-1,1.58-.53A1.27,1.27,0,0,1,75.58,63c-1.06,1-1.44,2.4-3,3-.34.32-.68.19-1,0-1.1-.29-.78.63-1.08,1-.61.71-.85,1.7-2.16,1.79C66.22,68.25,66.78,66.9,67,65.65Z"/><path class="cls-49" d="M73.54,72.34c-.53-1.7.86-2.82,1.7-4.12.49-.77,1.14-1.68-.47-2.18.59-.51,1.29-.94,1.33-1.76,0-.45.24-1,.85-.81s.45.77.26,1.2a8.31,8.31,0,0,1-.71,1.11c-.63.92-.49,2.07.44,2.41,1.17.42.82-1,1.29-1.44l.4-.41c.61.27.4,1,.92,1.3.63-.1.61-.71,1-1a1.45,1.45,0,0,1,.78-.36c1,.24.72,1.13,1.18,1.64.21.27.53.49.57.84-.29.62-1,.48-1.57.68-1,.36.32.38.18.65-1.08.63-2.18,1.52-2.7-.45-.12-.47-.63-1-1.17-.86a4.15,4.15,0,0,0-2.57,2c-.17.37,0,.85-.41,1.17-.59-.45-.57.16-.8.34A.54.54,0,0,1,73.54,72.34Z"/><path class="cls-4" d="M13.83,78.51c.42.6,1.11.24,1.67.34.68-.24.38-1.69,1.78-1.06l.56.68c.89,2.35-1.6,1.94-2.87,2.53a3,3,0,0,1-1,.09,8.44,8.44,0,0,1-3.61-3.43,1.48,1.48,0,0,1,.51-1.81l-.06,0c1-.51.77-1.34.79-2.1S12,72.54,13,73c.43.81-.35,1.81.53,2.55.19.48-.08.82-.47,1.12C12,77.68,13.77,77.85,13.83,78.51Z"/><path class="cls-77" d="M81.33,66.31l-.62.45c-1.1-1.37-1-2,.53-2.91.82.65,1.47.8,1.75-.38.14-.58.32-1.16.48-1.74,1.06-.23,1.18.49,1.26,1,.16,1.2.85.14,1.25.26.46.51.7,1.63,1.77.47l.49,0a1.14,1.14,0,0,0,1.61-.37,3.63,3.63,0,0,1,2.21.34h0c.59,1.32-.62,1.09-1.39,1.09-1.35,0-2.63,0-3,1.47a2.22,2.22,0,0,1-.17,1.88c-1.39,1.07-1.74.27-2.08-.78-.54-1.67-1.42-2.1-3.4-1.8C81.76,65.63,81.69,66.06,81.33,66.31Z"/><path class="cls-32" d="M28.93,77a4.19,4.19,0,0,1,2.94.74c.95.87,2.12.12,3.49.07-1.2,1.86-3.49,2-5.1,2.92-1.34-.21-2.67-.43-2.92-1.86A3.44,3.44,0,0,1,28.93,77Z"/><path class="cls-39" d="M81.24,63.85c-.6.91-1.23,1.82-.53,2.91-.66.46.27,1.91-1.18,1.73s-.64-1.41-.9-2.15a49.33,49.33,0,0,1,3.1-7.12C82.85,61.06,81,62.38,81.24,63.85Z"/><path class="cls-39" d="M22.08,89.26c.09,1.16-.9,1-1.76,1.07-.86-.16-1.71-.35-2.1-1.13-.21-.87.44-1.55.66-2.32.64-.59,1.05-1.58,2.37-1C22.26,86.89,21.12,88.27,22.08,89.26Z"/><path class="cls-16" d="M27.34,78.89c.76.85,2,1.19,2.92,1.86s2.11,1.12,3.14,1.71c.7.4,1,.84,0,1.22-1.41.74-2.14-.17-3-.89-.72-1.49-2.93-1.89-3.55-3.46Z"/><path class="cls-78" d="M21.25,85.91c-1.09-.15-1.4.77-2.13,1.12-.47.46-.08,1.73-1.41,1.37s-1.37-1.27-1-2.24a2.76,2.76,0,0,1,.56-.77,1.81,1.81,0,0,1,.79-.48,3.08,3.08,0,0,1,.61,0c.85.06,1.09-.38,1.14-1a9.08,9.08,0,0,1,.12-1.8,1.88,1.88,0,0,1,.43-1C21.48,82.6,20.27,84.39,21.25,85.91Z"/><path class="cls-7" d="M86,63.05c-.11.21-.24.41-.34.63s.09,1-.68.86c-.49-.08-.62-.57-.65-1,0-.67.31-1.49-.83-1.79a4.73,4.73,0,0,1,.4-2.64c.37-1.14,1-.83,1.79-.35a2.4,2.4,0,0,0-.23,2.59l.63,1.42Q86.21,62.93,86,63.05Z"/><path class="cls-2" d="M18.31,81.07a.72.72,0,0,1,.29.06c.36.2.27.49.21.77-.06.87,0,1.8-1,2.36a3,3,0,0,1-2.7-.23c-.59-.6-.78-1.21-.13-1.87a2.37,2.37,0,0,1,.53-.33C16.46,81.7,17.05,80.48,18.31,81.07Z"/><path class="cls-32" d="M90.35,51.71c.05.95,0,1.9.17,2.85,0,.39.12.67-.35.89s-.9,0-1.14-.41c-.37-.84-1.12-1.63-.44-2.6.11-.68.78-1,1.31-1.41C90.65,51,90.57,51.31,90.35,51.71Z"/><path class="cls-32" d="M85.43,61.33c-1.88-1-1.11-1.81.23-2.59L86,58c.42-.07,1-1.31,1.22,0S86.46,60.37,85.43,61.33Z"/><path class="cls-79" d="M43.28,68.67c.64,0,1.51-.14,1.53.56S44,70,43.33,70a22.16,22.16,0,0,0-5.27.41c-.38.09-1.14.22-1.1-.45,0-.45.51-.69,1.09-.7.89,0,1.85.31,2.63-.34C41.58,69.06,42.57,69.82,43.28,68.67Z"/><path class="cls-69" d="M71.72,65.67l.88.36c-.84,1.36-1.74,2.7-2.5,4.1-.3.53-.45,1.32.85.78a.84.84,0,0,1-.91.82c-.65-.06-.6-.63-.51-1a1.31,1.31,0,0,0-.87-1.64A.88.88,0,0,1,69,68.7C70.29,67.93,70.31,66.35,71.72,65.67Z"/><path class="cls-80" d="M90.35,51.71,89.9,51a2.11,2.11,0,0,1,1.31-1.12c.51,1.06,1.85,1.89,1.26,3.25-.59.42-1.13.78-1.56-.16C90.72,52.57,90.91,52,90.35,51.71Z"/><path class="cls-81" d="M88.59,52.44c.15.87.29,1.73.44,2.6H88.6c-.17-.66-.2-1.44-1.34-.56a2,2,0,0,1-1.73.47.41.41,0,0,1-.26-.6A1.5,1.5,0,0,1,87,53.29C88,53.51,88.1,52.78,88.59,52.44Z"/><path class="cls-61" d="M17.28,77.79c-.94-.07-1,.9-1.78,1.06.72-.89-.19-1.38-.65-2-.27-.35-.47-.8,0-1.14S15.58,76,16,76A4.83,4.83,0,0,1,17.28,77.79Z"/><path class="cls-61" d="M18.31,81.07c-1.16-.08-1.55,1.25-2.75,1.08.43-.74,0-1.16-.77-1.47.88-.88,3.42-.1,3.05-2.21C18.62,79.25,17.86,80.24,18.31,81.07Z"/><path class="cls-82" d="M31.21,74.51c0,1,2,.45,1.71,1.68-.1.37.21.92-.46,1-.49.09-.74-.29-.82-.66-.18-.83-.84-1-1.7-1Z"/><path class="cls-69" d="M67,65.65c.32,1.08-.3,2.55,1.71,2.92a.25.25,0,0,1,.16.22c0,.09,0,.14,0,.14l-.15.14c-2.07.88-1.83-1.3-3-1.63C66.69,67.15,66.6,66.27,67,65.65Z"/><path class="cls-37" d="M43.28,68.67c.09.29,1,.54.37.77-1,.37-2.25.82-3-.48C41.44,68.19,42.39,68.65,43.28,68.67Z"/><path class="cls-83" d="M55.33,68.31c-.65-.51-.48-1.19-.49-1.83l1,0c-.45.85,1.26,1.17.68,2.05C56,69.1,55.7,68.56,55.33,68.31Z"/><path class="cls-84" d="M18.59,81.76v-.63c.64,1.23,1.21,0,1.8,0l-.06,1.18a1.47,1.47,0,0,1-1.55.73C18.3,82.64,18.46,82.2,18.59,81.76Z"/><path class="cls-65" d="M46.55,67.58c.29.14.72.23.58.6s-.58.49-1,.47-.75-.11-.56-.53A1.1,1.1,0,0,1,46.55,67.58Z"/><path class="cls-85" d="M69.26,176.31c-.05.53-.36.79-1,.66-.39-.09-1-.13-1-.57s.63-.8,1.22-.83S69.23,175.91,69.26,176.31Z"/><path class="cls-47" d="M133.53,5.21l-2.34-3A11.37,11.37,0,0,0,133,1.77c.6-.25,1.46-.64,1.66-.07.29.83,2.29,1.14,1.06,2.4C135.06,4.56,134.54,5.23,133.53,5.21Z"/><path class="cls-31" d="M132.12,10.77c-2,.13-1.93-1.58-2.94-2.32l.82-.28c.95.32,1,1.44,2.13,1.64Z"/><path class="cls-86" d="M133.53,5.21c.41-.83,1.35-.9,2.19-1.11l-.92,2.51C134,6.41,133.25,6.14,133.53,5.21Z"/><path class="cls-87" d="M1,74.12c0-.58.13-1.22,1-1,1.08.31,1.06-.58,1.58-.86.09,1.89-1.43,3.58-.91,5.52C1.68,76.73,3,74.87,1,74.12Z"/><path class="cls-61" d="M10.83,75.85a1.42,1.42,0,0,0,.07,1.58,1.06,1.06,0,0,1-.52.22,6.35,6.35,0,0,0-2.57.14c-.93-.88.3-1.72.08-2.58.15-.16.29-.16.42,0C8.84,76.32,9.77,76.29,10.83,75.85Z"/><path class="cls-88" d="M8.31,75.22H8.1l-.21,0c0-.6-.58-.91-.93-1.33s-.31-.87.54-.83c.07.77.17,1.5,1.32.61.35-.28.67-.71,1.25-.49a.67.67,0,0,1,.32.59c-.11.54-.55.82-1.22.79S8.48,74.89,8.31,75.22Z"/><path class="cls-13" d="M7.81,77.79c.66-1.35,1.69-.77,2.68-.38.29.31.18.67.16,1a.47.47,0,0,1-.53.13l-2-.35Z"/><path class="cls-89" d="M5,78.1c-.35-.78-.45-1.39.3-1.85a.63.63,0,0,1,.5.15C6.06,77,5.78,77.52,5,78.1Z"/><path class="cls-47" d="M22.56,126.22c-.45.17-1,.13-1.12-.24-.8-1.84-1.53-3.69-2.24-5.56-.06-.15.17-.44.35-.6a.66.66,0,0,1,.94.05c.36.38.57.9,1,1.17,1.14.72,1.11,0,1-.68,1.21,0,1.18.83,1.43,1.48A15,15,0,0,0,22.56,126.22Z"/><path class="cls-61" d="M23.92,121.84c-.93-.17-.71-1.16-1.43-1.48-2.1-1-1.84-3.11-2.82-4.64-.12-.19.46-.06.71-.1.84,1.53,3,2.13,3.64,3.79C24.32,120.22,25.58,121.08,23.92,121.84Z"/><path class="cls-90" d="M19.94,107.15c1.88-.1,1.52,1.41,2.19,2.19-.28.39,1.28,1.55-.75,1.25-.6-.08-.49.46-.5.79,0,.78,0,1.55,0,2.33-.53-1.39-.67-3-2.6-3.64-.27-1.4.39-1.35,1.44-.67.35.24.63.85,1.16.31s-.23-.57-.53-.74C19.44,108.47,19.9,107.78,19.94,107.15Z"/><path class="cls-91" d="M24.66,124.45c0,.7,0,1.41.05,2.11.06,1.06.63.83,1.29.37a5.17,5.17,0,0,1-1.19,2.59c-2-1.62-1.22-3.39-.38-5.16l.15,0Z"/><path class="cls-61" d="M13,73c-1-.08-1.29.42-1.26,1.19s.15,1.47-1,1.68a3.13,3.13,0,0,0,.62-2.54.79.79,0,0,1,.66-1C12.61,72.27,13,72.48,13,73Z"/><path class="cls-92" d="M17.8,85.51c-1,1-1.36,1.91.17,2.79.81-.11.38-1.1,1.15-1.27a2.61,2.61,0,0,1-.9,2.17c-1-.67-2.35.35-3.35-.45-.22-1,.71-2.26-.93-2.93a.33.33,0,0,1,.13-.51C15.34,85.05,16.66,84.15,17.8,85.51Z"/><path class="cls-93" d="M10.12,78.55a1.45,1.45,0,0,1,.36,0c.7.58,1.65,1.1.72,2.09,0,0,0,.06.23.11,1.54.3,2.31,1.06,2,2.45-.63.46-.09,1.18-.49,1.7a2.62,2.62,0,0,1-2,.2A2,2,0,0,0,10,83c-.32-.32-.66-.62-1-1C7.74,80.61,8,79.77,10.12,78.55Z"/><path class="cls-94" d="M11,85.12A3.67,3.67,0,0,1,13,84.76c.73-.12,1,.12.88.74a.5.5,0,0,0,0,.32,6,6,0,0,0-2.19.35C10.79,86.36,10.19,86,11,85.12Z"/><path class="cls-61" d="M13.83,78.51c-2-1-2-1.05-.75-1.82C12.91,77.42,14.09,77.75,13.83,78.51Z"/><path class="cls-28" d="M127,12.45c0,.46.18,1.16-.73.93s-1,.36-1.41.57C124.49,12.34,125.87,12.53,127,12.45Z"/><path class="cls-79" d="M78.21,165.41c-.26.6-.85,1.08-1.43.58-1-.81-1.77-.41-2.88.09.49-2,2.63-2.93,3-4.66.15.12.35.26.53.13s.11-.39-.1-.56c1-1.85,3.16-3.12,3.64-5.25,0-.13.29-.28.47-.32,1.59-.36,1.6-.35.66-1.53-.25-.3-.54-.59-.23-1,.82-.31.8.81,1.48.68,1.86-1.87,1.47-4.44,2.89-6.45.5.74.91,1.48,0,2.27-.24.21-.56.63-.46.79,1.26,2.09-1.56,3.27-1.51,4.79,0,1.3-2.25,2.62-.09,3.91.24.14,0,.6-.29.79s-.65-.06-.83-.31a1,1,0,0,0-.86-.45c-1.21-.05-.71.55-.55,1l-1.15,1.89C79,162.66,78.6,164,78.21,165.41Z"/><path class="cls-46" d="M85.64,137.3a4.57,4.57,0,0,0-1.1-3.42,11,11,0,0,0-.88-.79c-.41-.38-1.44,1-1.48-.36a1.71,1.71,0,0,1,1.06-1.5c.82-.39,1.12.51,1.66.83a7.24,7.24,0,0,1,.81.59c.8-.91-1.16-1.45-.32-2.14.65-.52,1,.53,1.66.54.61-.35-.08-1.22.74-1.51.95,1.1-.15,2.08-.23,3.12C87.25,134.31,87.09,136,85.64,137.3Z"/><path class="cls-16" d="M85.64,137.3c.27-1.64,1.58-3.09,1.25-4.84.33-.42.7-.74,1.34-.41.68,1.79-.86,3.24-1.07,4.92-.14,1.17-.47,2.37-.67,3.55-.23.23-.55.55-.85.3-.52-.42-.26-1-.12-1.5Z"/><path class="cls-51" d="M85.52,123.64c.31.49.83.35,1.32.32,0,.37-.74,1.25.7.77,1.6-.54,1.7.09,1.14,1.15-.32,0-.71-.19-.91.09s.21.37.34.55c-1.75.32-2.14,2.49-4.28,2.28-.2-.89,1.2-1.53.53-2.49,3.32,0-.15-1.79.89-2.39C85.37,123.85,85.43,123.73,85.52,123.64Z"/><path class="cls-64" d="M82.12,142.34a3.43,3.43,0,0,1,.31-1.41c.36-.49.78-1.83,1.7-.23.16.26.64-.08,1-.19.48.35.34.77.1,1.14-1.06,1.58-1.28,3.53-3,4.8-.17-.49-.3-1-1-1.21C80.76,144.1,82.16,143.38,82.12,142.34Z"/><path class="cls-64" d="M82.53,147.8c-.72,2.09-1,4.36-3.17,5.87-.26.18-.56.48-.89.16a.56.56,0,0,1,0-.64,12.91,12.91,0,0,0,3.19-6.14c0-.12.33-.2.51-.3C82.59,147,82.14,147.52,82.53,147.8Z"/><path class="cls-95" d="M82.53,147.8c-.66-.2-.15-.73-.41-1.05a.23.23,0,0,0,.06-.3l2.91-5.94c.14-.4.29-.79.43-1.19.54.28-.76,1.62,1,1.2Z"/><path class="cls-96" d="M78.21,165.41c-.32,0-1,0-.7-.34,1-1.09,1.22-2.45,2-3.56.55-.76.87-.32,1,.31Z"/><path class="cls-97" d="M82.12,142.34c.46,1.14-.66,1.92-.89,2.9-.53.23-1.27.53-.85-.39A17.1,17.1,0,0,1,82.12,142.34Z"/><path class="cls-89" d="M88.23,132.05l-1.34.41a4.27,4.27,0,0,0,.9-2.92c.65-.32.92-.06.85.47C88.56,130.69,88.37,131.37,88.23,132.05Z"/><path class="cls-98" d="M88.11,126.52c-.67.15-1.37.21-1.49-.54-.09-.56.68-.51,1.07-.72.86-.47.9.12,1,.62Z"/><path class="cls-99" d="M81.66,159.93c-1.17-.26-1-1.07-.55-1.53.6-.61.92,0,1.1.5Z"/><path class="cls-100" d="M77.35,161c.57-.21,1-.23.79.47-.13.44-.17,1.11-.92,1s-.29-.66-.3-1Z"/><path class="cls-14" d="M114.5,46.61c-.4-.83-3.24-.28-1.71-2.2A12.16,12.16,0,0,0,118,38.9c.53-1.44,2.48-1.37,3.33-2.46.91.52.38,1.21.63,1.74-1.52,1.42-1,3.52-2.27,5-1.52.6-2.43,1.79-3.56,2.75C115.61,46.35,115.25,46.77,114.5,46.61Z"/><path class="cls-101" d="M97.22,71.18,99,67.54c.4-1,.11-2,.4-2.93.28-2.26,2.29-3.69,3.72-5.35,2-2.28,4-4.48,6.13-6.67a1.25,1.25,0,0,1,1.22.26c-1.65,3.28-4.31,6-6.61,9-1.66,2.13-2.45,4.55-3.61,6.85C99.62,69.9,98.78,71,98,72.2,96.72,72.46,97,71.83,97.22,71.18Z"/><path class="cls-75" d="M90.29,75.16l-2.48,3c-.43,0-1,.29-1.16-.35a3,3,0,0,1,.22-.88c.09-.39,0-.77-.46-.89-.67-.17-.84.3-1,.7a8.65,8.65,0,0,0-.19,2.15A3.92,3.92,0,0,1,83,82.54a1.88,1.88,0,0,0-1.25,2.13c0,.32-.1.68-.53.64s-.76-.39-.58-.8a8.68,8.68,0,0,1,1.45-3c1-1,.9-2,1-3,.34,0,1,.3.68-.35s1-1.82-.75-2.14c-.54-.95-1.85-.54-2.61-1.07a1.42,1.42,0,0,1,.82-.71,8.53,8.53,0,0,0,5.47-.29c-.12-.63-.91-.42-1.1-.85,0-.7-.51-.88-1.24-.77-.47-.65-.47-.65,1.08-1-.49-1.67-2.19-.92-3.36-1.22.32-1,2-.59,2.33-1.56,1.37-.22,1.66.84,2.36,1.42s.51,1.6,1,2.35c.63.59,1.64.74,2.24,1.37C90.3,74.09,89.9,74.69,90.29,75.16Z"/><path class="cls-11" d="M110.46,52.85h-1.13c-.33-1.17.75-2.14.67-3.36-1,.77-2.17,1.4-3.09,2.23-1.22.81-2.18,1.93-3.76,2.31-.76.19-.76.8-1.05,1.27-.58.93-1.3,1.64-2.64.78l0,0a3,3,0,0,1-.75-.66c-.49-.47-1.56-.62-1.29-1.51s1.43-.25,2-.68c2.56,0,4.11-1.72,6-2.75a29.59,29.59,0,0,0,4.33-3.42l1.66-.5,1.28,1.53c.31,1.17-.48,2-1.35,2.7A2,2,0,0,0,110.46,52.85Z"/><path class="cls-37" d="M83,82.54c1.09-1.35,2.1-2.71,1.75-4.48a2.51,2.51,0,0,1,.16-1.43c.23-.51.09-1.3,1.1-1.38a1.68,1.68,0,0,1,1.44.66,1,1,0,0,1-.21,1.59c-.18.15-.23.42-.34.64.67.72-.27,1.12-.46,1.67-.77,1-.55,2.53-2.18,3.12Z"/><path class="cls-6" d="M89.84,73.74l-2.55-1.08a5.7,5.7,0,0,1,2-2.72,1.4,1.4,0,0,1,1.21-.07c1.21.71,2.08.1,3-.48l.29,0c.64.38.39,1,.44,1.47-.86.25-1.07,1.06-1.77,1.45-.68-.34-.81.17-1,.5C91.05,73.29,90.69,73.8,89.84,73.74Z"/><path class="cls-102" d="M99.8,64.56a3.8,3.8,0,0,1-.81,3c0-1.05-.26-1.75-1.73-1.1a.44.44,0,0,1-.54,0,1.35,1.35,0,0,1,.19-1c.29-.53.19-1.19.73-1.64a.82.82,0,0,1,.79.37c.19-.21,0-.43,0-.65a1,1,0,0,0-.76-1.13A4.85,4.85,0,0,1,95.48,61a1.29,1.29,0,0,1,1-.57,2.61,2.61,0,0,0,2.14-.62,1.24,1.24,0,0,1,1.52-.33c.52.31.28.76.13,1.17A14,14,0,0,0,99.8,64.56Z"/><path class="cls-51" d="M97.22,71.18c.27.34-.49,1.27.81,1L93,77.8a.85.85,0,0,1-.5-.81,5.69,5.69,0,0,1,2.28-2.74A8.3,8.3,0,0,0,97.22,71.18Z"/><path class="cls-16" d="M64.87,80.36c2,.22.39,1.54.9,2.22a31.13,31.13,0,0,1,.26,3.2c-.13.27-.28.51-.7.39C63.24,84,63.1,82.31,64.87,80.36Z"/><path class="cls-103" d="M70,79.5l-.63,1.43c-.86-2.55-.81-4.83,1.11-6.87,1.44.25,1.48.4.46,1.89C70.7,77.16,69.61,78.19,70,79.5Z"/><path class="cls-104" d="M83,76c.11-.33-.07-.81.49-.9a.74.74,0,0,1,.89.62c0,1.43,0,2.88,0,4.52-1.31-.53-.75-1.36-1.33-1.75C82.87,77.62,83.49,76.78,83,76Z"/><path class="cls-17" d="M84.21,68.66c.3.36,1.06.73-.08,1-.68.17-1.45,0-2.08.37h-.18l-.16.08-1.06.09c-.5,0-.89-.13-.86-.59s.38-.47.78-.5a5.65,5.65,0,0,0,2.48-.46A.8.8,0,0,1,84.21,68.66Z"/><path class="cls-105" d="M65.33,86.17l.49-.34c.41-.6.81-.51,1.21,0l.46,0c.53.4.45,1.18,1.23,1.42a1.19,1.19,0,0,1-1.09,1.33c-.84.17-.89-.53-1.16-1A12,12,0,0,0,65.33,86.17Z"/><path class="cls-25" d="M73.42,94.69c-.91,0-1.57-.24-1.61-1.11,0-.61.44-1.31,1-1.21.88.17,1.33,1,1.68,1.72C74.69,94.55,73.88,94.62,73.42,94.69Z"/><path class="cls-106" d="M85.26,84.4c-.07.24-.13.48-.2.71-.23.72-.77,1.37-1.63,1s-.12-1.06.06-1.57a6.9,6.9,0,0,1,.8-1.27c.19-.25.46-.54.8-.33C85.71,83.36,85.33,83.91,85.26,84.4Z"/><path class="cls-107" d="M89.84,73.74c.76-.32,1-.94,1.29-1.55.41-.78,1-1.24,1.32.08-.79.93-1.13,2.09-2.16,2.89C88.78,75,89.91,74.23,89.84,73.74Z"/><path class="cls-108" d="M81.2,74.18c0,.51-.34.64-.82.71l-.21,0a3,3,0,0,1-2.77-1.55c-.31-.9.82-.41,1.38-.21s.86.39,1.3.59Z"/><path class="cls-75" d="M85.26,84.4c-.44-.29,1-1.76-1-1.1,0-.12,0-.25-.07-.37A14.15,14.15,0,0,0,86,79.59c.42.1.56.45.83.69C85.57,81.47,86.54,83.24,85.26,84.4Z"/><path class="cls-17" d="M73.54,72.34a1.35,1.35,0,0,0,.34-.11c.82,0,.7.41.56.85A9,9,0,0,1,73,75.89c-1.66-.13-.67-.86-.45-1.42Z"/><path class="cls-109" d="M96.79,66.41l.47,0c-.27.37-.94.51-.67,1.18s-.41.9-1.08,1c-1.9-.78,0-1.5,0-2.25A1,1,0,0,1,96.79,66.41Z"/><path class="cls-110" d="M68.72,87.3c-2.33.73-.81-1-1.23-1.42.56-.22,1.11-1.35,1.69,0A1.89,1.89,0,0,0,68.72,87.3Z"/><path class="cls-111" d="M72.52,89.94a1.39,1.39,0,0,1,1.19.91c.11.51-.44.55-.86.53-.66,0-1.39-.11-1.33-.87C71.55,90.13,72,89.93,72.52,89.94Z"/><path class="cls-112" d="M72.57,74.47c.12.48-.65,1.16.45,1.42-.17.52-.54.48-.87.16a.9.9,0,0,0-1.24-.1c-.15-.63,1.62-1.6-.46-1.89.45-.73.92-.71,1.24,0C71.88,74.54,72.07,74.71,72.57,74.47Z"/><path class="cls-113" d="M80.8,77.69c-.43-.06-.72,0-.79-.12-.47-.63-1.75-.63-1.76-1.59a.42.42,0,0,1,.6-.33A3.08,3.08,0,0,1,80.8,77.69Z"/><path class="cls-114" d="M92.45,77c.46.15.43.5.5.81-.62.71-1,1.69-2.67,1.4Z"/><path class="cls-92" d="M76.06,86.84A1.65,1.65,0,0,1,74.65,88c-.28,0-.65-.1-.55-.38a2.11,2.11,0,0,1,1.43-1.25C75.81,86.28,76,86.53,76.06,86.84Z"/><path class="cls-115" d="M86.78,80.28c-.69.12-.81-.24-.83-.69a2.67,2.67,0,0,0,.91-1.45c.32-.08.66-.37,1,0C87.47,78.89,87.12,79.58,86.78,80.28Z"/><path class="cls-116" d="M84.33,72.27a1.28,1.28,0,0,1,1.82-.15c.46.41-.15.71-.58.92C84.89,73.1,84.73,72.54,84.33,72.27Z"/><path class="cls-117" d="M74.44,73.08l-.56-.85c.12-.54-.23-1.17.45-1.67.72.32.39.93.53,1.38Z"/><path class="cls-79" d="M99.46,56.07c1.6.25,2.47-.23,2.3-1.7,0-.4,0-.84.5-.81,2.12.12,3-1.48,4.45-2.24.85.54,1.06,1.33.31,1.87a3.61,3.61,0,0,0-1.71,2.94c0,.25-.3.4-.59.47-.69-.55-1.18-.17-1.82.17-1.06.56-2.2,1.17-3.51.41C99.77,56.83,99.5,56.44,99.46,56.07Z"/><path class="cls-118" d="M99.39,57.18A4.9,4.9,0,0,0,104.05,55c.89.42.41,1,.59,1.52.12,1.54-1.27,1.87-2.54,2.17a11.92,11.92,0,0,1-4,.09c-.54-.13-1.09-.3-1-.9s.44-.7,1-.65Z"/><path class="cls-79" d="M99.46,53.24a11.9,11.9,0,0,0-1.15.38c-.23.09-.54.24-.59.41-.12.35.23.58.59.6,1.2,0,1.36.64,1.18,1.46-.9-.12-1.95.95-2.7-.44C95.5,53.24,95.57,53.14,99.46,53.24Z"/><path class="cls-79" d="M98.1,57.22c-.3.2-.83.37-.87.61-.08.44.56.35.87.51-.33,1.1-1.22.75-1.91.43a3.4,3.4,0,0,1-1.79-1.44.71.71,0,0,1,.31-.83Z"/><path class="cls-119" d="M94.71,56.5l-.1.65c-1,.33-1.5-.4-2.17-.78-.38-.38-1.1-.69-.76-1.28.24-.42.84-.21,1.29-.13C93.94,55.16,94.17,56,94.71,56.5Z"/><path class="cls-70" d="M106.71,38.83c.31.39,2-.83,1.26.77-.41.08-.81.19-1.21.24s-1.17.11-1.24-.35C105.41,38.84,106.25,39,106.71,38.83Z"/><path class="cls-65" d="M93,55c-2.41.21.06.85-.14,1.25s0,.68-.53.77a3,3,0,0,1-1.47-.78c.4-.65.25-1.71,1.67-1.61C92.66,54.71,92.82,54.83,93,55Z"/><path class="cls-120" d="M121.07,24.23a2.85,2.85,0,0,1-2.76.15C119.11,23.56,119.87,23.63,121.07,24.23Z"/><path class="cls-44" d="M30.4,82.79c.89.53,1.73,1.18,3,.89-.41.63-.74,1.33.3,1.68a1.63,1.63,0,0,0,1.89-.81c1.07-1.41,2.58-1.45,3.43-.16a1.13,1.13,0,0,1,0,1.82c-.65.79-.51,2.23-2.48,2,.06-.86,1-1.52.77-2.39.15-.3.45-.63,0-.87-.09,0-.23.37-.4.54-1.24.24-2.09,1.47-3.68.94-.38-.13-.61.58-.7,1-.34.16-.67.11-1.34-.22a11.69,11.69,0,0,1,2.22,3.35c.22.71-.06,1.65,1.19,1.89.34.17.74.31.57.75-.28,0-.75,0-.81.1-1.18,2.34-2.37.57-2.82-.2-.87-1.47-2.6-2.35-3.29-3.88,1.72-.38,0-1.29.39-1.87,1.93.33,1.92-1.37,2.87-2.06.62-.47.08-1.22-.51-1.73A3.09,3.09,0,0,1,30.4,82.79Z"/><path class="cls-53" d="M49.69,79.13c.32.53,1,.47,1.5.56a.47.47,0,0,1-.2.45.67.67,0,0,1-.38.15c-2.7-.06-3.92,1.43-4.78,3.29-.2,1-1.68,1-2.13,1.89-.52.12-.91.93-1.44.52s.09-1,.49-1.39c.82-.76,1.73-1.44,2.6-2.17.58-.48.53-.83-.33-1-.14-.63-1-.71-1.32-1.16-.78-1.55-2.1-.37-2.94-.21s-1.28,1.59-2.35.6S36,78.86,37.27,77.36a1.11,1.11,0,0,1,1.14-.11,4.37,4.37,0,0,0,1.85,2,4.06,4.06,0,0,1,3.09-.69C45.4,79.28,47.63,78.51,49.69,79.13Z"/><path class="cls-32" d="M44.24,92.49c-.4.24-.82.45-1.2.72a1.28,1.28,0,0,1-1.7,0c-.52-.41-.78-.85-.43-1.44s.6-1,.84-1.47c.43-.91.94-1.94,2.07-2.09,1.29-.17,1.39,1.17,2.09,1.78C46.16,91.19,45.44,92,44.24,92.49Z"/><path class="cls-32" d="M54.57,76.71a3.46,3.46,0,0,1-1.83.28,4.33,4.33,0,0,0-3.49,0c-.59.25-1.15.65-1.76.24s-.12-.91.15-1.3c.39-.57.79-1.25,1.83-.82.72.3,1.26.53,2-.17,1.32-1.17,3-.41,3.47,1.47A.39.39,0,0,1,54.57,76.71Z"/><path class="cls-121" d="M49.69,79.13c-2.06.61-4.14.26-6.2,0-.4,0-.11-.4-.14-.62,2.79-1.35,6-.79,8.94-1.48.93.65.24.93-.38,1.25S50.22,78.44,49.69,79.13Z"/><path class="cls-118" d="M32.94,90.61c-.5-.72-1-1.46-1.51-2.15-.38-.49-1.23-1-.57-1.53s.9.61,1.57.5l2.62,2.18A4.75,4.75,0,0,1,37.17,91l.55.7c.42,1.11-.6,1.58-1.45,1.79s-.69-.71-1-1.14a2.07,2.07,0,0,0-.48-.58C34.24,91.35,33.28,91.35,32.94,90.61Z"/><path class="cls-11" d="M47.55,88.05c1.83-1.74,2.85-3.91,4.37-5.81.45.3,1.24.51.44,1.16a3.61,3.61,0,0,0-1,1.7c-.17.58-.07,1.21-.52,1.74a20.78,20.78,0,0,1-2.23,2.86c-.55.54-1,1.18-2.07,1.07-.45-.22-.59-.52-.27-.91Z"/><path class="cls-32" d="M39,86.21c0-.61,0-1.21,0-1.82.67-.21.22-1.44,1.23-1.17A1.69,1.69,0,0,1,41.41,85c0,.29-.17.61-.06.86.34.8.28,1.52-.8,1.69S39.1,87,39,86.21Z"/><path class="cls-49" d="M41.61,96.56c-.23,1,.67,1.36,1.24,1.93s1.39.77,1,1.41-1.27.2-1.95.22c-.47-.14-1.29.16-1.18-.69,1.09,0,1.44-.25.68-1.14S39.29,96.41,39.9,95c.91.09.7,1,1.36,1.3A.76.76,0,0,1,41.61,96.56Z"/><path class="cls-122" d="M36,102.34c-.2-.31-.55-.28-.89-.31-.5,0-1.29.32-1.41-.31-.14-.78.83-.56,1.33-.75.44.1.94,0,1.3.33a5.92,5.92,0,0,0,2.91.75c1.11,1,.25,1.09-.73,1.12A1.75,1.75,0,0,1,36,102.34Z"/><path class="cls-123" d="M46.28,89.86l.44.76a6.62,6.62,0,0,1-3.18,4.57c-.78,0-1-.29-.75-.91s1.32-1,1.45-1.79L45.91,90A2.54,2.54,0,0,0,46.28,89.86Z"/><path class="cls-32" d="M37.17,91a2.6,2.6,0,0,1-2.12-1.41c.47-1.35,1.75-1,2.49-.55C38.56,89.66,38.25,90.49,37.17,91Z"/><path class="cls-22" d="M35.14,91.29c1.14.36,1,1.19.8,2.14,1.12-.37,1.83-.76,1.78-1.71,1.15.55.58.91-.12,1.41-.88.63-1.63,1.29-2.53.07-.18-.34-.57-.35-.92-.43C33.88,92,33.48,91.14,35.14,91.29Z"/><path class="cls-29" d="M29,85.42c-1-1-.94-2.38-2.42-3.22C29.26,82.35,29.88,83.25,29,85.42Z"/><path class="cls-121" d="M38.54,77.46l-1.27-.1c-.52-1.54,1.13-1.08,1.85-1.35s1.77-.1,1.79.55c.05,1-1.49.23-2,.85A.28.28,0,0,1,38.54,77.46Z"/><path class="cls-32" d="M52.78,71.56a2.94,2.94,0,0,1,1.73.39c.38.47,1.39.55,1.19,1.36-.09.39-.48.47-.84.35C53.72,73.3,52.48,73,52.78,71.56Z"/><path class="cls-124" d="M41.21,96.52c-1.68.22-.72-1.14-1.31-1.57a3.7,3.7,0,0,1-.11-.72c0-.36-.65-.86.2-1a1,1,0,0,1,1.14.65c.16.39.26.81.39,1.22C42.18,95.66,41.75,96.1,41.21,96.52Z"/><path class="cls-125" d="M40.7,99.43l1.18.69-1.19.44c-1.34-.79-2.71-1.55-3-3.31C39.28,97.58,39.24,99.29,40.7,99.43Z"/><path class="cls-32" d="M38.54,77.46a.45.45,0,0,1,.39,0c1.76-.08,1.81.74,1.33,1.83C39,79.16,37.8,79,38.54,77.46Z"/><path class="cls-126" d="M28.54,87.35c.26.28.53.56.76.85s1,.87.42,1.4-1-.21-1.57-.38C27.93,88.54,26.79,87.73,28.54,87.35Z"/><path class="cls-39" d="M36.36,101.3l-1.3-.33-1.27-2.64c1.2.35,2.7.49,1.84,2.16C35.56,100.64,36.11,101,36.36,101.3Z"/><path class="cls-20" d="M43.7,80.3c.72.06,1.65-.38,2.07.42.21.4-.55.45-.75.74a7.23,7.23,0,0,1-1,0c-.5-.07-1.28.28-1.43-.33S43.33,80.61,43.7,80.3Z"/><path class="cls-127" d="M36.81,85.49c-.29-.49-1-1,.07-1.44.55-.21,1.2-.16,1.22.52,0,.51.68,1.46-.85,1.25Z"/><path class="cls-55" d="M41.21,96.52a2.16,2.16,0,0,0,.31-1.46c.68,0,.87-.5,1.27-.78.07.43.1.89.87.69.12.09.16.17.11.25s-.1.12-.14.12l-2,1.22Z"/><path class="cls-128" d="M54.51,71.91a1,1,0,0,1,.86-1c.64-.13.84.22.9.67C55.78,72.05,55.14,71.94,54.51,71.91Z"/><path class="cls-129" d="M54.57,76.71l.41-.3.38-.15c.38,0,.92-.07.76.5a1,1,0,0,1-.8.73C54.62,77.57,54.54,77.16,54.57,76.71Z"/><path class="cls-9" d="M24.59,101.68a6.67,6.67,0,0,1,2.3,2.07,4.31,4.31,0,0,0,2.8,1.81c.58.15,1.75-.18,1.46.8-.21.76-1.19.39-1.86.39a3.47,3.47,0,0,1-.63-.11,25.7,25.7,0,0,0-4.18-3.23,6,6,0,0,1-2.29-1.86l0,0a6,6,0,0,0-.43-.6c-.32-.37-1.51-.49-.8-1.11a1.43,1.43,0,0,1,2,.45C23.42,100.87,23.73,101.51,24.59,101.68Z"/><path class="cls-118" d="M36,106.38c-1.15-.74-2.65.11-3.86-.78,1.43-.09,2.17-2.89,4.19-.58a3,3,0,0,1,2.2-.41c1.55.54,1.31,1.5.82,2.51C38.08,107.39,37.3,106.05,36,106.38Z"/><path class="cls-78" d="M36.77,111.41c-2.08,2-8.47,1.29-9.77-1.15C30.13,111.84,33.44,110.71,36.77,111.41Z"/><path class="cls-130" d="M36.66,109.37a23.21,23.21,0,0,1-7.48,0C31.57,109.06,33.94,107.89,36.66,109.37Z"/><path class="cls-131" d="M25.89,114.47c2.25-.22,4.43-1.11,6.78-.49C30.5,115,28.21,114.86,25.89,114.47Z"/><path class="cls-105" d="M24,111.66a1.13,1.13,0,0,1,.9.71c.1.38-.25.55-.61.58-.52,0-.8-.18-.8-.63S23.5,111.72,24,111.66Z"/><path class="cls-130" d="M39,110.74c.39.14,1.22-.07,1.11.46s-1,.27-1.54.4l-.58-.37Z"/><path class="cls-47" d="M43.63,95.34l0-.37c1.64-1.14,1.87-3,3.06-4.35,2-.92,2.64-2.69,3.86-4.1,1.17.06.83.78.81,1.34,0,.24-.16.46-.13.71.05-.32.12-.61.62-.56.8,2.42-1.72,3.12-3.13,4.4a.69.69,0,0,0-.94.48c-.05.23.43.16.64.29-.53.93-.17,1.69,1.2,2.49-2.34-.06-2.91-1.29-3.74-2.39-.88.75-.22,1.68-.58,2.47C44.66,96,44.26,95.25,43.63,95.34Z"/><path class="cls-33" d="M38.54,104.61a3.76,3.76,0,0,1-2.2.41c.06-.8.18-1.62-1.26-1.56-.61,0-1.52,0-1.45-.65s1-.33,1.56-.43a5.84,5.84,0,0,1,.84,0,4.91,4.91,0,0,0,2.51.83C39,103.65,38.84,104.13,38.54,104.61Z"/><path class="cls-132" d="M51.88,88c-.74.59.26,1.93-1.29,2.21-.38-1.26,1.45-2.48,0-3.7l.79-1.42C51,86.13,52.1,87,51.88,88Z"/><path class="cls-133" d="M48.45,93.18c-.49.22-.75,1.07-1.5.54-.52-.37-.28-.93.25-1.21s.94-1.27,1.55-.1C48.41,92.6,48.47,92.9,48.45,93.18Z"/><path class="cls-134" d="M52.18,100.41c-1,.18-1.69,0-2-.72-.13-.33,0-.63.46-.64C51.59,99,51.93,99.61,52.18,100.41Z"/><path class="cls-32" d="M67,85.84c-.41-.06-.8-.35-1.21,0-.5-1.08-.95-2.16,0-3.25l.81.35a1.45,1.45,0,0,1,1.26.35c.51-.13,1-.53,1.42.19.28.54-.12.82-.52,1A4,4,0,0,0,67,85.84Z"/><path class="cls-16" d="M67.84,83.28c-.5.09-1,.17-1.26-.35.12-1,.24-1.92.37-2.87,0-.45-.51-1,.48-1.16C68.22,80.31,68.93,81.73,67.84,83.28Z"/><path class="cls-135" d="M67.43,78.9c-.54.27-.31.78-.48,1.16a4.63,4.63,0,0,1-.79-3.4C67.36,77.09,67.43,78,67.43,78.9Z"/><path class="cls-18" d="M124,33.77l-1.52,1.81c0-.8.52-1.28.25-1.81a6.64,6.64,0,0,1,.35-2.05c.18-.54.51-.94,1.1-.81a.77.77,0,0,1,.54,1.18C124.48,32.65,124.25,33.21,124,33.77Z"/><path class="cls-136" d="M55.33,68.31l1.23.2-.32.49a4.06,4.06,0,0,1-3.16.72c-.49-.06-.79-.33-.62-.75s.55-.26.88-.13C54.2,69.18,55.12,69.71,55.33,68.31Z"/><path class="cls-13" d="M45.83,83.58c-.14-.12-.75.1-.39-.34s1-.6,1-.93C46.67,79.61,49,80,51.05,80a.54.54,0,0,1,.06.78c-1,.85-2.38,1-3.58,1.51A3.34,3.34,0,0,0,45.83,83.58Z"/><path class="cls-137" d="M51.11,80.77,51.05,80a1.38,1.38,0,0,1,.14-.3c1.27-.6,2.56-1.06,3.31.51.34.72-.12.86-.84.48C52.75,79.51,52,80.48,51.11,80.77Z"/><path class="cls-19" d="M89.9,109.59c-.05.48-.33.74-.68.74a.66.66,0,0,1-.72-.74c0-.43.38-.63.88-.55A.55.55,0,0,1,89.9,109.59Z"/><path class="cls-32" d="M89,58.15c-.09-1.23.8-1.11,1.75-.91.66-.14,1.17.3,1.79.32a2,2,0,0,1,.36.36c.34.76,1.82,1,1.34,2.14-1.82,1.58-3.39,1.12-4.7-1.36C89.21,58.66,89,58.51,89,58.15Z"/><path class="cls-32" d="M92,67.86c1-.32.68-.76.12-1.19s-.41-1,0-1.44a.9.9,0,0,1,1.31.06c.42.39,1.46.69.57,1.43s.65,1.82-.28,2.63h0c-1.47.54-2,0-2-1.24Z"/><path class="cls-32" d="M97.73,63.8c-.22.64.3,1.44-.57,1.94-.64.05-1.16,0-1.25-.71a4.22,4.22,0,0,1-.33-.83c-.09-.57-.25-1.22.45-1.6s1,.37,1.61.51A.45.45,0,0,1,97.73,63.8Z"/><path class="cls-32" d="M87.3,67.87c.09-.62-.26-1.31.4-1.83,2.7-1.27,1.41.84,1.8,1.53a.44.44,0,0,1,0,.5C88,69,87.8,69,87.3,67.87Z"/><path class="cls-57" d="M89,58.15l.54.55c.26.89-.66,1.41-.89,2.14-.15.45-.27.9-1,.55-.51-.25-1.09-.86-.53-1.14C88.23,59.73,87.92,58.5,89,58.15Z"/><path class="cls-32" d="M86,63.05a.25.25,0,0,1,.09-.3c1-.5,1.74-.53,1.69.74a1.74,1.74,0,0,1-.13.51c-.27.46-.42,1.22-1.13,1.12s-.37-.88-.46-1.37C86,63.52,86,63.28,86,63.05Z"/><path class="cls-13" d="M97.73,63.8l-.09-.69,0-.73c.4-.05.88-1,1.06-.32.32,1.13.81,2.42-.19,3.63C97.81,65.12,98.4,64.27,97.73,63.8Z"/><path class="cls-138" d="M94.28,60.06c-.18-1-1.82-1-1.79-2.09a3.67,3.67,0,0,1,3.82,2.63l-.83.35Z"/><path class="cls-90" d="M89.46,67.88c0-.1,0-.21,0-.31.85,0,1.92-1.25,2.53.29h0C90.73,69.28,90.27,69.28,89.46,67.88Z"/><path class="cls-70" d="M92.49,57.62c-.83.72-1.08-.43-1.7-.38-.15-.35-.39-.7,0-1a2,2,0,0,1,1.68.66A.51.51,0,0,1,92.49,57.62Z"/><path class="cls-124" d="M95.91,65l1.25.71-.37.67-1.24,0C95,65.78,94.17,65.16,95.91,65Z"/><path class="cls-32" d="M92.06,63.48c.15-.55-.41-1.51,1-1.34.37,0,.66.34.56.68-.2.69-.91.65-1.56.66Z"/><path class="cls-129" d="M89.85,63.14c.53.67.12,1-.62,1.11s-1-.11-1-.74A2.06,2.06,0,0,1,89.85,63.14Z"/><path class="cls-33" d="M22.19,101.55c-.23.5.33,1.31-.75,1.45-.43.06-.56-.3-.57-.61,0-.84.47-1,1.35-.81Z"/><path class="cls-115" d="M32.06,103.08c-1-.3-1.81-.32-2-1.11,0-.08.26-.3.42-.31C31.46,101.58,31.72,102.15,32.06,103.08Z"/><path class="cls-139" d="M68.81,68.93c0-.12-.07-.24-.11-.36a5,5,0,0,0,1.71-2.81c.07-.44.2-.87.88-.78.46,0,.44.39.43.69C70.76,66.76,70.81,68.5,68.81,68.93Z"/><path class="cls-39" d="M89.46,67.88c.87,1.31,1.72.47,2.58,0-.05,1,.48,1.58,1.74,1.49-1,2.07-2.7,1.2-4.31.74-1-.33-2-.83-3,0-1-.2-.87-1.65-2.25-1.38H83.05l-1-.39c.65-.71,1.79-.2,2.66-.84A16.5,16.5,0,0,1,81.28,65c2.86-.76,4.25-.09,4.67,2.36.16.93.55,1,1.35.56C88,69.05,88.73,68,89.46,67.88Z"/><path class="cls-32" d="M81.28,65a1.76,1.76,0,0,1,1.76.77,1.89,1.89,0,0,0,1,.87c.74.16,1.7,0,1.47,1s-1.23.55-1.93.63a12.32,12.32,0,0,1-1.49,0c-.69-.52-.09-1.42-.77-1.94C81.32,65.86,81.3,65.41,81.28,65Z"/><path class="cls-69" d="M13.05,83.26A.78.78,0,0,0,12.74,82c-1.66-.75-1.8-2.16-2.26-3.44V77.41a1.4,1.4,0,0,1,.41,0c0,.24,0,.62.13.69,1.34.64,1.89,1.91,3,2.7a3.67,3.67,0,0,0,1.18,1.4,1,1,0,0,0,0,1.46A1.78,1.78,0,0,1,13.05,83.26Z"/><path class="cls-140" d="M15.24,82.22c-1.55.23-1.75-.35-1.18-1.4l.73-.14c.64.21,1.34-.35,2,.08,0,.77-.85.91-1.2,1.39h-.17Z"/><path class="cls-23" d="M13.05,83.26l2.16.42a3.59,3.59,0,0,0,2.54.24c1,.2.9.66.41,1.22l-.36.37c-1.29-.83-2.59.33-3.88,0a1.32,1.32,0,0,0-.88-.74C12.56,84.26,12.06,83.76,13.05,83.26Z"/><path class="cls-93" d="M19.07,82.89l1.27-.62c.05.67.11,1.34.15,2,.1,1.4-.64,1.56-1.9.92A2.28,2.28,0,0,1,19.07,82.89Z"/><path class="cls-141" d="M19.07,82.89c.22.83-.48,1.51-.48,2.3l-.43,0c.06-.45.38-1-.41-1.22.76-.59.37-1.49.84-2.16C18.76,82.13,18.6,82.61,19.07,82.89Z"/><path class="cls-32" d="M80.32,160a.72.72,0,0,1-.73.55c-.51,0-.48-.4-.35-.68a.66.66,0,0,1,.79-.46C80.34,159.47,80.4,159.73,80.32,160Z"/><path class="cls-35" d="M92.49,57.62l0-.76.32-.65,1.78.94c1.22.28,1.61,2.31,3.49,1.19a6.45,6.45,0,0,1,2.32,0c1.83.07,3.37-.35,4.22-1.88a.92.92,0,0,0,.36-1.14c-.41-1-.34-1.62,1.1-2s.86-1.29.61-2.09a20.46,20.46,0,0,1,4.38-3c-.78,1.71-.85,3.22-1.76,4.51-1.55,2.14-3.58,4-5.29,6-1.54,1.79-3.71,3.38-4.24,5.74a4.81,4.81,0,0,1,.49-4.93c-1.7-.21-2.05,2.77-4,1A5.9,5.9,0,0,0,92.49,58,2,2,0,0,1,92.49,57.62Z"/><path class="cls-32" d="M86.46,70c1-1.45,1.49-1.45,3,0-1,.66-.77,2.13-2.18,2.57C86.45,71.92,87.35,70.78,86.46,70Z"/><path class="cls-120" d="M35.14,91.29c-1.34,0-.42,1.1-1,1.48-1.69-.2-1.12-1.31-1.21-2.16C33.54,91.16,34.5,90.85,35.14,91.29Z"/><path d="M110,105.74l3.11-30.36,4.21-.47,9.73,28.94-4,.44-2-6-6.82.76-.6,6.28Zm4.59-10.29,5.48-.61-4.3-13.31Z"/><path d="M139.55,96.92a8.2,8.2,0,0,1-1.3,4.71,4.64,4.64,0,0,1-3.47,1.94,5,5,0,0,1-5-2.29q-1.78-2.61-2.37-8.44-.56-5.61.67-8.48a4.94,4.94,0,0,1,4.32-3.17,5,5,0,0,1,3.93,1.08,6.47,6.47,0,0,1,2,4l-3.25,1.23a6.54,6.54,0,0,0-1-2.45,1.55,1.55,0,0,0-1.45-.6c-.76.08-1.24.7-1.46,1.88a24.2,24.2,0,0,0,.09,5.86,25.16,25.16,0,0,0,1.19,6.26c.49,1.22,1.16,1.79,2,1.7a1.39,1.39,0,0,0,1.2-1,9.32,9.32,0,0,0,.33-3.12Z"/><path d="M154.2,101.27l-3.72.34-.32-3.54a7.31,7.31,0,0,1-1.39,3,3,3,0,0,1-2.09,1.16q-2.3.21-3.78-2.62a22.68,22.68,0,0,1-2-8.34,20.38,20.38,0,0,1,.48-8.06q1-2.82,3.3-3a3.27,3.27,0,0,1,2.32.68,6.33,6.33,0,0,1,1.81,2.43l-.28-3.09,3.72-.34Zm-4.57-10.81a19.88,19.88,0,0,0-1.1-5.53c-.5-1.22-1.14-1.79-1.92-1.72s-1.43.74-1.72,2a19.64,19.64,0,0,0-.09,5.72A24.8,24.8,0,0,0,145.88,97c.45,1.14,1.1,1.68,1.93,1.6s1.48-.75,1.77-2A22.31,22.31,0,0,0,149.63,90.46Z"/><path d="M170.54,99.94l-3.42.27-.32-4a8.37,8.37,0,0,1-1.48,3.39,3.32,3.32,0,0,1-2.34,1.26q-2.34.18-3.75-2.52a22.49,22.49,0,0,1-1.85-8.26,21.2,21.2,0,0,1,.55-8.24q1-2.86,3.32-3a3,3,0,0,1,2.23.79,7.9,7.9,0,0,1,1.86,2.69l-.94-11.77,3.76-.3Zm-4.41-10.15a21.66,21.66,0,0,0-1.08-6c-.5-1.2-1.19-1.77-2.08-1.7s-1.38.71-1.63,1.91a24.09,24.09,0,0,0,0,6.18,19.72,19.72,0,0,0,1,5.6c.49,1.19,1.14,1.75,2,1.68s1.38-.72,1.68-2A19.91,19.91,0,0,0,166.13,89.79Z"/><path d="M186.87,91.85a9.34,9.34,0,0,1-1.47,5.58,5.38,5.38,0,0,1-4.22,2.22,5.24,5.24,0,0,1-5.07-2.53q-1.8-2.75-2.2-8.6c-.25-3.58.13-6.32,1.14-8.24a5.6,5.6,0,0,1,4.87-3.1,5.31,5.31,0,0,1,4.79,1.93q1.72,2.15,2,6.56l.18,2.49-9.08.63.06.82a15.54,15.54,0,0,0,1,5.21A2.12,2.12,0,0,0,181,96.24a2,2,0,0,0,1.68-1.12,6.45,6.45,0,0,0,.54-3Zm-9.44-16.62,2.87-5.36,3.39-.23-4.34,5.46Zm.24,10.59,5.33-.37,0-.23a8.55,8.55,0,0,0-.92-3.77,2.16,2.16,0,0,0-2.11-1.1,2.14,2.14,0,0,0-1.88,1.49A9.19,9.19,0,0,0,177.67,85.82Z"/><path d="M191.55,98.45l-1.24-21.51,3.59-.21.16,2.72A7.22,7.22,0,0,1,195.84,77a3.71,3.71,0,0,1,2.21-.93,3.92,3.92,0,0,1,2.55.6A4.89,4.89,0,0,1,202.21,79a7,7,0,0,1,1.84-2.5,4,4,0,0,1,2.37-.91,3.31,3.31,0,0,1,3.09,1.3,9.18,9.18,0,0,1,1.21,4.71l.91,15.71-3.75.21L207,82.69a5.84,5.84,0,0,0-.65-2.72,1.69,1.69,0,0,0-1.62-.76,2,2,0,0,0-1.66,1.05,4.65,4.65,0,0,0-.47,2.65l.86,14.85-3.75.21-.86-14.81a5.76,5.76,0,0,0-.65-2.72,1.65,1.65,0,0,0-1.61-.75,2,2,0,0,0-1.69,1,4.65,4.65,0,0,0-.49,2.64l.86,14.85Z"/><path d="M214.81,70.33a2.37,2.37,0,0,1,.62-1.77,2.29,2.29,0,0,1,1.68-.8,2.38,2.38,0,0,1,1.76.63,2.43,2.43,0,0,1,.17,3.46,2.4,2.4,0,0,1-1.7.78,2.33,2.33,0,0,1-1.73-.64A2.29,2.29,0,0,1,214.81,70.33Zm1.81,26.73-1-21.52,3.79-.18,1,21.52Z"/><path d="M237.15,89.26a9.25,9.25,0,0,1-1.62,5.53,5.36,5.36,0,0,1-4.28,2.09,5.25,5.25,0,0,1-5-2.66c-1.14-1.87-1.8-4.76-2-8.67q-.21-5.39,1.39-8.2a5.59,5.59,0,0,1,4.95-3,5.3,5.3,0,0,1,4.73,2.07c1.11,1.46,1.73,3.67,1.85,6.61l.1,2.5-9.09.37,0,.82a15.6,15.6,0,0,0,.83,5.23,2.11,2.11,0,0,0,2.09,1.48,2,2,0,0,0,1.71-1.07,6.34,6.34,0,0,0,.63-3Zm-9-6.29,5.33-.22v-.23a8.5,8.5,0,0,0-.81-3.8,2.2,2.2,0,0,0-4,.27A9.2,9.2,0,0,0,228.14,83Z"/><path d="M261.49,95.41l-3.43.1-.11-4a8.19,8.19,0,0,1-1.66,3.3,3.3,3.3,0,0,1-2.4,1.14c-1.56,0-2.76-.86-3.61-2.72a22.58,22.58,0,0,1-1.42-8.34,21.18,21.18,0,0,1,1-8.2q1.13-2.81,3.48-2.87a3,3,0,0,1,2.18.9,7.94,7.94,0,0,1,1.71,2.79l-.32-11.8,3.77-.1Zm-3.87-10.36a21.55,21.55,0,0,0-.77-6c-.43-1.23-1.09-1.83-2-1.81s-1.42.63-1.73,1.82a24.47,24.47,0,0,0-.36,6.17,19.78,19.78,0,0,0,.75,5.65c.42,1.2,1.05,1.8,1.87,1.78s1.42-.65,1.78-1.88A19.91,19.91,0,0,0,257.62,85.05Z"/><path d="M278.21,88.18a9.46,9.46,0,0,1-1.75,5.5,5.41,5.41,0,0,1-4.33,2,5.24,5.24,0,0,1-4.94-2.78q-1.65-2.83-1.76-8.71c-.07-3.58.46-6.3,1.57-8.16a5.59,5.59,0,0,1,5-2.85,5.3,5.3,0,0,1,4.69,2.18c1.08,1.48,1.64,3.7,1.7,6.65l0,2.49-9.09.17v.82a15.86,15.86,0,0,0,.72,5.25,2.11,2.11,0,0,0,2.06,1.53,2,2,0,0,0,1.74-1,6.45,6.45,0,0,0,.68-3Zm-8.88-6.49,5.34-.1v-.23a8.69,8.69,0,0,0-.73-3.82,2.16,2.16,0,0,0-2.06-1.2,2.13,2.13,0,0,0-1.94,1.39A9,9,0,0,0,269.33,81.69Z"/><path d="M291.07,94.93l-.16-29.84,4.06,0L295,78.55,301.61,65l4.3,0L298.8,78.8l7.73,16-4.32,0-7.16-15.35.08,15.39Z"/><path d="M319.33,94.9h-3.74V91.34a7.41,7.41,0,0,1-1.66,2.81,3,3,0,0,1-2.18.95q-2.31,0-3.53-3a23,23,0,0,1-1.2-8.49,20.42,20.42,0,0,1,1.25-8Q309.5,73,311.84,73a3.25,3.25,0,0,1,2.25.89,6.42,6.42,0,0,1,1.57,2.59v-3.1h3.74Zm-3.54-11.18a19.93,19.93,0,0,0-.57-5.62c-.39-1.25-1-1.88-1.75-1.88s-1.5.59-1.9,1.79a19.34,19.34,0,0,0-.63,5.69,25,25,0,0,0,.5,6.16c.35,1.18.94,1.78,1.78,1.78s1.54-.61,1.94-1.84A21.87,21.87,0,0,0,315.79,83.72Z"/><path d="M324.39,95l.23-21.55,3.49,0,0,4a6.67,6.67,0,0,1,1.78-3.11,5.23,5.23,0,0,1,3-1.24l0,4.14h-.35a3.84,3.84,0,0,0-3.26,1.16q-.9,1.19-.93,4.65l-.13,12Z"/><path d="M346.81,95.27l-3.74-.06.06-3.55a7.34,7.34,0,0,1-1.69,2.78,3.09,3.09,0,0,1-2.2.93q-2.31,0-3.49-3a23.14,23.14,0,0,1-1.08-8.51,20.53,20.53,0,0,1,1.36-8q1.26-2.7,3.6-2.65a3.2,3.2,0,0,1,2.23.92,6.37,6.37,0,0,1,1.54,2.61l.05-3.1,3.74.06ZM343.42,84a19.87,19.87,0,0,0-.49-5.63c-.37-1.25-.94-1.89-1.72-1.9s-1.51.57-1.93,1.76a19.81,19.81,0,0,0-.7,5.68,24.63,24.63,0,0,0,.42,6.17c.32,1.19.91,1.79,1.75,1.8s1.54-.58,2-1.81A21.47,21.47,0,0,0,343.42,84Z"/><path d="M358.19,95.67l-.93.06h-.86a3.86,3.86,0,0,1-3.19-1.22c-.57-.77-.83-2.26-.77-4.47l.32-13-2,0,.08-3.22,2,.05.14-5.4,3.73.1L356.58,74l2.15.05-.08,3.23-2.15-.06-.3,12.07a4.14,4.14,0,0,0,.35,2.23,1.79,1.79,0,0,0,1.5.6h.23Z"/><path d="M373.75,89.13a9.45,9.45,0,0,1-2,5.4,5.38,5.38,0,0,1-4.42,1.77,5.25,5.25,0,0,1-4.79-3q-1.51-2.93-1.32-8.79.17-5.37,2-8.07a5.62,5.62,0,0,1,5.16-2.6,5.3,5.3,0,0,1,4.57,2.41q1.5,2.31,1.36,6.73l-.08,2.5-9.09-.29,0,.82a15.74,15.74,0,0,0,.45,5.28,2.12,2.12,0,0,0,2,1.62,2,2,0,0,0,1.79-.94,6.39,6.39,0,0,0,.84-2.94Zm-8.54-6.94,5.34.18v-.23a8.48,8.48,0,0,0-.53-3.85A2.17,2.17,0,0,0,368,77a2.13,2.13,0,0,0-2,1.29A9.18,9.18,0,0,0,365.21,82.19ZM366,71.63l3.41-5,3.39.11-4.87,5Z"/><path d="M381.51,100,394,66.43l2.68.12-12.53,33.51Z"/><path d="M405.5,97.44l1.7-29.79,4.3.25A8.73,8.73,0,0,1,418.91,72q2.37,3.83,2,11-.42,7.35-3.36,11.16a8.84,8.84,0,0,1-8,3.52Zm4.22-3.39a5.31,5.31,0,0,0,4.9-2.86c1.15-1.94,1.85-4.89,2.07-8.86q.3-5.23-1.12-8a5.23,5.23,0,0,0-4.55-3Z"/><path d="M436,92.43a9.34,9.34,0,0,1-2.22,5.32,5.4,5.4,0,0,1-4.48,1.62,5.25,5.25,0,0,1-4.68-3.19c-.93-2-1.27-4.93-1-8.83.24-3.58,1-6.24,2.26-8a5.61,5.61,0,0,1,5.25-2.41,5.32,5.32,0,0,1,4.48,2.57c.94,1.57,1.32,3.83,1.12,6.77l-.17,2.49-9.07-.61-.06.82a15.7,15.7,0,0,0,.26,5.29,2.13,2.13,0,0,0,1.93,1.7,2,2,0,0,0,1.81-.88,6.25,6.25,0,0,0,.94-2.91Zm-8.29-7.23,5.33.36,0-.23a8.62,8.62,0,0,0-.4-3.87,2.17,2.17,0,0,0-2-1.37,2.14,2.14,0,0,0-2.06,1.22A9.12,9.12,0,0,0,427.71,85.2Zm1.21-10.53,3.58-4.92,3.39.23-5.05,4.82Z"/><path d="M440.43,99.68l1.37-18.27-2.15-.16L439.9,78l2.14.16.28-3.7a5.92,5.92,0,0,1,1.21-3.63,3.72,3.72,0,0,1,3.13-.9l1.9.14-.27,3.67-.86-.06a1.13,1.13,0,0,0-1,.32,2.18,2.18,0,0,0-.4,1.29l-.24,3.16,2.13.16-.24,3.21-2.13-.16L444.17,100Z"/><path d="M461.92,94.48a9.38,9.38,0,0,1-2.3,5.29,5.41,5.41,0,0,1-4.51,1.55,5.23,5.23,0,0,1-4.62-3.27q-1.37-3-.87-8.84c.3-3.58,1.09-6.23,2.38-8a5.62,5.62,0,0,1,5.29-2.32,5.26,5.26,0,0,1,4.43,2.64q1.38,2.39,1,6.79l-.21,2.49-9.06-.76-.07.82a15.43,15.43,0,0,0,.18,5.29,2.1,2.1,0,0,0,1.89,1.73,2,2,0,0,0,1.83-.85,6.24,6.24,0,0,0,1-2.89Zm-8.17-7.36,5.32.44,0-.22a8.56,8.56,0,0,0-.34-3.88,2.2,2.2,0,0,0-4-.22A9.32,9.32,0,0,0,453.75,87.12Z"/><path d="M465.55,101.73l2-21.45,3.59.34-.25,2.71a7.25,7.25,0,0,1,2.19-2.2,4,4,0,0,1,2.45-.54,3.34,3.34,0,0,1,2.88,1.77,9.09,9.09,0,0,1,.5,4.83l-1.47,15.66-3.74-.35,1.39-14.77a5.8,5.8,0,0,0-.23-2.79,1.67,1.67,0,0,0-1.48-1,2,2,0,0,0-1.83.79,4.63,4.63,0,0,0-.88,2.54l-1.39,14.8Z"/><path d="M480.71,99.32,484,97.71a4.86,4.86,0,0,0,1,2.22,2.47,2.47,0,0,0,1.64.91,2,2,0,0,0,1.72-.55,2.86,2.86,0,0,0,.81-1.89q.17-1.52-2.43-4.06l-.61-.6A15.67,15.67,0,0,1,483,89.9a5.79,5.79,0,0,1-.51-3.1,5.19,5.19,0,0,1,2-3.83,6.19,6.19,0,0,1,4.5-1,5.2,5.2,0,0,1,3.19,1.42,5.42,5.42,0,0,1,1.58,3.2L490.73,88a4.22,4.22,0,0,0-.77-2.11,2.17,2.17,0,0,0-1.57-.83,2.14,2.14,0,0,0-1.65.43A2.11,2.11,0,0,0,486,87q-.13,1.35,2.56,3.85c.38.35.67.62.87.82a12.7,12.7,0,0,1,2.85,3.62,6.58,6.58,0,0,1,.65,3.6,5.94,5.94,0,0,1-6.57,5.34,6,6,0,0,1-3.45-1.41A7.89,7.89,0,0,1,480.71,99.32Z"/><path d="M507.42,99.15a9.33,9.33,0,0,1-2.46,5.22,5.43,5.43,0,0,1-4.55,1.41,5.27,5.27,0,0,1-4.53-3.41q-1.26-3-.6-8.87.62-5.34,2.63-7.88a5.58,5.58,0,0,1,5.35-2.16,5.29,5.29,0,0,1,4.36,2.77c.87,1.61,1.14,3.89.8,6.82l-.28,2.48-9-1-.09.81a15.79,15.79,0,0,0,0,5.3,2.11,2.11,0,0,0,1.84,1.78,2,2,0,0,0,1.86-.79,6.36,6.36,0,0,0,1.07-2.86Zm-7.94-7.6,5.3.6,0-.23a8.49,8.49,0,0,0-.22-3.88,2.15,2.15,0,0,0-1.88-1.46,2.13,2.13,0,0,0-2.11,1.12A9.19,9.19,0,0,0,499.48,91.55Z"/><path d="M197,150l-5.48-29.84h4.31l2,14.76c.17,1.19.33,2.62.47,4.29s.28,3.49.39,5.47H199q.25-3.8.53-6.57c.18-1.85.34-3.26.48-4.24L202,120.11h4.1L200.73,150Z"/><path d="M207.86,123.16a2.39,2.39,0,0,1,.71-1.73,2.28,2.28,0,0,1,1.71-.73,2.37,2.37,0,0,1,1.74.72,2.34,2.34,0,0,1,.72,1.74,2.31,2.31,0,0,1-.72,1.72,2.39,2.39,0,0,1-1.74.7,2.48,2.48,0,0,1-2.42-2.42ZM208.4,150V128.4h3.79V150Z"/><path d="M217.78,150V120.11h3.79V150Z"/><path d="M227.16,150V120.11H231V150Z"/><path d="M248,143.05a9.45,9.45,0,0,1-1.85,5.46,5.4,5.4,0,0,1-4.37,1.92,5.24,5.24,0,0,1-4.88-2.87c-1.07-1.92-1.6-4.83-1.6-8.75q0-5.37,1.71-8.13a5.62,5.62,0,0,1,5.08-2.75,5.29,5.29,0,0,1,4.64,2.26q1.57,2.25,1.57,6.68v2.5h-9.09v.82a15.55,15.55,0,0,0,.62,5.26,2.11,2.11,0,0,0,2,1.56,2,2,0,0,0,1.75-1,6.23,6.23,0,0,0,.74-3Zm-8.76-6.66h5.34v-.23a8.68,8.68,0,0,0-.65-3.83,2.18,2.18,0,0,0-2-1.24,2.12,2.12,0,0,0-2,1.36A9.05,9.05,0,0,0,239.28,136.39Z"/><path d="M252.33,150V128.4h3.6v2.73a7.21,7.21,0,0,1,1.92-2.36,3.6,3.6,0,0,1,2.25-.8,3.9,3.9,0,0,1,2.52.74,5,5,0,0,1,1.47,2.42,7.07,7.07,0,0,1,2-2.39,4.05,4.05,0,0,1,2.42-.77,3.31,3.31,0,0,1,3,1.47,9.21,9.21,0,0,1,.94,4.78V150h-3.76V135.12a5.92,5.92,0,0,0-.48-2.76,1.69,1.69,0,0,0-1.57-.85,2,2,0,0,0-1.72,1,4.68,4.68,0,0,0-.63,2.62V150h-3.76V135.12a5.92,5.92,0,0,0-.48-2.76,1.7,1.7,0,0,0-1.58-.85,2,2,0,0,0-1.74,1,4.58,4.58,0,0,0-.64,2.61V150Z"/><path d="M276.31,139.18q0-5.67,1.62-8.46a5.74,5.74,0,0,1,9.84,0q1.62,2.78,1.62,8.48t-1.62,8.43a5.75,5.75,0,0,1-9.85,0Q276.32,144.83,276.31,139.18Zm6.52,7.8c.94,0,1.62-.61,2-1.83a21.05,21.05,0,0,0,.62-6.09,21,21,0,0,0-.63-6.11c-.42-1.24-1.09-1.86-2-1.86s-1.61.61-2,1.82a22,22,0,0,0-.6,6.15,21.15,21.15,0,0,0,.61,6.08C281.24,146.36,281.9,147,282.83,147Z"/><path d="M293.26,141.79V128.4H297v13.81a8.55,8.55,0,0,0,.54,3.55,1.8,1.8,0,0,0,1.73,1.1,1.83,1.83,0,0,0,1.75-1.11,8.46,8.46,0,0,0,.55-3.54V128.4h3.76v13.39q0,4.41-1.49,6.52a6,6,0,0,1-9.11,0C293.75,146.91,293.26,144.74,293.26,141.79Z"/><path d="M308.25,146.12l3.12-2a5.08,5.08,0,0,0,1.23,2.1,2.47,2.47,0,0,0,1.73.74,2.07,2.07,0,0,0,1.66-.72,3,3,0,0,0,.61-2q0-1.53-2.84-3.8l-.67-.53a16,16,0,0,1-3.52-3.49,5.72,5.72,0,0,1-.83-3,5.21,5.21,0,0,1,1.62-4,6.22,6.22,0,0,1,4.37-1.48,5.31,5.31,0,0,1,3.33,1.07,5.46,5.46,0,0,1,1.89,3L317,133.78a4.3,4.3,0,0,0-1-2,2.22,2.22,0,0,0-1.65-.67,2.19,2.19,0,0,0-1.6.6,2.16,2.16,0,0,0-.61,1.6q0,1.35,2.94,3.56c.42.31.74.55.95.73a12.86,12.86,0,0,1,3.22,3.3,6.69,6.69,0,0,1,1,3.52,6,6,0,0,1-6,6,6.08,6.08,0,0,1-3.58-1A7.87,7.87,0,0,1,308.25,146.12Z"/><path d="M329.52,150.06l-.93.09-.86,0a3.85,3.85,0,0,1-3.22-1.14c-.59-.75-.88-2.24-.88-4.45v-13h-2V128.4h2V123h3.74v5.39h2.15v3.23h-2.15V143.7a4.16,4.16,0,0,0,.41,2.22,1.78,1.78,0,0,0,1.52.56h.22Z"/><path d="M344.66,150h-3.73V146.4a7.58,7.58,0,0,1-1.65,2.82,3.08,3.08,0,0,1-2.19,1q-2.29,0-3.53-3a22.87,22.87,0,0,1-1.23-8.49,20.34,20.34,0,0,1,1.21-8c.8-1.81,2-2.72,3.55-2.72a3.25,3.25,0,0,1,2.25.89,6.33,6.33,0,0,1,1.59,2.58V128.4h3.73Zm-3.58-11.17a20.16,20.16,0,0,0-.59-5.62c-.4-1.25-1-1.88-1.76-1.88s-1.49.6-1.89,1.81a19.52,19.52,0,0,0-.6,5.69,24.64,24.64,0,0,0,.52,6.15c.35,1.19.94,1.78,1.78,1.78s1.54-.62,1.94-1.85A21.76,21.76,0,0,0,341.08,138.78Z"/><path d="M349.39,141.79V128.4h3.74v13.81a8.55,8.55,0,0,0,.54,3.55,1.8,1.8,0,0,0,1.73,1.1,1.83,1.83,0,0,0,1.75-1.11,8.46,8.46,0,0,0,.55-3.54V128.4h3.76v13.39q0,4.41-1.49,6.52a6,6,0,0,1-9.11,0C349.88,146.91,349.39,144.74,349.39,141.79Z"/><path d="M364.38,146.12l3.12-2a5.08,5.08,0,0,0,1.23,2.1,2.47,2.47,0,0,0,1.73.74,2.07,2.07,0,0,0,1.66-.72,3,3,0,0,0,.61-2q0-1.53-2.84-3.8l-.67-.53a16,16,0,0,1-3.52-3.49,5.72,5.72,0,0,1-.83-3,5.21,5.21,0,0,1,1.62-4,6.22,6.22,0,0,1,4.37-1.48,5.31,5.31,0,0,1,3.33,1.07,5.46,5.46,0,0,1,1.89,3l-2.91,1.71a4.3,4.3,0,0,0-1-2,2.4,2.4,0,0,0-3.25-.07,2.16,2.16,0,0,0-.61,1.6q0,1.35,2.94,3.56c.42.31.74.55.95.73a12.7,12.7,0,0,1,3.22,3.3,6.6,6.6,0,0,1,1,3.52,6,6,0,0,1-6,6,6.08,6.08,0,0,1-3.58-1A7.87,7.87,0,0,1,364.38,146.12Z"/><path d="M377.3,146.12l3.13-2a4.88,4.88,0,0,0,1.23,2.1,2.45,2.45,0,0,0,1.73.74,2,2,0,0,0,1.65-.72,2.93,2.93,0,0,0,.61-2c0-1-.94-2.29-2.84-3.8l-.66-.53a15.77,15.77,0,0,1-3.52-3.49,5.72,5.72,0,0,1-.83-3,5.21,5.21,0,0,1,1.62-4,6.22,6.22,0,0,1,4.37-1.48,5.28,5.28,0,0,1,3.32,1.07,5.48,5.48,0,0,1,1.9,3l-2.92,1.71a4.2,4.2,0,0,0-1-2,2.25,2.25,0,0,0-1.65-.67,2.19,2.19,0,0,0-1.6.6,2.13,2.13,0,0,0-.61,1.6q0,1.35,2.94,3.56c.42.31.73.55.95.73a12.64,12.64,0,0,1,3.21,3.3,6.6,6.6,0,0,1,1,3.52,5.94,5.94,0,0,1-6,6,6.08,6.08,0,0,1-3.58-1A7.88,7.88,0,0,1,377.3,146.12Z"/><path d="M391.16,139.18q0-5.67,1.63-8.46a5.73,5.73,0,0,1,9.83,0q1.62,2.78,1.62,8.48t-1.62,8.43a5.74,5.74,0,0,1-9.84,0Q391.16,144.83,391.16,139.18Zm6.53,7.8c.94,0,1.61-.61,2-1.83a21.05,21.05,0,0,0,.62-6.09,21,21,0,0,0-.63-6.11c-.42-1.24-1.1-1.86-2-1.86s-1.62.61-2,1.82a22,22,0,0,0-.6,6.15,21.52,21.52,0,0,0,.61,6.08C396.09,146.36,396.76,147,397.69,147Z"/><path d="M408.11,141.79V128.4h3.74v13.81a8.36,8.36,0,0,0,.55,3.55,1.79,1.79,0,0,0,1.72,1.1,1.82,1.82,0,0,0,1.75-1.11,8.43,8.43,0,0,0,.56-3.54V128.4h3.75v13.39q0,4.41-1.48,6.52a5.23,5.23,0,0,1-4.58,2.12,5.16,5.16,0,0,1-4.54-2.11C408.6,146.91,408.11,144.74,408.11,141.79Z"/></g></g></svg>