<svg xmlns="http://www.w3.org/2000/svg" viewBox="0 0 1988.2 2158.16"><defs><style>.cls-1{fill:#12294d;}.cls-2{fill:#3c5070;}.cls-3{fill:#677895;}.cls-4{fill:#6c7b97;}.cls-5{fill:#94a4ba;}.cls-6{fill:#405372;}.cls-7{fill:#6b7d99;}.cls-8{fill:#97a6be;}.cls-9{fill:#627c96;}.cls-10{fill:#9aa6be;}.cls-11{fill:#9aa9bd;}.cls-12{fill:#8b97a4;}.cls-13{fill:#f18901;}.cls-14{fill:#d2831c;}.cls-15{fill:#f4d69e;}.cls-16{fill:#e7a345;}.cls-17{fill:#848990;}.cls-18{fill:#ea921d;}.cls-19{fill:#e99015;}.cls-20{fill:#e98d16;}.cls-21{fill:#e4911d;}.cls-22{fill:#dfad69;}.cls-23{fill:#e39a32;}.cls-24{fill:#e69628;}.cls-25{fill:#e5992b;}.cls-26{fill:#eb901e;}.cls-27{fill:#ea911f;}.cls-28{fill:#e89122;}.cls-29{fill:#e79529;}.cls-30{fill:#e69b2f;}.cls-31{fill:#e4a146;}.cls-32{fill:#e3a039;}.cls-33{fill:#e19d36;}.cls-34{fill:#e79428;}.cls-35{fill:#e89625;}.cls-36{fill:#e2ab51;}.cls-37{fill:#e98e15;}.cls-38{fill:#f5daa5;}.cls-39{fill:#e6ae54;}.cls-40{fill:#dead5b;}.cls-41{fill:#e5b05f;}.cls-42{fill:#e2ba82;}</style></defs><title>logo_news</title><g id="Calque_2" data-name="Calque 2"><g id="Calque_1-2" data-name="Calque 1"><path class="cls-1" d="M252,616.08c-5.6-17.79-13.41-34.73-20.43-52Q188.45,458.19,144.79,352.5,73.24,178.37,1.68,4.24a2.19,2.19,0,0,1,.93-3C9.67.77,16.74,1.15,23.8,1H51.52c6.21,0,12.42,0,18.63,0a14.86,14.86,0,0,1,3.37.64c10.5.69,21,.12,31.51.31C155.2,4.28,205.19,9,255.29,12.24c27.5,1.77,55.17,1.25,82.8-.51,25.22-1.6,50.48-2.68,75.66-4.86C426.34,5.78,439,5.08,451.53,3.8,470.76,2.71,490,2.39,509.24,1h32.61c3.8.05,7.62-.11,11.42.11,5.13,1.91,6.17,6.61,7.5,11.08q47.84,159.42,101.43,317,50.37,148.62,103.91,296.13c48,132.51,97.38,264.51,146.48,396.61q52.06,140.07,104.9,279.84,42.75,113.13,85.41,226.29c1.58,5.21,3.8,10.19,5.64,15.3a24,24,0,0,1,.79,2.35c.42,1.47.74,3,1.19,4.46a6.41,6.41,0,0,1,.36,1.76c0-.12.2.32.2.32s.2-.74.2-.83a7.64,7.64,0,0,1,.66-1.92,62,62,0,0,0,2.38-6.78,18.45,18.45,0,0,1,1-2.44,77.5,77.5,0,0,0,5.72-14c52.1-125.6,104.1-251.23,155-377.32,57.85-143.41,114.54-287.26,169-432,46.4-123.18,91.53-246.81,134.18-371.36,38.43-112.23,76.85-224.46,113.91-337.15,1.06-3.23,2.18-6.28,4.86-8.52h4c2.75,2,5.9.61,8.83,1h19.79c11.18,1.67,22.46.53,33.67,1.25,45.07,2.94,90.12,7.19,135.28,1.17,9.54-1.27,19.29.14,28.85-1.41,8.48-.15,17,.19,25.45-.21l3.21-.73c4.36-.13,8.72,0,13.08-.07h6.71c3.16,1.6,10.31-4.08,9.29,5.11-5.74,15.18-13.55,29.51-18.48,45a239.19,239.19,0,0,1-14.16,32.62l.11-.18c-.63,1.44-.41,3.27-2,4.29-9.73,19.28-17.48,39.45-26,59.25q-49.23,114-98.09,228.17c-1.43,3.33-3.43,6.49-3.72,10.25a95.54,95.54,0,0,1-6.13,14.31l.08-.15c-1.52,3.31-1.68,7.19-4.27,10l.12-.19a47.69,47.69,0,0,1-6.19,14.13l.13-.17a301.62,301.62,0,0,1-13.91,32.34c-9.06,17.81-16.17,36.47-24,54.8-74,172.59-147.69,345.29-219.49,518.8q-89.58,216.42-176,434.11c-33.64,84.79-67,169.69-99.33,255-2.65,7-5.87,9.39-13.36,9.94-98.72,7.18-194.56-7.51-288.53-37-45.5-14.3-89.56-32.12-132.72-52.45-89.21-42-170.15-96.5-245-160.39a30.7,30.7,0,0,1-9-12.81c-57.94-150-115-300.32-174.14-449.87q-58-146.78-116.22-293.45c-3.56-9-7.22-17.89-10.83-26.83-6.64-7.88-8.24-18-12.12-27.16-6.64-15.62-13-31.37-19.58-47C252.73,619.72,253.62,617.6,252,616.08Z"/><path class="cls-2" d="M24.22,1.71,2.29,2.13c-.61-.4-.86-.85-.74-1.35S1.82,0,2,0H24c.58.31.8.67.68,1.07S24.39,1.71,24.22,1.71Z"/><path class="cls-3" d="M24.22,1.71C24.13,1.14,24.06.57,24,0H40c.61.33.83.69.67,1.09s-.34.61-.53.61A78.43,78.43,0,0,1,24.22,1.71Z"/><path class="cls-4" d="M1986.16,6.14c-.3-2.54-1.08-4.44-4.26-4.16a52,52,0,0,1-6-.14c-.6-.44-.79-.85-.56-1.25s.43-.59.64-.59h12C1988.43,2.36,1988.33,4.56,1986.16,6.14Z"/><path class="cls-5" d="M40.14,1.7C40.08,1.14,40,.57,40,0H52c0,.58,0,1.15.07,1.73Z"/><path class="cls-6" d="M554,0a8.89,8.89,0,0,1,.49,1.2c0,.2-.09.44-.14.67l-12.47,0c-.58-.45-.75-.88-.52-1.27S541.79,0,542,0Z"/><path class="cls-7" d="M542,0a9.54,9.54,0,0,1-.12,1.85l-10,0c-.59-.44-.78-.85-.55-1.24S531.79,0,532,0Z"/><path class="cls-8" d="M532,0a9.22,9.22,0,0,1-.09,1.82l-8-.09A16.69,16.69,0,0,0,524,0Z"/><path class="cls-9" d="M1710.13,1.75c-2.86.13-5.93,1.19-8.13-1.75h8c.61.34.84.72.67,1.12S1710.32,1.75,1710.13,1.75Z"/><path class="cls-10" d="M1710.13,1.75A12.76,12.76,0,0,1,1710,0h8a12.74,12.74,0,0,0,.07,1.75Z"/><path class="cls-11" d="M1969.94,1.76A17.25,17.25,0,0,0,1970,0h6a8.7,8.7,0,0,1-.08,1.84Z"/><path class="cls-12" d="M0,4V0H2c.1.71.19,1.42.29,2.13L1.68,4.24A3.7,3.7,0,0,1,0,4Z"/><path class="cls-13" d="M274.22,708.49q-8,14.79-16,29.6c-5.08,9.78-8.74,20.13-12.31,30.53a11.5,11.5,0,0,1-1.07,2.71c-1.19,2.34-.81,5.08-1.91,7.45-24.74,67.35-27.9,136.89-21.14,207.43.76,24.78,7,48.64,12.27,72.7,6.67,30.66,17,60.17,27.86,89.5,9.17,24.9,20.81,48.76,33,72.35,7.47,14.5,14.86,29,22.94,43.22,2.64,4.63,5,9.41,8.86,13.2a27.6,27.6,0,0,1,4.4,4c14.6,25.21,31.74,48.72,48.55,72.46a27.81,27.81,0,0,1,4,6.81l-.1-.09c13.11,14,24.82,29.23,36.12,44.74,8.44,14,20.43,25,30.92,37.19,2.79,3.25,6.2,6,8.6,9.56.55.72,1.05,1.47,1.57,2.2.28.35.54.71.83,1.06.63.65,1.22,1.32,1.83,2,.33.32.63.65,1,1A1190.68,1190.68,0,0,0,571,1557.17c.74.48,1.45,1,2.14,1.56s1.43,1,2.13,1.48c2.11,1.45,4.26,2.84,6.47,4.15a16.43,16.43,0,0,1,2.12,1.52c2.6,2.34,4.95,5,7.81,7,11.46,7.38,20.83,17.77,33.65,23.16q25.14,15.24,49.19,32.09c15,10.45,31,19.13,46.35,29.06,21.4,13.88,44.23,25.41,66.89,37.08,29.5,15.2,59.93,28.43,90.7,40.87,16.64,8.25,34.31,13.73,51.82,19.66,4.71,1.59,9.48,3,14.12,4.81,31.6,10.35,63.47,19.66,96.2,25.83,15.86,3.28,31.94,5.22,47.82,8.45,21,4.26,42.58,4.81,63.86,7.45,26.79.78,53.58,4.61,80.35,2.36,30.81-2.6,61.93-2.51,92.31-9.43a6.62,6.62,0,0,1,2.91.49c31.94-4.71,62.77-13.6,92.87-25.1.89-.42,1.81-.77,2.73-1.1a48,48,0,0,0,9.11-3.4,20.18,20.18,0,0,1,2.49-1c7.17-2.24,14.19-4.78,19.87-10,18.85-10.45,38.46-19.56,55.88-32.45a26,26,0,0,0,7.34-5.62,14.56,14.56,0,0,1,2-1.64c1.45-.93,2.9-1.87,4.3-2.9a24.16,24.16,0,0,1,2.16-1.47c3.53-1.94,6-5.16,9.26-7.47,14.24-12.19,29.18-23.61,40.51-38.84a31.68,31.68,0,0,1,8-7.36,18.49,18.49,0,0,0,8.31-9.95c24.84-31.38,44.14-66,59.46-102.83a12.8,12.8,0,0,0,2.16-5.9,13.43,13.43,0,0,1,.76-2.24,36.61,36.61,0,0,0,1.47-4.36,13.54,13.54,0,0,1,.81-2.18c.8-1.43.84-3.07,1.3-4.61a21.49,21.49,0,0,1,.82-2.5,36.33,36.33,0,0,1,4.42-8.83c6.66-26.37,13.14-52.75,13.4-80.18,3.15-27.8,2-55.58.12-83.39-.36-5.3-1.51-10.51-1.51-15.8,0-2.2.21-5.09,3.26-5.29,2.35-.15,2.62,2.55,3.7,4.07,6.21,14.33,7.2,29.85,10.19,44.93,11,58,10.48,116.44,7.32,175-5.29,43.92-17.4,86-34,126.93-12,22.44-22.75,45.67-38.73,65.79-13.44,15.88-26,32.5-39.59,48.24a109.33,109.33,0,0,1-19,19c-22.43,18.63-44.34,38-69.7,52.67-9.39,5.44-20.19,8.67-27,17.95-25,13.93-51.39,24.68-78.53,33.56a591.53,591.53,0,0,1-106.14,24.34c-46.47,6.16-93.21,7.34-140.11,5.56-20.9-.8-41.8-2.28-62.42-4.68-26.2-3.06-52.36-7.39-78.36-12.53-29.59-5.86-58.71-13.46-87.66-21.63-22-6.19-43.57-13.72-65-21.72-22.35-8.33-44.83-16.33-66.71-25.82-25-10.83-49.88-21.77-74-34.44-14.44-7.69-29.25-14.72-42.86-23.92-10-9.52-22.74-14.81-34.39-21.77-19.13-11.44-38.24-22.9-56.36-36-4.25-3.06-8.33-6.74-13.88-7.55-11.72-6.22-22.28-14.16-32.79-22.2-1.14-1.42-2-3-3.14-4.47-2.25-2.74-5.27-4.64-7.78-7.1-.69-.53-1.35-1.1-2-1.66s-1.44-1-2.15-1.52c-3.55-2.6-6.82-5.61-11-7.28a42.42,42.42,0,0,0-6.24-2.57c-17-13.48-34.67-26.13-49.86-41.74a16.93,16.93,0,0,0-8.15-6.24c-9.14-8.24-17.23-17.64-27.21-25-4.2-4.92-9.73-8.55-13.5-13.89-6.42-9-15.32-15.58-23.1-23.26-5-5.3-10.53-10.2-14.62-16.35a203.28,203.28,0,0,0-25.63-25.1,14,14,0,0,1-4.54-5.26c-3.74-6.94-9.24-12.29-15.41-17-3.89-2.83-6.52-6.67-8.72-10.87-6.08-12.11-15.83-21.27-24.94-31a21.32,21.32,0,0,1-3.95-4c-18.15-22.55-34.2-46.6-50.21-70.69-31.3-47.4-58.72-96.82-81.39-149a869.83,869.83,0,0,1-38.94-109.3,570.67,570.67,0,0,1-16.18-76.58c-12.4-96.68-7.63-191.46,31.25-282.44,13.73-26.37,27.63-52.62,45.16-76.81,4.29-5.93,9.13-11.27,13.8-16.81,7.64-6,13.37-13.82,19.84-21,12.75-14.07,27.44-26.09,42.11-38.07,7-5.72,8.47-5,12.35,3.72,7.16,16,12.94,32.67,20.2,48.66,3.42,7.52,4.6,14.22-1.75,20.8C275.91,703.9,275,706.27,274.22,708.49Z"/><path class="cls-1" d="M1110,2158l-4.08.12-3.59-.43c-3.91-2-8.48.64-12.35-1.75-34.85-5.48-69.71-10.84-105.07-12.05a468.26,468.26,0,0,0-105.28,8.6,30.19,30.19,0,0,0-3.73,1.24c-7.89,2.23-16.08,2.71-24.12,4l0,0-9.58-.25c-11.72-32.88-23.36-65.8-35.19-98.64q-22.48-62.43-45.21-124.78c-1-2.46-1.36-4.56,2.4-4.45,126.4,53,257.35,86.57,395,90.83.5,4.59-1.42,7.45-2.51,10.48q-22.38,62.42-44.85,124.8a24.4,24.4,0,0,1-1.81,2.25Z"/><path class="cls-14" d="M185.45,689.84c8.32-12.8,19.47-23.12,29.93-34.05,7.3-7.62,16.28-13.45,23.05-21.63a61.71,61.71,0,0,1,16.14-13.25c4.11,3.75,5,9.17,7,14,6.78,16.11,13.36,32.31,19.91,48.52,1.6,4,3.32,7.91,3.49,12.28-5.62,2.56-6.05,9.5-10.78,12.82a10,10,0,0,1,2.91-8.22c4.94-5.25,3.95-10.1,1.31-16.21-8.11-18.76-15.48-37.82-23.33-57.23-7.51,3.15-12.84,8.69-18.41,13.63-13.85,12.28-28.06,24.19-39.46,39C194.13,683.55,190.7,687.91,185.45,689.84Z"/><path class="cls-15" d="M1702,1536c-3,5.63.06,12.62-4.08,18,.93-16.92,1.65-33.85,2.85-50.74a199.32,199.32,0,0,0-.08-32.87c-1.16-12.24-.73-24.56-2.14-36.85-1.77-15.54-3.48-31-6.1-46.47-.61-3.58-.48-7.28-.69-10.92.66-.86,1.34-.87,2,0,.13,1.31.25,2.62.37,3.93,1.79,2.42-.27,5.67,1.74,8l0,0c2.69,3.66-.47,8.31,2,12l0,0c2.78,5.11-.63,11,2,16.11a7.73,7.73,0,0,0,.07,1.86c2.65,5.13-.69,11,2,16.1-.65,20.17,2.8,40.17,2.21,60.38C1703.75,1508.35,1701,1522.08,1702,1536Z"/><path class="cls-16" d="M253.76,751.61c-5.07,5.18-4.78,13.17-9.7,18.43,1.61-12,7.08-22.35,14.18-31.95C258.68,743.23,254.17,746.74,253.76,751.61Z"/><path class="cls-17" d="M764.25,1929.67c-2.12.78-1.91,2.8-2.4,4.45-1.57-1.39-2.75-3.18-1.46-5.09S763.13,1928.3,764.25,1929.67Z"/><path class="cls-18" d="M307.7,1242.64c3.26,9.3,8.94,17.26,14,25.55,1.62.75,1,2.85,2.27,3.81h0c1.28,2.44,3.82,4.47,2.55,7.75-4.91-1.2-6.27-5.93-8.19-9.43-10.17-18.55-19.63-37.53-29.78-56.07-7.57-13.82-11.17-29.57-21.2-42.06-.18-10.9-7-19.5-10.39-29.31-7.7-22.53-15.71-45-22-67.93-3.13-11.37-5.81-23-7.9-34.73-2.6-14.61-6-29.09-7.5-43.9a29.75,29.75,0,0,1,.63-8.78c3.79,14.08,4.47,28.72,7.75,42.89,3.57,15.44,5.61,31.27,11.76,46.06,2,12.86,6.56,25,10.61,37.26,13.76,41.73,31.57,81.73,52,120.61C303.84,1237.28,305.08,1240.42,307.7,1242.64Z"/><path class="cls-19" d="M539.81,1528.45c7.42,8,16.19,14.55,24.5,21.58,2.75,2.34,6,4.2,7.94,7.38A1.69,1.69,0,0,1,572,1560c-2.53-1.56-5.52-2.66-7.5-4.73-11.46-12-25.11-21.4-37.23-32.65-13.56-12.58-26.61-25.68-40.11-38.3A269.51,269.51,0,0,1,462,1458a1.66,1.66,0,0,1,2.58-.27q18.48,18.13,37,36.26c2.12,2.07,4.45,3.94,6.68,5.9,4,3.38,7.82,7,11.53,10.64a8.32,8.32,0,0,0,4.13,3.54,6.56,6.56,0,0,1,2.08,2l-.05,0C531.22,1519.44,535,1524.47,539.81,1528.45Z"/><path class="cls-20" d="M1568.36,1812.59c-7.45,8.52-16.44,15.34-25.15,22.45-2.54,2.09-5.48,3.72-7.34,6.57-15.67,10.05-30.43,21.51-46.87,30.38-5.53,3-10.52,7.06-16.84,8.5,2.43-6.56,8.7-9.62,14-12,19.94-8.75,36.82-21.83,53.55-35.27,9.53-7.66,19-15.45,28.43-23.19A1.46,1.46,0,0,1,1568.36,1812.59Z"/><path class="cls-21" d="M671.87,1800.42l-7.74-2.85c-24.14-15.18-49-29.18-72.74-45-8.8-5.88-17.95-11.26-25.92-18.3,6.7-1.87,10.94,3.78,14.68,6.8,7.79,6.3,16.38,11.19,24.64,16.56q25,16.26,51.25,30.57C661.63,1791.21,669.1,1793.18,671.87,1800.42Z"/><path class="cls-22" d="M1677.68,1314c.91,6.8,5.19,12.85,4.35,20l-3.81-4.86c3.22,35.6,5.59,70.11,1.64,104.67-.49,1-1.08,1.05-1.75.17-1.28-13,1.81-25.84,1.53-38.85-.43-20-1.26-39.9-3.39-59.76-.39-3.63-.36-7.31-.52-11-1.48-2.63.16-5.79-1.45-8.39,0-1.32,0-2.63-.08-3.94C1676.36,1310.9,1676.86,1312.75,1677.68,1314Z"/><path class="cls-23" d="M1330.31,1794.36c21.76-3.37,43.14-8.24,63.8-16,6.85-.85,13-3.89,19.52-5.92,3.37-1,6.49-3.15,10.26-2.74-1.5,3.07-4.64,3.37-7.36,4.43-24,9.34-49,15.27-74,21.29a35.85,35.85,0,0,1-12.82.41C1329.91,1795.36,1330.11,1794.86,1330.31,1794.36Z"/><path class="cls-24" d="M1678.11,1434c.58,0,1.17-.09,1.75-.17,1.18,10-1.73,19.64-2.62,29.46-1.46,16.12-7.18,31.4-9.32,47.39A6.6,6.6,0,0,1,1664,1516c-1.38-2-1.49-4,.1-6h0c1.64-1.73.17-4.38,1.78-6.12C1671.94,1481,1675.63,1457.61,1678.11,1434Z"/><path class="cls-25" d="M464.58,1457.73,462,1458h0a18.88,18.88,0,0,0-2-2h0c-.67-.67-1.27-1.4-2-2-8.8-9.78-17.7-19.46-26.34-29.37-5.09-5.84-11.34-10.91-13.58-18.83,7.34,5.69,12.63,13.33,18.52,20.29C445.73,1436.83,456.46,1446.13,464.58,1457.73Z"/><path class="cls-26" d="M1615.57,1761.63c-2.72,2.2-5.16,4.61-5.93,8.22-7.83,6.73-12.91,16-21.05,22.49a1.44,1.44,0,0,1-2.52-.26c7.08-10.75,17.12-19.06,24.46-29.6,2.63-3.77,5.21-7.59,7.93-11.3,2.14-2.9,4.22-6,8-7C1624.23,1750.86,1618.17,1755.17,1615.57,1761.63Z"/><path class="cls-27" d="M311.84,1504.36a188.15,188.15,0,0,1-26.18-32.22c.66.07,1.64-.12,1.93.24,8,10,18.05,18.45,24.15,30A4.91,4.91,0,0,1,311.84,1504.36Z"/><path class="cls-28" d="M592.59,1573.75a243,243,0,0,1,31.91,24c-4.56.62-7.32-2.88-10.38-5.06-8.29-5.91-16.15-12.41-24.19-18.68A1.74,1.74,0,0,1,592.59,1573.75Z"/><path class="cls-29" d="M363.31,1562.32c-8.58-8.14-17.21-16.22-23.86-26.12,10.49,6.91,18.68,16.2,26.55,25.8A1.77,1.77,0,0,1,363.31,1562.32Z"/><path class="cls-30" d="M403.9,1602.2l-4-1.92c-6.42-7-14.17-12.65-19.85-20.36-.63-.49-.83-1-.6-1.42s.45-.68.67-.68c8.47,5.49,14.06,14.18,22.27,20C403.79,1598.78,404,1600.53,403.9,1602.2Z"/><path class="cls-31" d="M1586.07,1792.08l2.52.26c-3.22,7.2-10.71,10.77-14.71,17.31l-5.52,2.94c-.08-.84-.16-1.67-.23-2.51A126.65,126.65,0,0,0,1586.07,1792.08Z"/><path class="cls-23" d="M1433.73,1765.7a77.73,77.73,0,0,1,22.12-10.09C1450,1762.27,1442.46,1765.31,1433.73,1765.7Z"/><path class="cls-32" d="M380.1,1577.82c0,.7-.05,1.4-.07,2.1-4.62-2.47-7.16-7.28-11.42-10.14q-2.64-3.73-5.3-7.46L366,1562Z"/><path class="cls-33" d="M335.89,1532.23a61,61,0,0,1-16.09-18.15C325.83,1517.46,333.53,1526.14,335.89,1532.23Z"/><path class="cls-34" d="M521.75,1702.61c-5.61-2.09-9.79-6.16-14.06-10.12a1.36,1.36,0,0,1,.2-2.41c4.92,1.32,8,5.4,12.09,8a23.14,23.14,0,0,0,2,1.93l0,0A1.58,1.58,0,0,1,521.75,1702.61Z"/><path class="cls-35" d="M592.59,1573.75l-2.66.28c-3.3-2.11-6.39-4.42-7.74-8.35C586.79,1566.9,589.63,1570.41,592.59,1573.75Z"/><path class="cls-36" d="M1585.74,1657.88a18.78,18.78,0,0,1,8.18-10C1593.37,1653,1590,1655.82,1585.74,1657.88Z"/><path class="cls-37" d="M521.75,1702.61c.09-.87.19-1.74.28-2.62l9.9,8.16a2.65,2.65,0,0,1-3.88-.19C525.66,1706.53,523.25,1705.1,521.75,1702.61Z"/><path class="cls-35" d="M572,1560c.09-.87.19-1.74.28-2.62l3.32.78,6.7,7.55c-3.72.89-5.44-2.65-8.27-3.74a12.15,12.15,0,0,0-2-2Z"/><path class="cls-38" d="M1664.13,1510.08c0,2-.06,4-.1,6-1.73,2.48-1.23,6-3.92,8C1659.29,1518.8,1661.05,1514.25,1664.13,1510.08Z"/><path class="cls-23" d="M1423.8,1769.79a14.41,14.41,0,0,1,10-4.15C1431.43,1769.31,1428,1770.46,1423.8,1769.79Z"/><path class="cls-39" d="M446.36,1643.84c-.75-1.31-1.49-2.63-2.24-3.95a8.79,8.79,0,0,1,7.64,6.53Z"/><path class="cls-40" d="M507.89,1690.08c-.06.81-.13,1.61-.2,2.41l-3.11-.75L502,1688C504.34,1687.61,506,1689.16,507.89,1690.08Z"/><path class="cls-41" d="M528.05,1708l3.88.19,2,4-3.69-.76C529.49,1710.28,528.77,1709.12,528.05,1708Z"/><path class="cls-38" d="M1654.06,1542.06c-.29-2.33-.46-4.63,2.06-6C1656.42,1538.4,1656.29,1540.59,1654.06,1542.06Z"/><path class="cls-16" d="M244.06,770c.22,2.31,0,4.47-2.07,6C241.79,773.71,241.54,771.39,244.06,770Z"/><path class="cls-38" d="M1656.11,1536.09c-.41-2.37-.59-4.66,2-6C1658.39,1532.4,1658.41,1534.64,1656.11,1536.09Z"/><path class="cls-38" d="M1658.12,1530.1c-.4-2.37-.57-4.65,2-6C1660.43,1526.4,1660.31,1528.59,1658.12,1530.1Z"/><path class="cls-37" d="M522,1700c-.68-.64-1.36-1.28-2-1.93C520.65,1698.69,521.33,1699.33,522,1700Z"/><path class="cls-19" d="M572,1560c.68.65,1.35,1.31,2,2C573.33,1561.34,572.66,1560.68,572,1560Z"/><path class="cls-19" d="M458,1454l2,2Z"/><path class="cls-19" d="M460,1456l2,2Z"/><path class="cls-42" d="M1673.77,1310.18l2.2-2.1c.77,1.92,2.15,3.66,1.72,5.92l-3.49-1.9A7.52,7.52,0,0,1,1673.77,1310.18Z"/><path class="cls-42" d="M1674.28,1316c2.56,2.43,1.59,5.48,1.45,8.38C1673.8,1321.88,1673.9,1319,1674.28,1316Z"/><path class="cls-38" d="M1665.91,1504c.31,2.3.22,4.49-1.78,6.12C1663.75,1507.77,1663.61,1505.51,1665.91,1504Z"/></g></g></svg>