<svg xmlns="http://www.w3.org/2000/svg" viewBox="0 0 319.24 499.02"><defs><style>.cls-1{fill:#010101;}.cls-2{fill:#f4f4f4;}.cls-3{fill:#030303;}.cls-4{fill:#efefef;}.cls-5{fill:#070707;}.cls-6{fill:#e8e8e8;}.cls-7{fill:#181818;}.cls-8{fill:#e9e9e9;}.cls-9{fill:#151515;}.cls-10{fill:#0d0d0d;}.cls-11{fill:#0a0a0a;}.cls-12{fill:#040404;}.cls-13{fill:#080808;}.cls-14{fill:#0f0f0f;}.cls-15{fill:#313131;}.cls-16{fill:#101010;}.cls-17{fill:#1f1f1f;}.cls-18{fill:#232323;}.cls-19{fill:#3c3c3c;}.cls-20{fill:#2a2a2a;}.cls-21{fill:#cdcdcd;}.cls-22{fill:#bdbdbd;}.cls-23{fill:#090909;}.cls-24{fill:#a5a5a5;}.cls-25{fill:#c3c3c3;}.cls-26{fill:#383838;}.cls-27{fill:#afafaf;}.cls-28{fill:#c5c5c5;}.cls-29{fill:#d2d2d2;}.cls-30{fill:#575757;}.cls-31{fill:#3e3e3e;}.cls-32{fill:#fbfbfb;}.cls-33{fill:#f9f9f9;}.cls-34{fill:#f8f8f8;}.cls-35{fill:#f5f5f5;}.cls-36{fill:#fafafa;}.cls-37{fill:#f7f7f7;}.cls-38{fill:#eaeaea;}.cls-39{fill:#f6f6f6;}.cls-40{fill:#f2f2f2;}.cls-41{fill:#ebebeb;}.cls-42{fill:#f1f1f1;}.cls-43{fill:#e4e4e4;}.cls-44{fill:#e3e3e3;}.cls-45{fill:#d1d1d1;}.cls-46{fill:#d6d6d6;}.cls-47{fill:#e0e0e0;}.cls-48{fill:#dbdbdb;}.cls-49{fill:#cecece;}.cls-50{fill:#e7e7e7;}.cls-51{fill:#bbb;}.cls-52{fill:#d3d3d3;}.cls-53{fill:#dcdcdc;}.cls-54{fill:#d7d7d7;}.cls-55{fill:#acacac;}.cls-56{fill:#c8c8c8;}.cls-57{fill:#bababa;}.cls-58{fill:#f0f0f0;}.cls-59{fill:#404040;}.cls-60{fill:#2c2c2c;}.cls-61{fill:#ececec;}.cls-62{fill:#131313;}.cls-63{fill:#a2a2a2;}.cls-64{fill:#d0d0d0;}.cls-65{fill:#a7a7a7;}.cls-66{fill:#dfdfdf;}.cls-67{fill:#c7c7c7;}.cls-68{fill:#373737;}.cls-69{fill:#b0b0b0;}.cls-70{fill:#363636;}.cls-71{fill:#727272;}.cls-72{fill:#a9a9a9;}.cls-73{fill:#4c4c4c;}.cls-74{fill:#c2c2c2;}.cls-75{fill:#cbcbcb;}.cls-76{fill:#dedede;}.cls-77{fill:#d4d4d4;}.cls-78{fill:#0b0b0b;}.cls-79{fill:#ddd;}.cls-80{fill:#191919;}.cls-81{fill:#d9d9d9;}.cls-82{fill:#dadada;}.cls-83{fill:#474747;}.cls-84{fill:#494949;}.cls-85{fill:#454545;}.cls-86{fill:#7e7e7e;}.cls-87{fill:#9c9c9c;}.cls-88{fill:#b3b3b3;}.cls-89{fill:#585858;}.cls-90{fill:#c1c1c1;}.cls-91{fill:#c6c6c6;}.cls-92{fill:#d5d5d5;}.cls-93{fill:#ededed;}.cls-94{fill:#eee;}.cls-95{fill:#323232;}.cls-96{fill:#747474;}.cls-97{fill:#9e9e9e;}.cls-98{fill:#505050;}.cls-99{fill:#b2b2b2;}.cls-100{fill:#787878;}.cls-101{fill:#060606;}.cls-102{fill:#a4a4a4;}.cls-103{fill:#2d2d2d;}.cls-104{fill:#2b2b2b;}.cls-105{fill:#ccc;}.cls-106{fill:#202020;}.cls-107{fill:#434343;}.cls-108{fill:#969696;}.cls-109{fill:#c9c9c9;}.cls-110{fill:#767676;}.cls-111{fill:#b5b5b5;}.cls-112{fill:#ababab;}.cls-113{fill:#9a9a9a;}.cls-114{fill:#626262;}.cls-115{fill:#919191;}.cls-116{fill:#5c5c5c;}.cls-117{fill:#6b6b6b;}.cls-118{fill:#111;}.cls-119{fill:#3f3f3f;}.cls-120{fill:#717171;}.cls-121{fill:#1a1a1a;}.cls-122{fill:#1b1b1b;}.cls-123{fill:#272727;}.cls-124{fill:#303030;}.cls-125{fill:#6a6a6a;}.cls-126{fill:#393939;}.cls-127{fill:#2e2e2e;}.cls-128{fill:#bfbfbf;}.cls-129{fill:#616161;}.cls-130{fill:#4d4d4d;}.cls-131{fill:#c4c4c4;}.cls-132{fill:#5f5f5f;}.cls-133{fill:#2f2f2f;}.cls-134{fill:#838383;}.cls-135{fill:#484848;}.cls-136{fill:#bebebe;}.cls-137{fill:#696969;}.cls-138{fill:#444;}.cls-139{fill:#848484;}.cls-140{fill:#212121;}.cls-141{fill:#858585;}</style></defs><title>logosvg</title><g id="Calque_2" data-name="Calque 2"><g id="Calque_1-2" data-name="Calque 1"><path class="cls-1" d="M155.18,303.32c-3.7-1.1-6.44-2.92-6.45-7.36,0-2.34-1.34-3.29-3.85-2.9-8.83,1.36-17.67,2.59-25.91,6.35a13.68,13.68,0,0,1-5.64,1.62c-1.84,0-4-.29-5,1.48-1.24,2.39,1.9,3,2.59,4.7-.44,2.56-2.46,1.76-4,1.92-1.36-.13-2.64-.81-4-.6-3,1.36-.55,3.42-.66,5.14-.58,4.06-.63,8.2-1.83,12.17-.5.64-.86,1.65-1.65,1.75-5.77.75-9.63,4.55-13.56,8.27-6,5.21-6.74,12.53-8,19.78,6.4-3.48,7.78-11.14,13.23-15.25.46-3.82,2.07-6.79,5.72-8.54,2.22-1.07,2.79-3.57,4-5.53.86-1.47,1.93-2.82,3.7-3.06,3.93-.53,5.45-3.35,6.6-6.6.6-1.33.52-2.9,1.29-4.13.94-1.5,2.09-2.77,3.54-.4.78,6.72-3.13,11.52-7.23,15.83-3.43,3.61-6.47,7.62-11.09,10.27-3.35,1.91-2.66,6.45-2.57,10.07.19,8.58-2.56,15.66-9.4,21.28a9.53,9.53,0,0,1-7.08,2.53c-6-.26-11.32-2.46-16.54-5.1-.24-2.5,2.32-1.79,3.29-2.91,2.45-1.88,2.3-4.71,2.71-7.34.37-3.52,2.25-6.57,2.88-10-1,4-3.12,7.66-3.13,11.93-.48,2.44-1.06,4.75-4.42,3.94-2.76-1.95-2.82-4.77-2.06-7.56,1-3.47,1.3-7.17,3.42-10.28,1.47-2.17.63-3.35-1.83-3.63a3.06,3.06,0,0,1-2.27-1.6,8.33,8.33,0,0,1,11.25-4.85c1.09.51,1.88,2.05,3.37.8a62,62,0,0,0,4.24-6.74,20.18,20.18,0,0,0,7.86-10.68,12.94,12.94,0,0,1,2.13-2.7c.84-1.79,5.46-3.51.07-5.39-1-.32-1.79-.73-1.8-1.92,1.29-2.67,4.18-1.93,6.24-3A7.51,7.51,0,0,0,96.58,303a14.09,14.09,0,0,1,4-2.9c4.19-2.42,4.18-2.45-.06-5.33-.72-.41-1.46-.79-2.18-1.18-4.26-2.3-4.37-2.91-1.27-7,1.78-.91,3.81-.67,5.67-1.18s3.49.21,5.32-.15c-.67-1.57-2.89-1.65-3.09-3.49,1.47-2.64,3.56-1.59,5.55-.92,2.37.8,4.09,2.75,6.42,3.63,4.12.18,8.22.8,12.36.45.25-.76,2.48.63,1.52-1.41a19.59,19.59,0,0,0-4.42-6.39c-2.14-3-4-6.09-2.5-10.12.86-2.26-.93-3.13-2.54-4.17-4.44-2.89-3.92-12.72.68-15.38,1.9-1.09,3.21-.34,4.25,1.15a8.89,8.89,0,0,1,1.87,5.87,21.83,21.83,0,0,0-1.88-8.67c-1.46-3.25-1.7-6.37.34-9.47,1.69-2.58,1.47-5.36.75-8.17a11.4,11.4,0,0,1-.25-1.42,8.52,8.52,0,0,1,1.54-5.66A17.84,17.84,0,0,0,132,209.83c-.35-5.69,4.45-4.55,7.54-5.61-.63-1-1.76-1.28-2.48-2.08-1.83-2.13-.35-2.82,1.48-3.18a9.87,9.87,0,0,1,5.72.7c3,1.57,5.88,1.11,8.62-.73,1.36-.62,2.74-1.07,4.21-.32,1.63,2,.3,3.63-1.19,4.47-2.55,1.42-2.35,3.59-2.37,5.83a6.84,6.84,0,0,1-2,2c-8.07,3.15-6.2,10-5.79,16.13.23,3.31.78,6.52.17,9.88-.8,4.34,1.47,7.7,5.05,9.43,11.35,5.5,17.79,15.66,24.73,25.31,4.84,6.74,9.6,13.55,14.41,20.32,2.37,3.33,4,2.65,5.91-.1.28-.4.62-.78.92-1.18,4.22-5.58,4.22-5.58,11.81-4.46a218.42,218.42,0,0,1-17.91-14.56c-2-1.9-4.54-3.47-5.12-6.52.23-2.06,2.34-2,3.44-3.14,2.67-1.91,4.23-3.89.74-6.56-.47-.36-.12-1.22.2-1.82,1.62-1.64,3.35-3.22,4.13-5.46,1.56-4.49,4.93-6.77,9.32-7.89,1.85.4,3.47,1,3.28,3.39-.64,2.05-2.47,3-3.92,4.33,3.24.47,3.8,2.56,2.49,5.19-1.62,3.27-1.87,7-3.83,10.17-.7,1.12-1.05,2.86.79,3.19,1.53.27,1.51-1.45,1.63-2.52.61-5.35,5.43-9.62,3.82-15.58a32.64,32.64,0,0,1-.52-4.41c1-3.4-4-2.95-3.8-5.86a3.89,3.89,0,0,1,1.66-3c12.2-8.15,17.45-21.45,24.55-33.32,12-20.08,21.19-41.79,34.54-61.07,4.73-6.84,8.71-14.07,13.17-21,4.56-8.88,10.75-16.74,15.85-25.29a17.58,17.58,0,0,0,2.84-9.86c-.06-1.59.69-3.49-1.49-4.24a6.58,6.58,0,0,0-5.73.27c-3.85,2.13-4.8,6.14-6.72,9.54-2.6,5.82-6.87,10.59-10,16.08a76,76,0,0,1-11.41,13.39c-1.52.84-3.23,3.34-4.27-.45a7,7,0,0,1,1.13-3.38,75.48,75.48,0,0,0,6.94-9.16c1.5-2.58,3.45-4.89,4.51-7.73.37-1,.76-1.88-.47-2.53a2.52,2.52,0,0,1-1.07-1.64,4.78,4.78,0,0,1,1-3.25c1.28-2,.6-2.75-1.56-3.45-4.2-1.36-4.65-3.47-1.25-6.63A167.64,167.64,0,0,1,279.3,70.56c.39-.3.82-.56,1.23-.84,8.53-6,8.57-6.87.67-13.57a22.59,22.59,0,0,1-1.82-1.71c-1.93-2.79-4.55-5.5-1.11-9a7,7,0,0,1,4.59-.42c4,1.9,5.69,6.39,9.63,8.46,1.91,1,3.67,2.23,5.86,2.59,3.12,1.59,6.24,3.19,6.73,7.23,1.62,3.89.32,7.62-.47,11.45-3,14.55-10,27.06-18.06,39.44a768,768,0,0,0-48.07,84.17c-5.27,10.85-12.62,20.43-18.47,30.93-2,3.6-2.26,6.9-2.19,11.11.19,10.46,3.53,20.37,3.84,30.86.27,9,2,18,1.38,27.11-1,15.9-3.49,31.71-2.85,47.7A407.86,407.86,0,0,1,219,394.44c-.95,12.1.65,24.28-1.66,36.26-2.22,11.54-.57,23.18-1,34.77-.14,3.62-2.3,6.48-2.19,10.07.06,1.85-2.23,1.45-3.69,1.52a80.52,80.52,0,0,1-18.33-1.4c-.33-.06-.65-.17-1-.23-11.37-2-11.87-1.55-11.79,9.65.06,9.32-2.84,11.87-12.26,11-5.17-.49-10.25,1.34-15.65-.41-2.79-.9-6.05,2.45-9.71,2.75-3.1.25-6.23.51-9.36.62-.87-.62-1.84-1.2-.84-2.45,6.25-3,12.93-5,19.27-7.81a6.91,6.91,0,0,1,6.67.51,9,9,0,0,0,7.45,2.4c1.48,0,3,0,4.45-.07,2.74-.14,4.09-1.54,4.5-4.27,1.22-8.08-.61-10.4-8.81-10.86-2.47-.14-5,.19-7.4-.33-1.5-.32-3.53-.56-2.18-3.05,1.15-8.48,5-16.14,7.44-24.21a10.08,10.08,0,0,0,.29-4.84c-.65-2.63.55-4.94,1-7.4,1.47-8.59,6.11-16.1,7.66-24.56.56-3.09,2.13-3.36,4.58-2.56,2.77,2.2,2.35,5,1.17,7.7-3.24,7.38-4.57,15.24-6.09,23a29.44,29.44,0,0,1-2.29,6.05c-2.25,5.18-4.8,10.29-4.27,16.21a3.45,3.45,0,0,1-.56,2.37c-2.05,3-1.91,3.67,1.57,3.67,6.88,0,13.51,1.36,20.19,2.77,6.36,1.35,12.9-1.14,19.35.39,1.37.32,1.31-1.11,1.09-2.15-1-2.47-.67-4.49,1.89-5.76a4.12,4.12,0,0,0,1.89-2.74,20.8,20.8,0,0,0,1.14-14.42c-1.14-4.27-.52-8.84-1-13.26.18-1.4,1.17-2.4,1.76-3.6,1.08-3.22.76-6.5.27-9.74a22.21,22.21,0,0,1,0-7.84,11,11,0,0,0-1.42-8.54,15.6,15.6,0,0,1-2.23-8.94c.4-7.71-2-15.11-2.5-22.73-.25-4-.51-7.93.8-11.79.71-1.64.66-3.44,1.1-5.13.6-2.27,1.79-3,3.62-1,1.41,3.2.86,6.49.44,9.78-.8,6.29-1.19,12.52,1.57,18.55a18.07,18.07,0,0,1,1.15,7.32c-1.86-11.81.42-23.6-.18-35.41.3-5.69.41-11.36-2.28-16.64-1.5-4-2.87-7.93.87-11.5.24-.24.65-.56.58-.76-1.9-4.8.13-8.33,2.51-12.59,2.14-3.85-.08-9.08-.5-13.7-.08-.83,0-1.66-.21-3.36-.57,5.72.94,10.8-1.46,15.47-.68,1.32-1.17,3-2.92,3-1.94.07-2.25-1.62-2.62-3.08A36.68,36.68,0,0,0,210,299c-.12-2.19-.88-3.88-3.06-4.63-1.29-.44-2.68-.28-2.19,1.43A14.6,14.6,0,0,1,204,305.9c-.5,1.2.61,2.5,1.35,3.62,2.7,2.63,4.13,5.91,5.32,9.43,1.1,3.26.26,5.81-1.85,8.25s-4.25.85-6.41.35a3.47,3.47,0,0,0-1.84.6A17.44,17.44,0,0,0,198,331c-1.74,2-3.44,2.15-5.08-.12-.3-.32-.59-.64-.9-.95-1.12-1-3-1.17-3.52-2.89-.54-5.71-4.92-9.33-7.7-13.76-8.33-13.22-17.64-25.8-26.3-38.8a1.24,1.24,0,0,0-1.51-.65c-.77,2.08.45,3.5,1.93,4.89,5.41,5.07,9,11.49,12.92,17.65,2.21,3.46.21,7.66,2.34,11,.25,3.76,1.58,7.21,3,10.64.44,1.43.47,3.08,1.44,4.22,8.32,9.85,9.43,22.68,14.12,34,1.65,4-.53,6.67-3.76,8.73-3.92,2.51-9.46,3.05-11.79,1.14a5.78,5.78,0,0,1-1.88-3.43,32.32,32.32,0,0,0-1-4.89,40.46,40.46,0,0,1-1.58-5.26,15.9,15.9,0,0,0,.53,6.17c1.55,4.89,3.52,9.74.48,14.82-.5.83,0,2,.21,2.92a13.74,13.74,0,0,1,.47,3c1.18-.67.77-2.22,1.71-3,3.88-1.53,5.84-.6,5.13,3-.77,3.92-1.86,7.54.6,11.26.61.91-.21,2.24-.85,3.24a20,20,0,0,1-7,4.7c2.1,0,4.63-1.43,4.93,2.05-.77,2.89-3.11,5.14-3.4,8.24-4.12,4.17-5.18,9.44-5.4,15-.16,4.08.68,8.51-3.8,11.11a38.37,38.37,0,0,1,1.54-22.33,8.35,8.35,0,0,0,.42-3.41c-1-15.2.44-30.39.15-45.6a116.89,116.89,0,0,0-2.54-22.62c-1.46-6.69-1.38-13.32-1.54-20,1.06-1.35,4.48-1.77,1.77-4.57C158.89,312.57,157.3,307.81,155.18,303.32Z"/><path class="cls-1" d="M43.26,260.06c-.94-3.1-4.41-3.91-5.88-6.48-.51-.89-1.6-2-.52-3.11.87-.9,1.81.2,2.73.34a3.65,3.65,0,0,1,2.87,1.76c2.58,4.94,6.68,5.11,11.32,3.86.48-.12,1-.21,1.44-.34,1.63-.47,4.27,1.22,4.83-.93.64-2.5-2.2-3.61-3.83-5.09-2.15-2.19-3.7-4.9-6.16-6.81-1.71-2.63-.7-5.88-2-8.59-1.61-3.41-.59-7.19-1.47-10.67-2,.42-3.33-.59-4.32-2.2a5.24,5.24,0,0,1-.71-1.15c-.75-1.9-.17-4-1.08-5.9-.42-.82-.88-1.61-1.33-2.41-.87-2-2.64-3.58-2.59-6,.42-1.49,1.2-2.28,2.8-1.38,3.27,2.16,3.58,6.16,5.64,9.1,2.91,4.14,7.58,4.4,10.59.19,1.5-2.11,3.83-3.13,5.65-4.82,3.91-3.62,6.89-8,10.29-12.05,6-7,14.54-10,23.18-12.41,9.75-2.74,19.57-5.24,29.26-8.2,3.33-1,6,.34,8.41,1.58,7.71,3.88,14.47.43,21.14-2.46,8.33-3.62,15.29-9.67,23.31-14,6.05-3.29,12.88-6.55,17.09-13.3,3-4.74,8.56-7.63,12.4-12,2.85-3.24,4.78-7,7.09-10.58,8.66-13.4,16.54-27.37,28.55-38.38,5.48-5,10-11.06,14.9-16.72,2.51-2.92,5.71-5,8.78-7.15,2.77-2,4.45-4.35,4.69-7.74,1.71-2.49,3.82-4.22,7.09-3.74a3,3,0,0,1,1.77,2.32c-1.08,6-6.15,8.87-10.28,12.18s-8.59,5.94-7.84,12.58c.35,3.13-2.85,5-5.38,6.69-6.75,4.5-13.63,8.82-16.6,17.07-.78,2.19-2.85,3.67-4.49,5.28a41.07,41.07,0,0,0-9,13c-1.05,2.42-2.46,4.36-5.54,4.11-2.38-.2-3,1.68-3.78,3.34-1.18,2.54-1.81,5.38-3.86,7.48-1.18,1-2.44,2-3.52,3.15a14.88,14.88,0,0,0-3.17,4.14c-1.05,2.44-3.93,2.11-6.17,4.13,2.94-.4,6.22-2.55,6.56,2.12-.61,3-1.21,5.92-5.4,5.83-2.26,0-.23,1.7-.67,2.5a2.22,2.22,0,0,1-1.39,2.21c-1.8-.18-3,.23-3.54,2.31a58.55,58.55,0,0,0-.77,6.3c-.45,1.72-.44,3.6-1.36,5.14-1.25,2.12-3,2.18-4.91.81-2-3,.07-5.74.53-8.64-2,4.86-3.53,9.88-5.53,14.72a8.76,8.76,0,0,1-.6,1.36c-1.1,1.86-1.46,5.18-4.61,3.92-2.91-1.17-3-4-2-6.79.34-.93.79-1.82,1.19-2.74a11.56,11.56,0,0,1-2.94,3.91c-2.16,2.91-3,6.52-5.22,9.41a11,11,0,0,1-4.37,3.85c-4.16.64-3.34-2.24-2.82-4.37.93-3.78,3.78-6.55,5.65-9.84,2.3-2.41,4.61-4.81,6.11-7.83.52-1,.94-2.39-.19-3.2s-1.92.27-2.51,1c-3.79,4.78-10.31,5.31-14.49,9.44-1.1,1.64-1.06,4-3.1,5.07a9.59,9.59,0,0,1-1.25.71,7.5,7.5,0,0,1-3.61.75c-6.53.22-12.65-1.87-18.86-3.4a16.38,16.38,0,0,1-2.22-.24c-4.93-1-8.88.18-11.42,4.86-.73,1.35-2.47,1.58-3.66,2.93,2,1,4.22.83,6.1,1.71,1.2.55,2.62,1.08,2.27,2.77-.28,1.34-1.57,1.63-2.73,1.75-3.79.39-7.6.07-11.4.2-5.61.19-11.24-.54-16.82.5a9.81,9.81,0,0,1-4.39.31c-4.87-1.14-8.25.84-10.8,4.8-.41.52-.86,1-1.3,1.5A29.3,29.3,0,0,1,70,206.68a22.37,22.37,0,0,0-2.26,3.72c-1.41,1.68-2.65,3.49-4,5.21a13.14,13.14,0,0,1-1.5,1.39c-2.29,1.93-4.1,4.34-6.41,6.27-1.31,1.09-3.2,3.27.46,4.33,2,.57,2.12,2.19,1.49,3.59-1.92,4.3.28,7.37,2.78,10.38A84.09,84.09,0,0,1,69,253.9c3.6,6.33,2.24,8.87-5,10.16-1.86.33-3.91-.22-5.69.92.58,1.1,1.51,1.06,2.27,1.33,3.42.69,6.86.15,10.27.39,1.92.13,4.31-.15,4.89,2.28.65,2.77-1.61,3.55-3.72,4.19-3,.44-6,0-9,.28-5.79.59-10.4-1.52-14.25-5.66a7,7,0,0,1-.92-1.17C47.1,263.9,44.85,262.21,43.26,260.06Z"/><path class="cls-2" d="M157.2,490.25c-3.72-2-6.88.17-10.19,1.33-5.24,1.84-10,5-15.72,5.54-2.13-.57-3.37-1.47-.61-2.91,1.43-.75,3.23-.74,4.62-1.74a18.13,18.13,0,0,0,1.59-1.31c2.88-3.18,5.81-6.13,10-7.81,3.5-1.41,5.55-4.52,6.39-8.28a3,3,0,0,1,2.14-2c-.28,3.26,2.17,2.2,3.7,2.18,4.92-.06,9.84-.56,14.47,1.81.87.45,2.45.86,2.22,1.61-1.23,4,.36,8.24-.87,12.15-.67,2.13-3,2.48-5,2.47-1.81,0-3.61-.31-5.41-.49C162.33,491.25,159.75,490.8,157.2,490.25Z"/><path class="cls-3" d="M296.24,10C298.43,4.9,301,.18,307.58,0c5.76-.15,9.16,2,10.7,7.72,2.67,9.87-.46,18.76-6.11,26.64-2.49,3.48-3.12,6.27-1.71,10.22,1.82,5.12,3.57,10.56-2.17,14.7-2.39.5-2.76-.55-1.5-2.26s2.71-2.85,1.45-5a40.88,40.88,0,0,1-2.36-6.07c-1.28.78-.63,1.9-.87,2.77-.57,2-2.05,2.46-3.84,2.27-2-.21-2.88-1.53-2.79-3.44.14-2.89,1.56-5.33,2.89-7.83,1.75-3.29,4.59-6.2,4-10.4a6.33,6.33,0,0,1,.13-2.08c.46-1.62,1.94-2.19,3.16-3a6,6,0,0,0,2.79-6.43c.1-2.38,1.12-4.5,1.9-6.68-.46-4.81-1.47-5.71-5.6-4.83a12,12,0,0,0-3.33.86c-1.48.74-2.29,2.33-3.69,3.06S297.61,12.63,296.24,10Z"/><path class="cls-4" d="M15.53,222.93c-1.4-.77-2.48-2.28-4.38-1.93a2.43,2.43,0,0,1-.42-1.31,3.21,3.21,0,0,0-2.43-3.76A4.94,4.94,0,0,1,5,211.37c-.89-5.05,1.61-9.55,2.25-14.35,2-5.12,6.87-4.14,10.79-5.2a8.62,8.62,0,0,1,2.43.1c1.45.26,3,.38,3.33,2.27.24,1.48-.64,2.45-1.65,3.33a15.65,15.65,0,0,1-3.27,2.09c-2.86,2,1.14,3.59.41,5.47.3,2.16-1.26,4.26-.19,6.44a6.07,6.07,0,0,1,.6,1.94C19.16,217,16.87,219.75,15.53,222.93Z"/><path class="cls-5" d="M57.26,359.13c-2.89-3.14-3.77-7.18-5-11.06a5.66,5.66,0,0,1-1-3.63c.58-4.31,1.14-8.64,3.15-12.61,2.88-5.35-1.76-8.06-4.19-11.43-1.21-1.68-3.4-2.61-4.19-4.74-2-2.16-1.95-5-2.75-7.61-.69-3.39-2.7-6.41-2.8-10,1.38-.32,2.12.81,3.12,1.37,4.32,2,4.85,6.23,5.89,10.15a21.83,21.83,0,0,0,7.09,7.48c5.92,3.7,7.19,13.27,3,19a9.7,9.7,0,0,0-2.09,3.36c-1.69,4.71-1.67,9.3,1,13.72a11.68,11.68,0,0,1-.2,4.71A3,3,0,0,1,57.26,359.13Z"/><path class="cls-6" d="M296.24,10a3.32,3.32,0,0,0,4.64-1.49c.73-1.24,1.36-2.54,3-2.67,4.23.74,3.56,5.56,6.31,7.54a11.2,11.2,0,0,0,2.06,4.6c1.35,5.34-2.41,7-6.2,8.72-3.35.52-4.07-2.61-5.89-4.22-1.91-2.66-.68-5.07.84-7.4-3.05-.88-3.33,3-5.76,3C295.67,15.4,294.19,12.51,296.24,10Z"/><path class="cls-7" d="M42.28,300l-1.85-1.95a9.87,9.87,0,0,0,1-5.17c0-6.05-1-12.13.9-18.12.48-1.49-.13-3.19-.63-4.81-.88-2.83-1.47-5.85,1.59-8,2.32.58,3.46,2.62,5.07,4.09l-.14-.13c.45.5,1,1.43.77,1.72-3,3.67-.66,8.39-2.4,12.19-1.89,4.11-1.53,8,.27,11.88.37,1.39.21,2.9,1.16,4.16s2.22,2.26.89,3.82-2.65.58-4-.09A2.13,2.13,0,0,0,42.28,300Z"/><path class="cls-8" d="M176.14,410.39c-1.53-.09-3.65-1.09-3,2,.56,2.84-.77,5.57-2.06,7.51-3.19,4.8-3.91,10.1-4.73,15.46-.47,3.15-4.51,4.91-3.18,8.66-1.81-2.84-.51-6-.88-9a16.69,16.69,0,0,0,2.6-10.45c-.17-3.11-1.83-6.19,2-8.23a1,1,0,0,0,.3-.89c-2.5-4.37,1.14-5.56,3.74-7.3C173.5,406.85,175.54,406.89,176.14,410.39Z"/><path class="cls-9" d="M17.37,199.11a17.41,17.41,0,0,0,2.55-1.5c1.2-1,3.59-1.48,3.08-3.42-.65-2.5-3.12-.8-4.72-1.27,0-2.22,1.8-1.63,3-2a35.06,35.06,0,0,1,12.25,6.68,4.5,4.5,0,0,1,1.76,4.29c1.09,3.64-1,4.6-4,4.77-2.81-1.18-2.06-3.84-2.5-6-.32-1.05-.86-1.56-1.18-.08-.45,2.07-.27,4.28-1.56,6.14a4.29,4.29,0,0,1-1,1c-3,1.27-5.23.65-6.2-2.75a3.08,3.08,0,0,1,1.46-2.38,7.45,7.45,0,0,0,1-.74c-.5-.05-.84.45-1.27.46C17.79,202.42,16.09,202,17.37,199.11Z"/><path class="cls-10" d="M52.27,344.07c0,1.33,0,2.67,0,4-7.68-5-7.65-14-10.83-21.32a1.09,1.09,0,0,1,.07-1c5.78-5.41.62-11.88,1.74-17.74l4,7.12c.13,5.07,2.64,9.11,5.64,12.94-.76,4.4-1.13,4.46-6.6.52C47.92,334.37,49.36,339.48,52.27,344.07Z"/><path class="cls-11" d="M11.3,220.05a5.08,5.08,0,0,0-.15.95c-2.1,2.42-.18,3.8,1.44,5.11,1,.83,2.31,1.32,3.4,2.07,1.64,1.14,2.11,2.71.59,4.15s-2.69.51-3.22-1.24c-.31-1-1.12-1.07-1.94-1.18-2.6-.78-5.21-1.66-7.37,1-3.84-1.19-3.94-4.32-3.7-7.45.28-3.72,3.27-1.61,5-2.08,1.36-.37,3.16,0,3-2.28A2.25,2.25,0,0,1,11.3,220.05Z"/><path class="cls-12" d="M153.27,475.07c2.32,4.94-1.73,7.54-4.65,8.79-4.55,1.95-7.69,5.31-11.34,8.19-3.18-.12-3-1.94-2.08-4.11a17.94,17.94,0,0,1,9.73-6.92C148.45,480.05,150.14,476.56,153.27,475.07Z"/><path class="cls-5" d="M11.3,220.05l-2.92-1C3.26,216.65-.77,213.53.12,207c.23-1.63.24-3.29.36-4.94a2.18,2.18,0,0,1,2.24-.38,4.75,4.75,0,0,1,3.08,5.1c-.08,1.77-.47,3.63.38,5.37.49,1.64,1.21,2.83,3.26,3C13.42,215.36,13.21,217.44,11.3,220.05Z"/><path class="cls-13" d="M52.2,252a31,31,0,0,1-19-8.78c-.45-.9.07-1.37.78-1.75,2.88,0,5.83-.75,8.57.8a11.36,11.36,0,0,0,5.54,3.09c1.67.55,3.63.43,4.91,1.88C54.57,249.05,54.43,250.71,52.2,252Z"/><path class="cls-14" d="M2.22,202H.48c4-10.68,10.2-14,20.82-11.09l-3,2c-3.19,1.71-8-.33-10,4.15C7.61,200.37,4.45,200.64,2.22,202Z"/><path class="cls-15" d="M34.46,241.91l-1.3,1.29c-1.15-2.73-4.33-2.77-6.32-4.64a12.44,12.44,0,0,1-3.75-6.42c.23-2.09-1.77-4.29.28-6.3,2.93.68,2.8,3.09,3,5.31,0,1.33.32,2.27,2,2.07a8.52,8.52,0,0,1,3.92.15C36.79,236.21,36.91,236.7,34.46,241.91Z"/><path class="cls-16" d="M23.22,226.3c-.63,1.94,2.46,3.95-.13,5.84l-7.56-9.21c-1.18-4.05,2.85-6.31,3.38-9.77,1.5-1.11,2.82-.36,4.13.4.1.13.3.35.28.38C20.15,218,21,222.16,23.22,226.3Z"/><path class="cls-17" d="M277.31,53c-2.8-.08-4.41,2.58-7,3-.95-5.71,3.08-9.55,5.5-13.9,1.08-1.94,3.58,1.13,5.37-.24A3.1,3.1,0,0,1,283.46,43c0,1.06.48,2.19-.37,3.14L278.17,46C273.79,47.85,277.33,50.66,277.31,53Z"/><path class="cls-9" d="M295.28,18.07c.78-2.55,2.21-4.21,5.1-4.61,1.4-.19,2.78-.7,3.47.76,1.21,2.59-1.45,1.25-2.19,1.9-2.15,1.91-1.67,4-.5,6.14.29.88-.31,1.13-1,1.35a4.44,4.44,0,0,1-1.31-.06c-1.21-.4-2.6-.39-3.52-1.5C295.35,20.72,295.31,19.4,295.28,18.07Z"/><path class="cls-18" d="M31.4,206a4.21,4.21,0,0,0,3.91-4.07l4,3.07a2.16,2.16,0,0,0-2.2,2.27c-1.64.78-1.19,1.94-.66,3.2.77,1.81,1.35,3.65-.6,5.17a3.49,3.49,0,0,1-4.14-.87c-1-1.76-2.35-3.4-2.32-5.6A4.21,4.21,0,0,1,31.4,206Z"/><path class="cls-19" d="M287.07,34.91l7-11c2.12-.22,2.09,1.4,2.37,2.75a21.65,21.65,0,0,1-1.51,7.06c-1.42,1.72-4.63,1.51-4.9,4.52a1.66,1.66,0,0,1-1.82.93C286.9,38,287.15,36.4,287.07,34.91Z"/><path class="cls-20" d="M155.18,303.32c3,1.47,3.37,4.8,4.77,7.3,1,1.87,2.34,3.58,3.28,5.49-1,.82-.51,3.25-2.84,2.73C157.23,314.14,155.1,309.1,155.18,303.32Z"/><path class="cls-21" d="M309.29,52c1.55,2.11,1.34,3.87-1.12,5.07-1.82.88-2,1.59.12,2.22-1.57,1-3.39,1.71-3.21,4.05-.84-3.66-5.07-3.67-6.82-6.34.61-3.13,3.28-2.89,5.35-2.83A7,7,0,0,0,309.29,52Z"/><path class="cls-22" d="M106.23,308.23c1.53-.54,3.48.81,4.73-1,2.22,1,6.75-.1,4.24,4.92-1.28-1.52-2-.87-2.64.62s.24,3.23-1.23,4.4C110.21,313.84,107.88,311.23,106.23,308.23Z"/><path class="cls-23" d="M287.07,34.91c1.86,1,.76,2.9,1.32,4.3.21,3.82-1.78,4.71-5.09,3.84-.83-.15-1.69-.25-2.11-1.15C284.07,40.34,284.72,36.91,287.07,34.91Z"/><path class="cls-24" d="M52.2,252c2.3-2.57,1.06-3.93-1.65-4.74-1.16-.34-2.6.29-3.48-1,1-1.47,2.77-1.86,4.08-2.91a7.89,7.89,0,0,1,5.07,6.76C54.77,250.49,54.22,252.78,52.2,252Z"/><path class="cls-25" d="M136.27,493.05c-1.31,1.73-3.16,2-5.15,2-.59,0-1.48-.07-.76,1a11.91,11.91,0,0,0,.93,1.09l1,1.9c-2.07-.47-4.25-.57-6.08-1.83.84-2.13-1-3-2-4.28a5.93,5.93,0,0,1,5.23-.75C131.61,493.35,134.21,491.12,136.27,493.05Z"/><path class="cls-26" d="M136.27,493.05c-2.22-.72-5,3.05-6.82-.89a18.73,18.73,0,0,0,5.75-4.22c-.12,1.78.19,3.34,2.08,4.11Z"/><path class="cls-27" d="M4.05,230.86c1.41-4.85,1.41-4.85,7.37-1C9.1,231.28,6.68,231.93,4.05,230.86Z"/><path class="cls-11" d="M124.22,492.91c1.09.72,3.19-1,3.55,1.42.19,1.28.42,2.7-1.55,2.86C122.58,495.87,122.26,495.18,124.22,492.91Z"/><path class="cls-28" d="M160.39,318.84c1.53-.31,0-3.74,2.84-2.73.63,1.79,2,3.35,1.83,5.4-1.73.58-3-2.54-4.77-.42C160.33,320.34,160.36,319.59,160.39,318.84Z"/><path class="cls-29" d="M48.34,266.07c-2.85.06-3.58-2.49-5.07-4.09v-1.92C45.6,261.51,49.23,261.88,48.34,266.07Z"/><path class="cls-30" d="M57.26,359.13V358c3,0,2.84,3.15,4.47,4.52.93,1.24,2.79,1.2,3.62,2.59-1,1.38-3.17.23-4.06,1.86C60.36,364.17,57,362.57,57.26,359.13Z"/><path class="cls-31" d="M295.34,27.23c-.12-1.23.06-2.58-1.31-3.31l1.35-1.87c1.38,0,2.9-.54,3.88,1C297.83,24.32,297.62,26.74,295.34,27.23Z"/><path class="cls-32" d="M176.14,410.39c-1.19-2.09-3.27-2-5.26-2.2-1.59-3.61,2.32-4.74,3.26-7.21,1.33-2.2.06-5.13,2-7.16.84-2.43,1.66-4.8-1.59-6.24-2.19-1-1.08-2.35-.25-3.6,1.08-1.61,2.53-3,2.16-5.29-.49-3.06-1.8-3.13-3.92-1.49-1.16,1.06-2.31,1.43-3.4-.09-1.52-1.19-2.09-2.82-.95-4.34,3.47-4.62,1.63-8.95-.31-13.38a5.83,5.83,0,0,1-.47-2.9c.3-2.33-5-22.93-2.57-22.62,1.34.17,4.45,19.73,5.54,21.34,1.61,2.37,1.68,4.83,2,7.46.6,5.24,5,3.61,7.77,3.26,6.62-.83,8-4.87,6.65-11.42-1.72-8.6-7.87-15.74-7.67-24.87,0-1.16-1.07-2-2.08-2.63a10.56,10.56,0,0,1-4.95-8.71c-.06-.66-.27.16-.11-.45,1.08-4.13-.38-7.57-2.81-10.76-.51-.85-1.46-1.68-1.48-2.53-.26-11.55-7.61-18.82-15.34-25.94a5.56,5.56,0,0,1-.95-6.47c1.18-2.56,3-.53,3.64.71,4.78,9.33,12.05,16.95,17.5,25.82,4.81,7.84,10.24,15.32,15.63,22.79a5.72,5.72,0,0,1,.93,5.52,10.62,10.62,0,0,1-1.61,3.62c2-1.26,3.43-3,5.52-1.45a1.07,1.07,0,0,1,.23.94c2.15,4.63.13,5.57-3.65,8.74,2,.58,4.14.47,5.15,2.44.9,1.76.57,3.54.17,5.33a3,3,0,0,0,.29,2.81c3.38-.42,4.11-5.05,7.8-4.9a7,7,0,0,0,1.38-2c.22-1.11-.37-1.4-1.32-1.3-3.19.33-3.41-1.44-2.75-3.86,1.18-3.63,1.08-7.42,1.26-11.17l1.94-.14c1.49-.08,2.08,4.13,4,1.1,1.38-2.2,4.44-4,2.16-7.68-1.87-3.05-2.57-6.81-5.4-9.36-1-1.85-.11-2.43,1.62-2.14a5,5,0,0,1,3.57,3.05c.84.72.29,2.58,1.88,2.59,1.31,0,1.11-1.43,1.58-2.22,2.86-4.81,1.3-10,1.19-15,0-1.35-.43-3.21,1.1-3.34,2-.16,1.73,1.79,1.71,3.26-.11,5.77,2.8,11.3,1.35,17.19-.27,1.08.19,2.4-.91,3.21-4.29,3.14-4.41,5.38-.47,9.34-5.13,1.48-5.82,3.67-3.48,11,.52,2.92-1.6,5.28-1.68,8.07.15,5.28-4.05,9.58-3.31,15-2.08,8.65-.1,17.14,1.22,25.61a36.91,36.91,0,0,1,.53,9.37c-.28,8.1-1.3,16.18-.59,24.29-2.14,4.93,1,9.24,1.6,13.86.41,9.61,5.31,19.21.08,28.84-.5.65-.92,1.34-1.84,1.54-5.69,1.25-5.69,1.26-2,5.41,1,1.3,2.44,2.87,1.44,4.36s-2.72-.08-4.14-.18c-3.45-.24-6.83-1.19-10.38-.48-6.35,1.26-12.47-.9-18.55-2.13-3.24-.66-6.26.12-9.36-.3-1.8-.24-3.74,0-5.18-1.41s-1.83-3-.84-4.52c1.18-1.86,2,1.43,3.53.29-1.62-5.24-.12-10.37,2.44-14.93,4.88-8.71,4.58-18.78,8-27.81.77-2,1.52-4,2.42-6A4.71,4.71,0,0,0,176.14,410.39Z"/><path class="cls-32" d="M278.44,120.52c-7.74,14.31-17.89,27.13-25.69,41.4-4.24,7.74-8.07,15.71-12.32,23.45-6.47,11.8-12.72,23.76-19.94,35.1-3.62,5.69-7.24,12-14.05,15-.95.42-1.52,1.67-2.27,2.53s.1,2.25-.88,3.07c-4.42,1.84-7.61,4.82-8.95,9.58a4.65,4.65,0,0,1-3.68,3.55c-1.74,2.22-4.12,2.94-6.81,3.45-.93.18-5,.1-2.07,3.34,1.62,1.23,3.7,2,4.37,4.2,6.36,7.56,14.14,13.46,22.29,18.93,1.11.75,3.48.91,2.63,2.89-.91,2.14-2.76.9-4.22.26-3.56-1.53-5.79-.72-8,2.83-5.15,8.2-5.62,8.2-11.27.6-8.25-11.13-16.12-22.55-24.23-33.79-3.19-4.41-8.16-6.61-12.64-9.27-4.74-2.82-7.13-7.14-5.53-12.55,1.3-4.38-1.1-8.36-1-12.69.09-5.82.93-10.41,7.07-12.43,3,2.31,3,3.29.55,9-4.06,5.19-3.45,10.26.42,15.24.89,1.38,2,2.65,2.8,4.06,2.09,3.45,2.47,1,3-.89a6.64,6.64,0,0,1,1.45-3.94c4.07-4.58,8.44-8.75,15.09-9.77-1.4-1.12-2.56-.49-3.68-.43a26.54,26.54,0,0,0-3.44.45c-5.3,1-5.95.49-6.36-5-.05-.66-.05-1.33-.06-2,0-3.28.19-6.51,2.12-9.34,1.26-2.21,3.66-1,5.38-1.83,1.6-1.95,1.9-4.49,3-6.65a24.93,24.93,0,0,0,1.07-3.23,10.5,10.5,0,0,1,4.29-7.47c2.76-2,5.27-2.45,6.93.95,1.4,2.85,3.14,2.26,5.21,1.24a7.94,7.94,0,0,1,1.35-.37,11.84,11.84,0,0,1,4.44.07c3.95,1,4.66,3.29,2.11,6.62.61,1.17,1.84,1.46,2.86,2.06,2.67,1.67,2.68,3.28-.29,4.47a15.68,15.68,0,0,1-10.66.38,47.79,47.79,0,0,1-7.55-3.73,10.13,10.13,0,0,0,5.5,3.43c2.29.75,5,.75,6.34,3.3,1.63,2.3.45,4.81.52,7.23.84,5.9-3.64,9.94-5.35,14.95.56-2.13,1.57-3.84,3.88-4.48a3.5,3.5,0,0,1,3.33,1.25,3.39,3.39,0,0,1,.49,1.34c.2,2-1.65,3.54-1.53,5.67,1.73-.36,1.6-2,2.24-3,2-3.34.75-7.63,3.17-10.85.79-2,1.73-3.86,2.65-5.77,1.39-3.21,3.64-5.84,5.79-8.54,2-2.47,3-5.56,5.07-8,1.32-1.46,2.54-3,4-4.37,1.46-1.63,1.79-4,3.51-5.44,2.33-1.7,1.43-5.67,4.71-6.7,3.62-1.2,4.57.92,4.84,3.89a33.42,33.42,0,0,1-4,10.46c-2.05,6.53-8.52,10-11.25,16a24.76,24.76,0,0,0-2.85,4c.86-1.18,1.6-2,2.32-2.9,3.93-5.09,8-10.07,11.75-15.3,4-6.74,6.37-14.2,9.43-21.37,4.19-9.84,12.22-17.32,16.9-26.89.73-1.48,1.81-2.79,2.2-4.44a11,11,0,0,1,2.71-6.18,10,10,0,0,0,2.4-6.76c.08-2.84,1.39-4.52,4.33-4.7,3.28,0,4.61-2.88,6.7-4.64,1.91-1.61,3.26-4.43,6.57-3.33A2.45,2.45,0,0,1,278.44,120.52Z"/><path class="cls-32" d="M211.3,136.05c2.69-3.05,3.38-7.07,5.14-10.57.71-1.42,1.33-3.35,3.59-1.55s3.66.13,4.08-1.63c1.8-7.54,7.69-12.07,12.34-17.53.74-.87,2-1.82,2-2.71-.15-6.14,5.37-7.74,8.62-11.12a30.58,30.58,0,0,1,9.71-7.09c2-.9,4.19-2.94,3.42-5.53-2-6.75,3.29-8.73,7.09-11.85,4.13-3.4,8.81-6.28,11.17-11.41.43-.94.95-1.71,2.18-1.24a58.85,58.85,0,0,0,6.15,4.94c2.94,1.82,3.51,3.19.91,6.08-5.29,5.86-12.16,9.7-18.05,14.77a36.51,36.51,0,0,0-4,3.62c-.73.84-1.67,1.83-.94,3.09.55,1,1.7.82,2.66,1,1.34.27,3.18-1.37,4,.64.69,1.76-.81,3-1.86,4.32-.63.75-1.42,1.42-1.3,2.56-.7,3.09-3.38,4.57-5.38,6.6a8.38,8.38,0,0,1-8,3.66,12.71,12.71,0,0,0-6.59,1.41c-.25.13-.61.24-.73.48s.14.4.52.31c.9-.21,1.77-.51,2.66-.72,4.12-2.52,8.93-.73,13.28-2.11,1.27-.4,2.3,1,1.42,2.66a26,26,0,0,1-6.8,9c-1.73,1.25-4.26,2-2.52,5.09a1.74,1.74,0,0,1-1,2.09c-3.82,1.26-6.48,5.32-11.11,4.63,2.61.51,4.58-.94,6.77-2s5.23-2.29,4.52,2.51c-6.43,8.41-14.07,15.16-24.67,17.81a4.46,4.46,0,0,0-1,0c-1.75.52-4.82-1.58-5.07,1.73-.2,2.71,1.84,4.34,4.82,4.17a3.78,3.78,0,0,1,1.32.57c1.31,1.38,1.12,2.62-.36,3.73a4.46,4.46,0,0,1-2.79.3c-2.86-.34-5.75-.6-8.28-2.21-1.63-1.24-2.69-3.08-4.44-4.19a4.85,4.85,0,0,1-1.27-1.77,12.22,12.22,0,0,1-.53-3.7C214.11,141.66,210.22,139.32,211.3,136.05Z"/><path class="cls-33" d="M72.3,203.11a1.09,1.09,0,0,1,.92-1.21c2.39.92,4.15-.22,5.81-1.75s3.51-1.76,5.31-.13a18.57,18.57,0,0,0,11.12,5c2,.17,2.93,2,4.75,3.33,0-3.57,2.6-5.25,4.48-7.44a3.5,3.5,0,0,1,4-1.16c6.72,1.89,6.73,1.85,8.47-4a23.7,23.7,0,0,0,4.77-1.08c1.69.85,1.68,3.23,3.52,3.91.48.18,1.29.79,1.25-.44,0-.45-.41-.87-.61-1.33a1.32,1.32,0,0,1,.39-1.24,9.14,9.14,0,0,1,4.05-1.09,3.24,3.24,0,0,1,1.32.45c3.39,2.09,6.52,3.63,10-.3,1.73-1.95,3.25.17,3.93,1.86a3.35,3.35,0,0,1-1.52,4.28,8.83,8.83,0,0,0-6.16-.85c-2.88.58.56,1.33.11,2.07-1.41,1.35-3.52,1.69-4.73,3.3-1.81,1-3.38,2.3-5.28,3.07a2.06,2.06,0,0,1-1.31-.38c-2.08-3.08-4.37-5.19-8.07-2-1.12,1-2.52.54-3.84.31-1.88-.33-3.23.17-3.57,2.65,2.55.1,4.62-1.52,6.92-1.08,1.6.3,3.86-.43,4,2.4A4.17,4.17,0,0,1,121,211c-6.54,2.52-13.89,1.09-20.33,4.14-2.41,0-4.71.82-7.07,1.2-1.45-1.56-1.35-4.17-3.52-5.25-.23-1.27.82-1.6,1.43-2.4-1.84.13-3.83,0-4.28,2.65-.38,1.77-.88,3.47.53,5.14,1.61,1.89,3,3.68,5.54,1.17,1.8-1.75,4.27-1.6,6.55-1.57,1.9,0,3.33.78,2.1,3.1-1,3,1.84,1,2.5,1.83,3.2.9,2.63,2.73,1.11,4.72s-3.54,3.32-5.18,5.11c-1.51,1.64,0,1.69,1.06,1.95,4.56.36,8,2.13,8.94,7.06.37,2.51-1.19,4-2.88,5.44a2.51,2.51,0,0,1-1.41.07c-2.11-.42-2.71-4.7-5.6-2.61-2.61,1.89-3.71,5-4.29,8.15-.3,1.58.87,2.4,2.56,2,1.22-.32,2.22-1.57,3.69-.87,1.12,2.72-1.28,3.93-2.44,5.68-1,1.11-2,2.21-3.66,2-1.76-.36-2-2.13-3.07-4,0,1.75.25,2.7.26,3.68-.46,3.17,1.72,5.24,3.14,7.63s2.18,4.47-1.71,5c-2.27-.14-3.76-1.48-5-3.35,1.26,2.49,4.1,3.27,5.38,5.58,1.4,3.84-1.06,4.63-4,5.07a11.91,11.91,0,0,1-7.5-2.09c-.86-.76-2.17-1.63-2-2.66.61-4.11-2.39-4.77-5.1-5.81-2.82-2.21-6.11-.86-9.16-1.19-2.78-.3-5.62.48-8.36-.47-1.55-.31-3.94,0-3.83-2.14s2.43-1.84,4-1.85c3.66,0,8.47.48,10.06-2.61,1.78-3.47-2.07-6.8-4.08-9.94a95.28,95.28,0,0,0-6.65-9.25c-2.39-2.9-5.26-6.27-1.73-10.49.7-.83.93-2.39-.83-2.53-1-.08-1.42,3.39-3.1.91-1.22-1.8-.23-5.35.37-5.55,4-1.32,4.57-6.55,8.77-7.39,3.6,2.66,7.36,5.14,9.45,9.33,3.85,6.15,2.08,11.52-4.57,13.94-2.06.78-1,2.21-.68,3.47,2.11,3.79,5.56,6.56,7.61,10.41.88,1.64,2.4,3,4.22.57.64-.85,1.76-.8,2.78-.57,4.34,1.42,5,1.08,5.47-3a3.88,3.88,0,0,1-.57-2.59c.77-4.64.32-5-4.82-3.4-3.45-.86-5.45-3.22-6.61-6.43-.08-1.47.58-3.21,1.83-3.11,3.36.26,5.72-2.43,8.86-2.51a2.57,2.57,0,0,1,1.68,1.28c.69,1.54.11,3.07-.34,4.78,2-.78,1.46-3.53,3.68-3.6,1.4.37,2.44,3.24,4,1.31,1.28-1.62.68-4.19-.14-6.08-1.19-2.73-2.59,1.07-4,.18-2.92-2.06-5.14-1.21-7.18,1.47-1.4,1.84-3.4,2.88-5.67,1.59s-2-3.18-1-5.18c1.27-2.79-1.2-3.28-2.69-4.36s-4-1.33-3.21-4.12c2.17-2.92,5.9-3.49,9.16-5.79-5.23.83-8.55-2.33-12.41-3.87.46-1.48.76-3.07,2.35-3.87,2.18-1.52,3.53.1,5.1,1.46C74.47,205.58,70.52,205.73,72.3,203.11Z"/><path class="cls-33" d="M56.59,339c-.07-.32-.31-.84-.2-.93,6.73-5.37,5.07-11.57,1.76-17.91-.37-.72-.87-1.89-1.41-1.95-5.05-.53-6.08-5-8.43-8.24A12.84,12.84,0,0,1,50.2,298c1.15-5.88,3.15-7.28,9.63-6.74.64.17,0-1.1,0-.43,0,.12-.07.15-.21.11-4.39-1.43-6.06-5.8-3.58-9.4,3.62-.13,5.42,2.7,7.69,4.75a42,42,0,0,0,4,3.7,4.39,4.39,0,0,0,4.3.32c3.58-1.87,7.38-1.58,11.17-1.63,3-.15,5.54,1.55,8.39,2,3.36.75,6.27,2.8,9.7,3.37a3.89,3.89,0,0,1,1.38.48c1.18,1,3.83.91,3.54,2.76-.2,1.21-2.21,2.25-3.55,3.13-1.86,1.21-4.34,1.44-5.62,3.57-2.18-.69-2.18-.69-2.06-5.45-1.18,2.09-2.14,3.6-4,4-.29.14-.62.21-.91.36-.46.24-1.21,0-1.4.72a1.84,1.84,0,0,1,1.4-.15c1.47.7,3.9-.23,4.19,2.47-1.83,2-5.08-.15-6.76,2.3-1.69,3.27-.32,6.56-.07,9.84-.94,4.93-3.21,8.89-8,11-2.16,1.65-5.58-2.05-7.36,1.71,1.19,1.71,5.36,1.59,3.25,5.23-.87,2.33-1.5,5.22-3.67.6-1.33-2.81-4.06-1.95-6.06-1.13s-4.07,1.47-5.46,3.25a2.29,2.29,0,0,1-2.89,1.49A1.78,1.78,0,0,1,56.59,339Z"/><path class="cls-34" d="M101.24,294.05c-3.69,1-6.64-1.74-10.07-2.05-.87-2.17-.67-4.69-2.14-6.68a7.75,7.75,0,0,1,.07-4.5A9.39,9.39,0,0,0,91,278.18c2.37-.33,5.27-.2,3.29-4.06a4.14,4.14,0,0,1,2.87-2c2.31-.28,2.78-1.19,1.15-3s-3.61-3.4-2.49-6.27a7.77,7.77,0,0,1,5.33-3.6c1.39,0,3,.56,3-1.9,0-1.42,0-3.21,1.86-3.57s2.23,1.55,3.12,2.63a25.24,25.24,0,0,0,1.92,2.38,8.18,8.18,0,0,1,0-5,6.88,6.88,0,0,1,1.3-2.52,13.25,13.25,0,0,1,3-3.19c3.21-1.94,4.09-4.78,3.61-8.27.17-2.43-1-4.69-.86-7.12,0-3.18,3.09-5.7,1.9-9.13,1.63-2.08,2.89-.61,4,.55a49.1,49.1,0,0,0,4.37,3.92c1.47,3.19,1.8,6.46-.62,9.22s-1.53,5.19-.23,8.08c2.11,4.67,2.21,9.58,1,15a4.36,4.36,0,0,1-1.54-5.44,5.32,5.32,0,0,0-3.19-6.92c-2.15-.56-3.29,2.56-3.87,5.22-1,4.59-2.13,8.63,4.51,9.56,1.63.22,2.63,2.56,1.68,3.55-4.08,4.26.23,7.26,1.19,10.74,1.11,2.92,3.85,5.3,2.91,8.88-4.63,1.36-9.25-.22-13.88-.09a6.25,6.25,0,0,1-1.38-3.58c-.33-2-1.5-2.75-3.47-2.4-3.41.6-6.79.05-10.18-.28-6.64.4-7.18,1.5-3.81,7.58-1.45,2-3.69,4.14,1.09,4.92C99.53,292.21,100.35,293.36,101.24,294.05Z"/><path class="cls-35" d="M295.34,27.23c1-1.65.17-5.08,3.92-4.19h0c2.68,1.67,4.64,4.1,6.8,6.31,1.86,1.51,1.27,2.7.05,4.54-2.72,4.1-5.41,8.32-6.66,13.17-.24.91-1.16,2.49.5,2.94a6.59,6.59,0,0,0,3.88-.24c1.13-.45.61-1.76.19-2.6-.91-1.83-.72-3.53,1.33-3.9,2.29-.42,1.71,1.83,2.11,3.13.56,1.88,1.21,3.74,1.83,5.61-.17,3-1.09,4.81-4.65,3.35-2.39-1-4.43.4-6.38,1.65-5.52.48-8-4.18-11.62-6.92a26.69,26.69,0,0,1-3.55-4c-.75-1.07-.9-2.09.21-3,2.14-.69,5.15-.22,5.09-3.84l.87-1.17c.21-3.1,3.77-2.16,4.94-4.1C294.57,31.7,294.05,29.31,295.34,27.23Z"/><path class="cls-2" d="M162.09,216.71c.08,1.48.1,3,.24,4.45s.72,3,2.41,2c3-1.78,6.62-.28,9.56-2.09.87-.53,1.89-.82,2.51.42.46.91-.1,1.6-.7,2.16-.83.79-1.75,2.09-2.65,2.1-6.17.07-9.14,5-13.19,8.3-1.56-1.24-2.65,1-4.1.56A1.93,1.93,0,0,1,155,234c-.2-1.73,1-2.74,2.17-3.51,2.66-1.68.8-2.69-.44-3.84.2-3.68,0-7.3-1.5-10.73a16.35,16.35,0,0,0-2-6.2c0-.22-.07-.43-.11-.65-2.28-2.89-2.87-5.08,1.78-6.21a3.49,3.49,0,0,0,2.44-3.82c-.48-1-1.52-1.2-2.36-1.68-6.59-3.73-7.23-6.67-2.92-13.44v0c3.15-.26,3.75,4.48,7.18,3.67,2.72.75,2.43,2.91,2.47,5,.05,2.7,1.27,2,2.58.73,3.54-3,6.17-6.49,7-11.17a2.82,2.82,0,0,1,1.82-2.1c1.38-.81,2.24-.34,2.48,1.15.46,2.86.32,5.63-1.69,8a9.91,9.91,0,0,0-2.47,7.34,14.92,14.92,0,0,1-2.41,6.33c-1.51,3-3.72-.67-5.41.59-2.18,4.09-3.92,8.24-2.67,13,.12.45-.28,1-.2,1.51A1.29,1.29,0,0,1,162.09,216.71Z"/><path class="cls-36" d="M278.44,120.52c-.43-.92-.85-1.85-1.28-2.77a27.26,27.26,0,0,1,4.1-13.94c.38-4.39,4.13-7.39,4.79-11.67.18-1.73,1.27-3.28,1.33-5.47-2.29,1.81-1.44,4.72-3.31,6.23-3.68,1.53-3.5-.61-2.94-3.1,2.08-2.71,2-6.31,5.12-8.93,3.52-3,6.68-1.71,10.09-1.65,1.44,0,1.75,1,1.65,2.43a37.46,37.46,0,0,1-6.41,18.15C287.11,106.63,281.75,113,278.44,120.52Z"/><path class="cls-32" d="M144.27,200.83c.44-2.12,2.07-4.44-1-6-3.26,4.81-9.38,4.93-12,.21-.52-2.19-2.12-4.1-1.74-6.54.14-.64.36-1.27.49-1.91.44-1.89-2.59-3.42-.58-5.46,2.6-1.22,4.56.71,6.41,1.73,4.31,2.38,9.24-.25,13.42,2.12.51.47,1,1.26.68,1.7-3,3.87-.34,6.37,2,9,1,1.15,2.64,2.19,1.22,4.1C150.46,202.32,147.54,203.12,144.27,200.83Z"/><path class="cls-32" d="M128.33,228c-2.52.29-4-1.07-5.16-3.11-.62-1.08-1.39-2.63-2.9-.75-1.23,6-4.81,10.75-8.39,15.48a1.24,1.24,0,0,1-1.72.37c-5.31.31-2.54-3-2.16-5.18-2-1.58-6,4-6.76-1.85-.17-3.09,3.35-3.52,4.21-5.86,2.88-4.69,8.57-5,12.49-8,2.44-1.46,4.9-3,7.12.32,1.62,2.3,3.08,4.66,3.08,7.62Z"/><path class="cls-37" d="M216.1,354.09c.78,12.91-1,25.74-.75,38.68-1.34-8.63-6.67-16.41-5-25.44.82-4.39,1.94-8.76.9-13.28-.64-3.45-.69-6.75,2.18-9.38,2.23-.39,2.26,1.08,2.34,2.65C215.87,349.58,215.38,351.87,216.1,354.09Z"/><path class="cls-36" d="M91.44,341.43c-6.08,4.39-7.6,13.09-15.41,16.21.46-8.48,2.11-16.33,8-22.74C91.16,334.62,92,335.31,91.44,341.43Z"/><path class="cls-38" d="M128.14,227c-1.28-2.37-2.55-4.75-3.82-7.12,1.28-2.53-.57-2.73-2.21-2.76-1.41,0-2.66,1.08-4.15,1a3.3,3.3,0,0,1-3-1.36c-.53-2.12.88-3,2.46-3.63a6.52,6.52,0,0,0,3.73-3l1-.25a4.53,4.53,0,0,1,3.74-1.23c.86,0,2.32,1.89,2.32-.75,1.15-1.89,2.67-3.11,5-2.84,2.44-2.14,5.29-1,8-1,.86.35,2.17.58.94,1.84-.35.35-1.28.15-1.94.19-7,.42-7.23.43-6.9,7.08.17,3.27-1.71,5.23-3.17,7.53C129,222.65,127.8,224.58,128.14,227Z"/><path class="cls-39" d="M106.23,308.23c3.33,2,6,4.45,5.1,8.92-.71,6.91-7,6.69-11.37,8.82l.15.09c-.75-4.45.62-8.69,1.29-13,1.16-1.83-.19-4.05.91-5.89C103.88,306.53,105.05,307.41,106.23,308.23Z"/><path class="cls-38" d="M208.24,420c-1.11-8.44,0-16.71,1.91-24.91.07,3.11-.05,6.18,2.76,8.53a4.69,4.69,0,0,1,1.11,3.7c-1,7.39.7,14.73.15,22.09,0,.59-.58,1.15-.88,1.73-3.67.87-3-2.42-3.93-4.15C208.26,424.78,210,422.07,208.24,420Z"/><path class="cls-40" d="M213.28,264c4.63,1.32,2.16-3.34,4.56-5.07,1.07,6.3.55,12.19.27,18.07-.46,1.9-1.16,3.12-3.05,1.11-1.46-1.89-.51-3.7,0-5.61.41-1.41.74-3.43-1.25-3.67s-1.93,1.92-2.29,3.28c-.65,2.42,1.58,4.77.35,7.28-2,.35-3.49-1-5-1.86s-3.39-2.31.45-2.73c2.77-.3,2-2.62,2-4.3-.13-3.67-.38-7.31,2.19-10.39C214.07,260.52,211.8,263.14,213.28,264Z"/><path class="cls-41" d="M208.21,244.07c1.24,5,2.57,10.11-1.06,14.77a9.34,9.34,0,0,0-2,6.48c.08,1.45.11,3.27-1.56,3.83-1.29.43-2.57-.51-3.52-1.48-1.17-1.2-1.59-3.27-.62-4.09,3.13-2.63,2.86-6.58,4.37-9.8.56-1.19,2.53-2.33,1.24-3.86s-3.26-1.53-5.28-.61l6.34-5.37A1.5,1.5,0,0,1,208.21,244.07Z"/><path class="cls-42" d="M209.44,311c-1.82.24-2.83-4.19-5.19-.91-1.3-1.05-.88-3.11-2.43-4.1-.6-.38-1.14-1.62.05-1.88,5.15-1.12,1.83-4.54,1.82-6.88,0-1.73-2.53-4.3.33-4.91,2.67-.56,6.79.54,7.07,3.79C211.5,301,212.72,306.34,209.44,311Z"/><path class="cls-43" d="M194.19,351.08c-1.53-1.58-1-3.34-.41-5.07,1.24-3.55.49-5.7-3.73-5.82-.9,0-2.47,1.14-2.74-.89-.19-1.4.6-2,1.94-2.33,3.65-.88,4.18-3.69,4-6.87,1.08,1.28,2.24,3,3.53.34a6,6,0,0,1,3.47-3.32c2.09,1,2.08,2.61,1.44,4.49s-1.8,3.45-2.42,5.29a5.26,5.26,0,0,0,.11,4.22c.68,1.74,1.68,3.43-1.71,4.28C196,345.82,196.6,349.83,194.19,351.08Z"/><path class="cls-33" d="M97.47,287.13c-1.92-1.53-5.27-2.65-3.57-5.82,1.42-2.64,4.11-4.2,7.39-2.27,1.78.4,2.9,1.69,4,3,1.88,1.35,4.85,1.16,6,4.77A69.88,69.88,0,0,0,97.47,287.13Z"/><path class="cls-2" d="M61,363.29,57.26,358l.21-5c.27-2.64,1.18-5.15,1.45-7.78.1-2.44.48-4.69,3.49-5.14h5.11c-2.81,7.19-7.88,13.61-5,21.61C62.69,362.93,62.16,363.39,61,363.29Z"/><path class="cls-44" d="M91.44,341.43c.74-5.87-4.15-5.3-7.46-6.53,3.16-.39,3.42-4,6.11-5.32,3.27-1.63,6.87-1.87,10-3.52L100,326c1.77,2.86.07,5.22-2,6.16C93.66,334,91.68,337,91.44,341.43Z"/><path class="cls-4" d="M72.92,367.74c5.39-3.8,11.26-6.5,14.54-12.3a1.21,1.21,0,0,1,2.08-.13A1.82,1.82,0,0,1,89.6,358c-3,3.52-5.11,7.8-8.81,10.81C77.65,371.34,75.52,369.18,72.92,367.74Z"/><path class="cls-45" d="M247.22,105.84a6.72,6.72,0,0,1,5.92-1.73c3.95.59,7-.66,9.17-4,1.35,1.28,2.31.39,3.16-.62,1.12-1.33,2-2.86,3.87-3.34.87-.34,1.59-1.68,2.56-1,1.17.84.06,1.52-.52,2.32-2.23,3.09-3,7.11-6.06,9.7-.24-.94-.78-2.52-1.63-1.88-4.16,3.15-9.53-.46-13.57,2.68C249.51,106.75,247.72,107.18,247.22,105.84Z"/><path class="cls-46" d="M287.28,92.06c.08,4.7-4.65,7.44-4.87,12-1.14-1.3-2-2.84-4.18-1.11-1.62,1.28-3.13,2.83-5.13,3.63a2,2,0,0,1-1.92-.59l9.95-16.2c.28,1.87.39,4,3.21,2.26,1.43,1.72-.14,3-.5,4.26C285.39,95.44,284.15,92.05,287.28,92.06Z"/><path class="cls-47" d="M254.39,128.3c.06-4.22-2.44-2-3.62-1.16-2.66,1.94-5.55,2-8.57,1.85-1-.06-2.25-.23-2.19-1.46s1.24-1.42,2.26-1c5.26,2.38,8.53-2.31,12-4.26,3.31-1.85-1.22-3-3-3.92,2.19-3,5.28-.47,7.22-2.24L257.08,119c-.38.78-.52,1.8.32,2.1,4,1.44,3.27,3.71,1.31,6.31C257.39,128.31,256.06,129.12,254.39,128.3Z"/><path class="cls-48" d="M181.5,261.92c-1.34-.5-3.29-.66-3.47-2.23-.24-2,2.22-1.33,3.22-2.26,2.65-2.49,6.73-.8,9.41-3.22a2.81,2.81,0,0,0,0,.49c.23,2.56,4.92,1.05,4.06,4.13-.54,1.94-3.8,1.72-4.52,4-4,2.15-5.08-.51-5.79-3.66C183,259.8,182.69,261.32,181.5,261.92Z"/><path class="cls-49" d="M105.32,282c-2.11,0-3.07-1.47-4-3,.15-.84.35-1.82,1.46-1,2.26,1.7,4.81,1.18,7.19.84,6.13-.89,6.11-1,6.29,4.93,0,.66.06,1.32.08,2C112.81,284.09,110.39,279.2,105.32,282Z"/><path class="cls-50" d="M301.51,73c-.27,2.56-.51,4.79-3.21,3.44-2.25-1.12-6.65,1.65-6.66-2.7,0-2.13,2.78-4.24,6.08-3.53C299.79,70.64,302.51,70,301.51,73Z"/><path class="cls-51" d="M153.19,199.82a16.91,16.91,0,0,0-5.86-7.64c-1.94-1.38-3-2.44.32-3.4,1.77-.52,1.71-2.23,1.62-3.77l2.88-1.13c-1,2.31-.37,4.85-1.48,7.33s2.26,3,3.68,4.44c1.05,1,4.52.06,3.08,3.35C155.86,198.43,154.56,199.32,153.19,199.82Z"/><path class="cls-4" d="M271.18,106l2.06,0c.22,5.67-6.28,13.83-12.29,15.43a1.55,1.55,0,0,1-.77-2.53Z"/><path class="cls-52" d="M75.27,336c-.27-1.18.15-2.73-1.84-2.89-1.71-.13-4.55-.17-3.44-2.56.89-1.9,3.11-4.37,6.32-2.86,1,.48,2,.91,3.07,1.37C78.79,331.88,77,333.93,75.27,336Z"/><path class="cls-29" d="M285.42,75.36c-3.85,3.78-7,8.71-14,8.73C275.36,79.43,279.44,76,285.42,75.36Z"/><path class="cls-53" d="M66.37,358c-.5-5.62,1.79-10.29,5.07-14.66.58,5-2.32,9.1-3.28,13.68C67.7,357.62,67.46,358.58,66.37,358Z"/><path class="cls-54" d="M94.25,306c-1.24-1.83-3.74-.09-5-1.78.28-.8,1.6-1.17,1-2.35.58-1.15,3.08-.44,2.62-2.38-.59-2.5.76-2.63,2.41-2.18s2.28,1.76,1.57,3.5c-.45,1.08-2.88,2.29.17,3.2C96.54,305.29,95.39,305.64,94.25,306Z"/><path class="cls-55" d="M216.1,354.09c-1.39-1.84-1-4-1.16-6.1-.13-1.25.26-2.74-1.67-2.95a5.37,5.37,0,0,1-2.88-.89l3-7.13C217.49,342.2,215.31,348.38,216.1,354.09Z"/><path class="cls-56" d="M176.14,393.82c0,2.58.75,5.36-2,7.16-.58-3.5-2.12-1.9-3.58-.68-1.11.93-2.6,1.65-3.39.25-.94-1.66.61-3.07,2-3.24C172,397,173.72,394.75,176.14,393.82Z"/><path class="cls-57" d="M150.27,219.05c1.17-2.94,3.5-5.76.92-9.07a1.46,1.46,0,0,1,2-.95l0-.06c1.66,2.8,1.37,6.17,2.67,9.07a15.11,15.11,0,0,1-1.27,7.79c-1.09.91-1.9.23-2.7-.48C150.59,223.47,151.38,221,150.27,219.05Z"/><path class="cls-58" d="M295,69c-.9.25-1.53-.07-1.73-.73a5.19,5.19,0,0,1,.82-4.22,1.93,1.93,0,0,1,2.49-1c1.19.47,2.2,1.43,3.4,1.82s2.93.2,2.25,2.21c-.75,2.19-1.71.16-2.59,0C297.53,66.56,296.38,68.33,295,69Z"/><path class="cls-49" d="M207.37,469c-.29-.14-.77-.22-.85-.44-.84-2.16-5.44-.76-4.37-3.07.84-1.81,3.61-5.11,7.31-2.77.32.2,1.17-.43,1.78-.67.19,1.57-.41,2.73-2,2.77C205.44,464.91,207.21,467.27,207.37,469Z"/><path class="cls-26" d="M181.5,261.92c-.3-1.82.66-3.15,1.76-4.37a2.41,2.41,0,0,1,3.14-.5c1.34.81,0,1.5-.26,2.31-1,3.75,1.12,4.1,4,3.48-.6,2-3.18.71-4,2.36A13.12,13.12,0,0,1,181.5,261.92Z"/><path class="cls-59" d="M210.39,344.15c1.5-1.43,2.23-.39,2.88.89-.67,3-1.35,6-2,9-1-.43-1.83-.62-1.88,1s.48,3.58-1,5.05C207.14,354.52,210.62,349.57,210.39,344.15Z"/><path class="cls-60" d="M208.24,420c3.61-.78,1.83,2.07,2.13,3.34.65,2.74-1.09,6.32,2.92,7.8l-2.13,2.1C208.48,429.16,206.22,425,208.24,420Z"/><path class="cls-28" d="M169.17,307.09c1.79,2.13,3.47,4.39,8.05,4.52-3.36,2.34-5.87,3.59-5.13,6.69A19.19,19.19,0,0,1,169.17,307.09Z"/><path class="cls-61" d="M89.41,309.26c1.4-.09,3.54-1,3.7,1.07.19,2.52-1.37,4.62-3.76,5.84-1.58.71-2.57.05-2.84-1.5C86.07,312.18,86.78,310.17,89.41,309.26Z"/><path class="cls-62" d="M198.12,337a6.17,6.17,0,0,1,1.84-4.35c2-1.77,1.69-3.63.28-5.56l1.33-1c3,4,.59,7.85-.4,11.73C199.79,338.9,198.59,339.24,198.12,337Z"/><path class="cls-63" d="M260.18,118.94c.08.86.14,1.73,1.11,2.12-.18,3,3.69,3.3,4,6-2.93-.21-4.82.61-4.06,4.08-2.49-.34-2.81-2.21-3-4.19.73-1.93,2.09-3.87-1.11-5.12-1.17-.46-1.18-1.84,0-2.8C258.2,122.67,259.14,118.79,260.18,118.94Z"/><path class="cls-64" d="M280.62,53.82l-2.18,1.24c-.35-.69-.14-1.7-1.13-2a5.32,5.32,0,0,1-1.46-8.11c1.38-1.49,1.76.27,2.32,1.11C276.79,49.31,278.88,51.51,280.62,53.82Z"/><path class="cls-65" d="M130.19,285.9c-.08-3.25-3.84-5.29-2.91-8.88,1.19,1.8,4.93,1.43,4,5.3-.36,1.4,3.31-.48,3.74,2.21C133.74,285.91,131.58,284.78,130.19,285.9Z"/><path class="cls-66" d="M115.87,291.71c-4.62,2.94-8.57.56-13.47-1.41C107.61,289.39,111.68,291.37,115.87,291.71Z"/><path class="cls-66" d="M211,238.44c2.27,1.31,6.78.64,4.61,5.43-.37.81-1,1.91-2.16,1.59a1.86,1.86,0,0,1-1.17-2A8.17,8.17,0,0,0,211,238.44Z"/><path class="cls-67" d="M215.06,278.14c1.42.71,2.27-.09,3.05-1.11-.64,2.88,2.28,4.7,2.2,7.42,0,1.31.28,3.16-1.4,3.24s-2.06-1.8-1.49-3C218.88,281.56,215.67,280.37,215.06,278.14Z"/><path class="cls-22" d="M66.37,358l1.79-1c-1.66,2.46.82,6.35-2.81,8.12-1.55-.36-3.64.52-4.32-1.86l1.44-1.54C66.15,363,66.29,360.52,66.37,358Z"/><path class="cls-68" d="M62.41,340.14c-2.59,1.25-2,3.7-2.18,5.84-1.57,2.25-3,2-3.72-.5a8.34,8.34,0,0,1,.62-6.25c1.11.64,1.93-.54,2.95-.47C60.54,339.76,61.58,339.77,62.41,340.14Z"/><path class="cls-69" d="M122.54,295.34c-3.15-.48-2-2.76-2.7-4-.88-1.59,1.26-1.84,2.33-2.1s2.87.6,2.46,1.49C123.92,292.26,122.71,293.69,122.54,295.34Z"/><path class="cls-70" d="M269.34,96.1q-2,2.73-4,5.45c-.6.81-1.4,1.62-2.42,1.15s-.58-1.71-.64-2.64l5.82-5.21Z"/><path class="cls-71" d="M89.41,309.26c-1.06,2.29-4.67,4.57-.06,6.91l-1.93,1.95c-2.27-3.29-4.14-6.58.07-9.84Z"/><path class="cls-32" d="M141.27,204c-2.45,2-5.35.57-8,1,.26-3.3,2.7-3,4.95-3A5.67,5.67,0,0,1,141.27,204Z"/><path class="cls-72" d="M193,329.16c-3.15-.24-4.54,2.07-5.88,5.47-1.58-4.13-.71-6.19,2-7.64C189.48,329.38,192.45,327.09,193,329.16Z"/><path class="cls-44" d="M93.43,326.35c-3.11-3-2.39-5.35,1.53-8.05C93.46,321.25,96.09,324,93.43,326.35Z"/><path class="cls-73" d="M157.2,490.25c3.22-1.37,6.35-2.48,7.32,2.57C161.65,493.19,158.92,493.17,157.2,490.25Z"/><path class="cls-43" d="M133.25,290.61a2.74,2.74,0,0,1-2.75,2.49c-1.1.12-2.76.43-3-1-.3-2.27,2.14-2.13,3.44-2.83C132,288.75,132.71,289.84,133.25,290.61Z"/><path class="cls-22" d="M102.31,307.17c1.38,2.23,2.57,4.42-.91,5.89C98.83,310.65,98.14,308.54,102.31,307.17Z"/><path class="cls-72" d="M208.21,244.07l-2.09-.13c0-1.85-1.09-2.7-2.83-2.86,0-1.11,0-2.23.88-3.07C204.45,240.74,209.91,240,208.21,244.07Z"/><path class="cls-74" d="M169.14,377.11a4.32,4.32,0,0,0,3.4.09c-.11.47-.24.93-.34,1.4-.3,1.52-.13,3.87-2.21,3.6-1.91-.26-.47-2.38-.71-3.65A13.76,13.76,0,0,1,169.14,377.11Z"/><path class="cls-75" d="M213.28,264c-1.64-.82-.44-2.94-1.79-3.89.83-1.53.29-3.68,2.74-5.15C215.12,258.35,212.39,261.11,213.28,264Z"/><path class="cls-76" d="M140.33,289.11c-.05.88-.36,1.75-1.34,1.67-1.33-.1-1.85-1.15-1.94-2.38-.07-.89.15-1.66,1.27-1.56A2,2,0,0,1,140.33,289.11Z"/><path class="cls-39" d="M214.21,144.91l.07,3.89c-.88,1.51-2.29,2.68-2.89,4.37-.92.86-.61,2.24-1.31,3.2-2.1-.12-2.74,1.4-3.33,3-1,1.83-2,3.64-3.3,5.71,2.38-1.18,2.25-3.68,3.65-5.12,1.21-.35,1.8.5,2.27,1.32,2.1,3.69,5.09,4.07,8.66,2.44,1.61-.22,2.65.78,3.73,1.7,1.47,1.8,3.81,2.67,5,4.77a2.26,2.26,0,0,1-.32,2c-3.84-.48-4,2-3.83,4.75a3.91,3.91,0,0,0-.59,4.28c-.17,2-1.29,3.8-.76,5.86l-3,6c-1.19-1-1.3-2.5-1.64-3.87-.65-3.31-.13-6.76-.52-10.74-3.26,2.2,2,6-2.66,6.78-2-1.22-4.34,0-6.37-1-.79-2.05-1.78-3.91-4.17-4.46-.35-3.59,2.12-4.4,4.86-4.86,1.92-.33,4-.08,5.44-1.82a13.42,13.42,0,0,0,1.33-1.39c-.57.35-.86,1-1.37,1.38-1.54.74-3.12.05-4.68.21-1.37,0-2.69.38-4.05.41a3.45,3.45,0,0,1-1.27-.37c-1-1.61-2.87-1.63-4.36-2.36a4,4,0,0,1-1-3.84c1-2,1.21-4.26,2.56-6.13.91-1.25.56-2.41-1-3-.32-1.51-3-2.32-1.7-4.11,1.05-1.43,2.24.5,3.41.76,4.23.94,2.83-3.11,4.23-4.65a1.6,1.6,0,0,1,1.18-.47c1.71.2,1.83-.86,1.79-2.16-.06-2.13-.53-4.32.74-6.29C211.9,140.71,211.59,144.85,214.21,144.91Z"/><path class="cls-32" d="M117.25,196.16a6.2,6.2,0,0,1,0,1.49c-.41,1.71,2.2,4.38,0,4.77s-4.76,1.2-7.09,0c-1.3-.7-2.73-3.46-3.94-1.36-1.39,2.42-5.55,3.11-4.53,7,.27,1,.78,2.08-.28,2.68-1.4.78-2.26-.4-2.65-1.46-1.83-5-7.45-1.76-10.2-4.82-.7-.79-2.35-.77-3-1.58-2.6-3.36-4.81-3.79-7.66-.13-1.38,1.76-3.69,2.77-4.76-.75C76,197.52,79,193.78,85.09,196c1.15.42,2.61,0,3.93-.07C98.44,195.45,107.85,195,117.25,196.16Z"/><path class="cls-39" d="M56.7,281.87c-1.78,3.28,0,7.27,5.12,9.82-4.73.91-10.53-.5-10.55,6.34-3.24-.66-2.43-4.78-5.08-5.95-3.22-4.48-2.64-9.14-.27-13.63.7-1.31,1.11-2.29.48-3.58-1-2-5.11-4.77,1.38-4.88.86,0,.93-2.58.42-4.05,4.94,4.76,10.67,7.12,17.66,6.07a30.76,30.76,0,0,1,5.42.1,2.54,2.54,0,0,0,1.89.34c1.58-.19,2.64.43,2.66,2.11s-1.2,2.26-2.57,2.56a13,13,0,0,1-5.44.07c-3.24-.7-6.23.41-9.3,1-3.34.38-4.89-2.32-7-4.22-.56,1,.7,1.9.06,2.81-.4.44-1,.59-1.33,1.17.53-.11.63-.73,1.1-.94A7,7,0,0,1,56.7,281.87Z"/><path class="cls-58" d="M57,277.17c4.37-1.31,8.71-2.35,13.38-1.26,1.41.33,4.13,1.23,4.55-1.32.38-2.31-2.88-.89-3.62-2.48,1.36-.89,4.33-.27,3.78-2.85-.39-1.83-2.78-1.1-4.35-1.27-3.83-.41-7.8.95-11.51-.92,6.35.43,12.8-1.14,19.07,1a7.91,7.91,0,0,1,3.35,6.62c-.29,1-1,2,.64,2.66.88.34,1.68,1,.78,2.16-.42.27-.92.37-1.33.62-1.36.83.15.73.34.78,2.79.74,3.84,2.33,2.58,5.11-2,1.54-5.15-2.15-6.72,1.45,1.63,1.24,4.78-.73,5.5,2.54-3.8.35-7.68-.47-11.36,1.77-1.39.84-4.15,1.33-5.65-1.06.73-.75,1.91-.54,2.94-1.5C63.08,287.27,59.92,282.33,57,277.17Z"/><path class="cls-61" d="M117.25,196.16,89,195.94c5.48-1.8,11.13-.59,16.69-.85,4.6-.21,9.22,0,14.87,0-3.82-4.08-8.47-2.62-12.16-4.72,1.83-2.59,5.58-2,7.3-4.48-.07-1.68-3.39-.65-2.54-2.65s2.24-.18,3.35.15a1.88,1.88,0,0,0,2.53-.81c2.12-3.7,5-3.06,8-1.34,1.59,1.14,1.49,3,1.91,4.59.08,2.59-1.09,3.81-3.54,3.56,1.89,1.29,2.92-2.09,4.87-1.26-.86,2.49,3.18,4.3,1,7h-.92a3.15,3.15,0,0,0-4.07.94v.12c-1.62.71-2.85-.06-4-1.06A9.62,9.62,0,0,1,117.25,196.16Z"/><path class="cls-39" d="M155.2,179c.2-1.8,1.61-2.3,3-2.9,4.56-1.93,9-4.07,12.44-7.8.92-1,2-2.7,3.65-1.44s1.75,4,.8,5c-2.46,2.62-3.35,6.57-6.91,8.2-.8.85-1.58.49-2.36,0-2.56-.8-1.82,1.71-2.51,2.65-1.41,1.93-2,4.62-5,4.87C153.41,186.05,154.7,182.35,155.2,179Z"/><path class="cls-49" d="M170.36,197.2c-1.22-4.64,2-7.69,3.94-11.24,1.15-2.11,2.64-4.59-1.09-6,1.36-1.38,3-2.56,3.08-4.79.05-1.22.56-2.62,2-2.21,1.76.51,1,2.1.59,3.26a21.31,21.31,0,0,1-1.64,3c-1.46,2.51-1.13,5.65,1,6.56,2.72,1.16,1.91-2.58,3-3.92l.92-1.12c1.41.75.93,2.64,2.14,3.55,1.46-.29,1.4-1.94,2.36-2.68a3.26,3.26,0,0,1,1.8-1c2.28.65,1.66,3.07,2.75,4.45.48.75,1.22,1.35,1.32,2.31-.69,1.69-2.39,1.3-3.65,1.85-2.29,1,.75,1,.41,1.76-2.48,1.72-5,4.14-6.24-1.21-.29-1.29-1.47-2.87-2.72-2.36-2.51,1-4.89,2.65-5.95,5.37-.39,1,0,2.32-.94,3.21-1.37-1.24-1.33.41-1.86.91A1.14,1.14,0,0,1,170.36,197.2Z"/><path class="cls-4" d="M32.05,214c1,1.63,2.57.63,3.86.92,1.58-.67.88-4.61,4.13-2.89l1.28,1.84c2.07,6.42-3.7,5.31-6.64,6.91a6.74,6.74,0,0,1-2.4.25c-3.57-2.42-6.67-5.27-8.36-9.37a4.46,4.46,0,0,1,1.17-4.93l-.13.13c2.24-1.4,1.78-3.66,1.82-5.74,0-2.46,1-3.41,3.38-2.1,1,2.22-.8,4.94,1.24,7a2.73,2.73,0,0,1-1.1,3C27.88,211.75,31.9,212.21,32.05,214Z"/><path class="cls-77" d="M188.41,180.76,187,182c-2.55-3.73-2.31-5.33,1.23-7.94,1.88,1.77,3.41,2.2,4-1,.32-1.59.73-3.17,1.1-4.75,2.45-.61,2.75,1.34,2.92,2.83.38,3.26,2,.37,2.9.7,1.06,1.4,1.61,4.45,4.09,1.26l1.16.08c1.55.79,2.84.64,3.73-1a7.44,7.44,0,0,1,5.11.92h0c1.34,3.6-1.46,3-3.23,3-3.14,0-6.09.08-6.87,4a7.09,7.09,0,0,1-.4,5.12c-3.22,2.91-4,.73-4.83-2.14-1.26-4.54-3.27-5.71-7.86-4.9C189.4,178.91,189.25,180.06,188.41,180.76Z"/><path class="cls-32" d="M67,210c2.44.1,4.84-.09,6.81,2,2.21,2.37,4.92.32,8.08.19-2.78,5.06-8.08,5.38-11.82,7.94-3.1-.55-6.16-1.16-6.76-5.06C64.19,213.08,65,211,67,210Z"/><path class="cls-39" d="M188.21,174c-1.4,2.49-2.86,5-1.23,7.94-1.54,1.26.63,5.21-2.75,4.7-3.19-.47-1.48-3.82-2.08-5.85a150.47,150.47,0,0,1,7.18-19.41C191.94,166.45,187.69,170,188.21,174Z"/><path class="cls-39" d="M51.15,243.31c.2,3.16-2.08,2.84-4.08,2.91-2-.44-4-.94-4.86-3.08-.49-2.35,1-4.22,1.53-6.33,1.48-1.59,2.44-4.28,5.48-2.63C51.56,236.86,48.92,240.6,51.15,243.31Z"/><path class="cls-16" d="M63.33,215c1.77,2.33,4.6,3.24,6.76,5.06,2.43,1.55,4.89,3.06,7.28,4.67,1.63,1.1,2.27,2.3-.1,3.34-3.28,2-5-.48-6.84-2.44-1.68-4.07-6.8-5.15-8.22-9.44Z"/><path class="cls-78" d="M49.22,234.18c-2.53-.42-3.23,2.11-4.92,3-1.1,1.28-.19,4.72-3.28,3.74-2.9-.91-3.18-3.45-2.21-6.1a7.72,7.72,0,0,1,1.29-2.1,4.14,4.14,0,0,1,1.83-1.3,5.59,5.59,0,0,1,1.41-.15c2,.18,2.54-1,2.64-2.7a29.59,29.59,0,0,1,.28-4.89,5.63,5.63,0,0,1,1-2.68C49.76,225.14,47,230,49.22,234.18Z"/><path class="cls-7" d="M199.16,171.86c-.26.57-.56,1.13-.78,1.72-.36.93.2,2.7-1.57,2.35-1.14-.22-1.45-1.57-1.52-2.78-.1-1.83.72-4.06-1.93-4.89-.52-2.51.3-4.83.94-7.2.84-3.1,2.39-2.26,4.14-.95-1.58,2.25-1.32,4.64-.53,7.06.48,1.29,1,2.58,1.45,3.86A.5.5,0,0,1,199.16,171.86Z"/><path class="cls-2" d="M42.41,221a1.46,1.46,0,0,1,.68.17c.83.54.63,1.32.49,2.09-.15,2.39.06,4.92-2.42,6.43-2.19.82-4.3.9-6.25-.62-1.38-1.62-1.8-3.3-.31-5.09a5,5,0,0,1,1.25-.9C38.13,222.69,39.5,219.37,42.41,221Z"/><path class="cls-32" d="M209.3,141c.11,2.59.11,5.19.4,7.76.13,1.08.27,1.84-.8,2.45-1.43.8-2.09,0-2.64-1.14-.86-2.28-2.6-4.43-1-7.07.27-1.87,1.81-2.74,3.05-3.86C210,138.94,209.81,139.86,209.3,141Z"/><path class="cls-32" d="M197.91,167.17c-4.35-2.69-2.58-4.92.53-7.06.29-.69.58-1.38.86-2.07,1-.18,2.25-3.56,2.82,0C202.72,161.73,200.29,164.55,197.91,167.17Z"/><path class="cls-79" d="M100.26,187.19c1.5-.14,3.5-.38,3.56,1.51.05,1.55-1.92,2.2-3.44,2.21-4.11,0-8.19,0-12.22,1.13-.87.25-2.63.61-2.53-1.24.07-1.23,1.17-1.87,2.51-1.89,2.07,0,4.29.84,6.1-.94C96.31,188.26,98.62,190.33,100.26,187.19Z"/><path class="cls-69" d="M166.15,179l2,1c-1.95,3.71-4,7.36-5.81,11.16-.67,1.45-1,3.62,2,2.12-.18,1.26-.84,2.4-2.11,2.25-1.51-.18-1.41-1.71-1.19-2.78a3.72,3.72,0,0,0-2-4.47,2.41,2.41,0,0,1,.86-1C162.84,185.16,162.88,180.87,166.15,179Z"/><path class="cls-80" d="M209.3,141l-1-1.86a5.17,5.17,0,0,1,3-3c1.17,2.89,4.29,5.14,2.91,8.86-1.35,1.13-2.6,2.13-3.6-.44C210.16,143.3,210.59,141.8,209.3,141Z"/><path class="cls-81" d="M205.22,143c.35,2.36.69,4.71,1,7.07l-1,0c-.37-1.82-.44-3.93-3.09-1.53-1,.89-2.44,1.8-4,1.27a1.18,1.18,0,0,1-.59-1.64c.71-1.82,1.92-3.4,4-2.88C203.86,145.86,204.1,143.88,205.22,143Z"/><path class="cls-61" d="M40,212.05c-2.19-.2-2.39,2.45-4.13,2.89,1.66-2.43-.43-3.78-1.51-5.45-.63-1-1.09-2.18-.09-3.11,1.27-1.18,1.79.87,2.84.89C38.21,208.8,39.65,210.11,40,212.05Z"/><path class="cls-61" d="M42.41,221c-2.67-.21-3.57,3.4-6.36,3,1-2-.09-3.16-1.79-4,2-2.39,7.92-.28,7.06-6C43.12,216,41.37,218.72,42.41,221Z"/><path class="cls-82" d="M72.3,203.11c0,2.7,4.72,1.22,4,4.56-.23,1,.49,2.52-1.07,2.85-1.12.23-1.71-.79-1.89-1.79-.41-2.28-1.94-2.78-3.93-2.65Z"/><path class="cls-69" d="M155.2,179c.74,2.93-.7,7,3.94,8a.7.7,0,0,1,.39.59c0,.26-.05.38-.11.38a4.48,4.48,0,0,0-.36.4c-4.8,2.4-4.25-3.54-6.92-4.44C154.49,183,154.29,180.65,155.2,179Z"/><path class="cls-37" d="M100.26,187.19c.21.78,2.27,1.47.87,2.08-2.32,1-5.21,2.24-6.89-1.3C96,185.89,98.21,187.12,100.26,187.19Z"/><path class="cls-83" d="M128.19,186.22c-1.52-1.41-1.12-3.27-1.15-5l2.4,0c-1,2.31,2.93,3.2,1.59,5.59C129.75,188.35,129,186.89,128.19,186.22Z"/><path class="cls-84" d="M43.06,222.86l0-1.71c1.48,3.35,2.79.09,4.18-.11-.05,1.07-.1,2.15-.16,3.23-.83,1.32-1.83,2.34-3.59,2C42.39,225.26,42.77,224.05,43.06,222.86Z"/><path class="cls-65" d="M107.83,184.23c.68.36,1.69.61,1.36,1.62a2.12,2.12,0,0,1-2.38,1.28c-.85,0-1.72-.29-1.29-1.43A2.45,2.45,0,0,1,107.83,184.23Z"/><path class="cls-85" d="M160.44,480.6c-.1,1.44-.83,2.15-2.28,1.79-.92-.23-2.3-.36-2.21-1.55.11-1.48,1.47-2.17,2.83-2.25S160.38,479.51,160.44,480.6Z"/><path class="cls-47" d="M309.35,14.21l-5.43-8.33a20.32,20.32,0,0,0,4.18-1.06c1.4-.66,3.4-1.75,3.86-.19.66,2.27,5.29,3.11,2.45,6.54C312.88,12.44,311.67,14.25,309.35,14.21Z"/><path class="cls-31" d="M306.06,29.35c-4.56.37-4.45-4.29-6.8-6.31l1.9-.78c2.2.88,2.42,3.94,4.93,4.48Z"/><path class="cls-86" d="M309.35,14.21c.93-2.27,3.11-2.46,5.06-3-.71,2.28-1.41,4.57-2.12,6.85C310.38,17.47,308.7,16.74,309.35,14.21Z"/><path class="cls-87" d="M2.22,202c0-1.59.3-3.33,2.42-2.62,2.49.84,2.44-1.59,3.65-2.35.2,5.15-3.3,9.78-2.11,15.07C3.9,209.15,6.92,204.08,2.22,202Z"/><path class="cls-61" d="M25.09,206.75c-.47,1.46-.85,2.92.16,4.33a2.5,2.5,0,0,1-1.21.59c-2-.13-4-.47-5.95.37-2.14-2.4.7-4.67.19-7,.34-.44.66-.45,1,0C20.49,208,22.62,208,25.09,206.75Z"/><path class="cls-88" d="M19.24,205.05h-.48l-.48-.05c0-1.64-1.35-2.47-2.17-3.62-1.09-1.53-.71-2.38,1.26-2.28.17,2.12.4,4.1,3.06,1.67.82-.75,1.56-1.93,2.89-1.33a1.88,1.88,0,0,1,.74,1.6,2.44,2.44,0,0,1-2.81,2.17C20,203.16,19.64,204.14,19.24,205.05Z"/><path class="cls-13" d="M18.09,212c1.52-3.66,3.91-2.11,6.22-1,.67.85.4,1.82.36,2.76a1,1,0,0,1-1.23.35l-4.53-1Z"/><path class="cls-89" d="M11.68,212.9c-.81-2.14-1-3.79.69-5.05a1.3,1.3,0,0,1,1.16.4C14.05,210,13.38,211.32,11.68,212.9Z"/><path class="cls-47" d="M52.27,344.07c-1,.45-2.23.35-2.6-.67-1.85-5-3.55-10.07-5.2-15.14-.14-.43.4-1.22.83-1.64a1.36,1.36,0,0,1,2.17.13c.83,1,1.32,2.44,2.33,3.19,2.65,2,2.57.06,2.31-1.86,2.78,0,2.72,2.27,3.31,4C53.56,335.88,53.06,340,52.27,344.07Z"/><path class="cls-61" d="M55.42,332.11c-2.17-.46-1.64-3.15-3.31-4-4.86-2.8-4.27-8.48-6.53-12.65-.28-.52,1.06-.17,1.64-.26,1.94,4.15,7,5.81,8.42,10.34C56.33,327.69,59.25,330,55.42,332.11Z"/><path class="cls-90" d="M46.19,292.08c4.36-.29,3.52,3.85,5.08,5.95-.66,1.08,3,4.23-1.73,3.43-1.39-.23-1.15,1.24-1.17,2.16,0,2.11,0,4.22-.06,6.34-1.23-3.79-1.57-8.1-6-9.93-.63-3.8.9-3.68,3.33-1.81.82.63,1.46,2.31,2.68.82,1-1.23-.51-1.53-1.23-2C45,295.67,46.11,293.8,46.19,292.08Z"/><path class="cls-91" d="M57.13,339.23c0,1.92,0,3.84.12,5.77.12,2.88,1.46,2.25,3,1-.64,2.47-.93,5.07-2.76,7.08-4.63-4.42-2.81-9.24-.88-14.07l.36-.06Z"/><path class="cls-61" d="M30.16,199c-2.42-.2-3,1.14-2.91,3.25.06,1.88.35,4-2.29,4.59,1.53-2.1,1.65-4.47,1.43-6.94-.1-1.16.16-2.39,1.52-2.68A1.68,1.68,0,0,1,30.16,199Z"/><path class="cls-92" d="M41.24,233.1c-2.39,2.63-3.15,5.2.39,7.6,1.88-.32.88-3,2.67-3.48.32,2.33-.74,4.18-2.09,5.92-2.37-1.81-5.45,1-7.75-1.23-.53-2.71,1.63-6.16-2.17-8a1,1,0,0,1,.3-1.38C35.53,231.82,38.58,229.38,41.24,233.1Z"/><path class="cls-93" d="M23.44,214.12a2.39,2.39,0,0,1,.84.06c1.63,1.58,3.81,3,1.66,5.69-.1.13-.06.17.54.31,3.57.81,5.34,2.88,4.71,6.66-1.47,1.27-.21,3.23-1.14,4.65a5.2,5.2,0,0,1-4.63.53,5.91,5.91,0,0,0-2.2-5.72c-.75-.86-1.54-1.69-2.24-2.59C17.92,219.74,18.51,217.45,23.44,214.12Z"/><path class="cls-94" d="M25.42,232a7.38,7.38,0,0,1,4.8-1c1.67-.33,2.36.33,2,2a1.63,1.63,0,0,0,0,.85c-1.83-.34-3.39.58-5.07,1C25,235.4,23.6,234.5,25.42,232Z"/><path class="cls-61" d="M32.05,214c-4.59-2.64-4.67-2.88-1.75-5C29.92,211,32.64,212,32.05,214Z"/><path class="cls-28" d="M294.2,33.94c0,1.26.44,3.15-1.67,2.54-1.89-.55-2.24,1-3.27,1.56C288.39,33.64,291.6,34.15,294.2,33.94Z"/><path class="cls-79" d="M181.18,450.88c-.61,1.64-2,2.94-3.32,1.59-2.2-2.22-4.09-1.12-6.66.25,1.14-5.44,6.08-8,7-12.71.36.32.81.7,1.23.36.68-.54.26-1.07-.23-1.52,2.33-5.05,7.32-8.53,8.44-14.31.07-.36.66-.78,1.08-.89,3.69-1,3.71-1,1.52-4.16-.57-.84-1.23-1.61-.52-2.76,1.9-.83,1.84,2.21,3.44,1.85,4.3-5.09,3.4-12.1,6.68-17.58,1.16,2,2.11,4,0,6.19-.56.56-1.3,1.72-1.08,2.15,2.94,5.69-3.6,8.93-3.49,13.07.1,3.52-5.2,7.13-.21,10.64.56.39.06,1.64-.66,2.16-1,.7-1.52-.15-1.93-.84a2.28,2.28,0,0,0-2-1.24c-2.8-.13-1.63,1.52-1.26,2.81l-2.67,5.16C183,443.4,182.09,447.15,181.18,450.88Z"/><path class="cls-46" d="M198.4,374.27a13.82,13.82,0,0,0-2.56-9.32,27.72,27.72,0,0,0-2-2.17c-1-1-3.33,2.79-3.44-1a4.78,4.78,0,0,1,2.45-4.11c1.92-1.06,2.6,1.42,3.87,2.28a22.32,22.32,0,0,1,1.87,1.61c1.85-2.48-2.69-3.95-.74-5.83,1.49-1.43,2.24,1.43,3.84,1.45,1.42-.93-.18-3.32,1.73-4.11,2.19,3-.37,5.68-.54,8.51C202.12,366.1,201.75,370.71,198.4,374.27Z"/><path class="cls-16" d="M198.4,374.27c.63-4.48,3.66-8.43,2.9-13.22.76-1.14,1.61-2,3.1-1.09,1.56,4.87-2,8.83-2.48,13.41-.33,3.18-1.08,6.44-1.56,9.68-.52.63-1.26,1.48-2,.81-1.2-1.15-.62-2.69-.28-4.09C198.21,377.93,198.31,376.1,198.4,374.27Z"/><path class="cls-51" d="M198.12,337c.72,1.34,1.93.94,3,.85.12,1-1.71,3.43,1.64,2.11,3.69-1.46,3.93.25,2.62,3.13-.74-.12-1.64-.5-2.09.26-.31.51.48,1,.77,1.49-4.05.88-5,6.79-9.92,6.21-.45-2.42,2.78-4.16,1.24-6.77,7.69.05-.34-4.89,2.07-6.53A3.26,3.26,0,0,0,198.12,337Z"/><path class="cls-64" d="M190.24,388c.21-1.29.07-2.8.71-3.83.84-1.36,1.82-5,4-.65.36.73,1.48-.21,2.21-.52,1.11,1,.81,2.12.24,3.12-2.45,4.3-3,9.62-7,13.07-.39-1.32-.69-2.71-2.2-3.29C187.08,392.8,190.32,390.84,190.24,388Z"/><path class="cls-64" d="M191.18,402.89c-1.66,5.69-2.24,11.87-7.33,16-.61.5-1.31,1.3-2.07.45a1.86,1.86,0,0,1-.12-1.77,37.34,37.34,0,0,0,7.4-16.72c.06-.33.77-.54,1.18-.81C191.34,400.73,190.29,402.13,191.18,402.89Z"/><path class="cls-95" d="M191.18,402.89c-1.53-.55-.34-2-.94-2.86a.74.74,0,0,0,.13-.84L197.11,383c.34-1.08.67-2.16,1-3.23,1.24.75-1.77,4.41,2.24,3.28Z"/><path class="cls-96" d="M181.18,450.88c-.75,0-2.31,0-1.63-.91,2.23-3,2.83-6.68,4.72-9.73,1.27-2.05,2-.85,2.24.86Q183.84,446,181.18,450.88Z"/><path class="cls-97" d="M190.24,388c1.07,3.1-1.53,5.23-2.07,7.9-1.21.64-2.93,1.46-2-1S188.87,390.27,190.24,388Z"/><path class="cls-89" d="M204.4,360l-3.1,1.09c1.32-2.48,2.47-5,2.09-7.95,1.49-.86,2.11-.16,2,1.28C205.15,356.25,204.73,358.1,204.4,360Z"/><path class="cls-98" d="M204.11,344.87c-1.55.41-3.18.57-3.45-1.47-.21-1.53,1.59-1.39,2.48-2,2-1.28,2.1.33,2.29,1.68Z"/><path class="cls-99" d="M189.18,435.94c-2.71-.69-2.36-2.9-1.27-4.18,1.39-1.65,2.13,0,2.53,1.37Z"/><path class="cls-100" d="M179.19,438.85c1.32-.59,2.34-.65,1.84,1.27-.31,1.2-.41,3-2.14,2.74s-.67-1.83-.7-2.85Z"/><path class="cls-14" d="M265.26,127c-.93-2.25-7.51-.76-4-6,5.72-3.63,9.34-8.92,11.95-15,1.24-3.92,5.74-3.75,7.71-6.71,2.12,1.41.89,3.31,1.46,4.74-3.51,3.88-2.24,9.6-5.25,13.68-3.52,1.65-5.63,4.88-8.25,7.51C267.82,126.36,267,127.49,265.26,127Z"/><path class="cls-101" d="M225.23,194l4.08-9.94c.94-2.58.25-5.37.94-8,.65-6.15,5.3-10,8.61-14.57,4.53-6.2,9.33-12.22,14.2-18.17a2.63,2.63,0,0,1,2.84.69c-3.83,9-10,16.46-15.31,24.48-3.85,5.81-5.68,12.42-8.38,18.68-1.43,3.31-3.38,6.4-5.1,9.59C224.06,197.52,224.61,195.79,225.23,194Z"/><path class="cls-75" d="M209.16,204.87l-5.73,8.25c-1,0-2.3.82-2.69-.94a9.78,9.78,0,0,1,.5-2.39c.22-1.06,0-2.09-1.06-2.43-1.55-.48-2,.81-2.27,1.91-.55,1.92-.29,3.91-.43,5.86-.29,4.07-1.4,7.72-5.29,9.87-2.41,1.22-3.13,3.24-2.89,5.8.08.86-.23,1.85-1.25,1.75a1.56,1.56,0,0,1-1.34-2.2c1-2.8,1.55-6.06,3.37-8.19,2.26-2.64,2.08-5.41,2.33-8.31.79.07,2.22.8,1.59-1-.69-1.93,2.28-5-1.75-5.85-1.25-2.56-4.27-1.45-6.05-2.91a3.54,3.54,0,0,1,1.92-1.92c4.38,1.7,8.53.76,12.67-.78-.29-1.73-2.12-1.16-2.55-2.32-.07-1.92-1.19-2.41-2.88-2.12-1.09-1.76-1.09-1.76,2.51-2.74-1.14-4.56-5.09-2.51-7.78-3.34.73-2.77,4.57-1.59,5.39-4.25,3.17-.6,3.85,2.31,5.47,3.88,1.59,1.85,1.18,4.37,2.19,6.41,1.46,1.61,3.79,2,5.18,3.72C209.2,202,208.26,203.59,209.16,204.87Z"/><path class="cls-11" d="M255.9,144.05h-2.62c-.77-3.2,1.73-5.84,1.56-9.16-2.45,2.1-5,3.81-7.18,6.07-2.81,2.22-5,5.26-8.69,6.31-1.77.52-1.78,2.17-2.45,3.44-1.34,2.55-3,4.48-6.11,2.13l.06,0a7.45,7.45,0,0,1-1.73-1.77c-1.13-1.29-3.6-1.71-3-4.12.66-2.57,3.32-.7,4.66-1.88,5.92-.05,9.53-4.67,13.94-7.48,3.79-2.41,6.73-6.16,10-9.33l3.84-1.37,3,4.19c.72,3.18-1.12,5.47-3.12,7.35C256.32,140.11,255.54,141.76,255.9,144.05Z"/><path class="cls-37" d="M192.19,225c2.51-3.68,4.85-7.39,4.06-12.22a8,8,0,0,1,.37-3.9c.51-1.4.2-3.54,2.54-3.75a3.67,3.67,0,0,1,3.34,1.78,2.88,2.88,0,0,1-.48,4.35c-.44.39-.54,1.15-.8,1.73,1.56,2-.62,3.07-1.07,4.57-1.79,2.76-1.27,6.9-5,8.49Z"/><path class="cls-6" d="M208.12,201l-5.89-2.93c1.2-2.7,2.05-5.62,4.68-7.42a2.84,2.84,0,0,1,2.79-.2c2.8,1.93,4.81.29,6.89-1.29.22,0,.45-.08.67-.12,1.48,1,.89,2.61,1,4-2,.68-2.48,2.9-4.09,4-1.59-.95-1.88.45-2.42,1.35C210.93,199.78,210.09,201.16,208.12,201Z"/><path class="cls-102" d="M231.19,176c.59,3-.45,5.59-1.88,8.1.05-2.84-.59-4.76-4-3a.89.89,0,0,1-1.24,0,4.19,4.19,0,0,1,.43-2.76c.68-1.44.44-3.24,1.7-4.47.91-.2,1.35.43,1.82,1,.44-.58,0-1.18,0-1.77,0-1.35-.29-2.57-1.76-3.09a11.32,11.32,0,0,1-5.09-3.89,3,3,0,0,1,2.38-1.57,5.42,5.42,0,0,0,5-1.68c.9-.94,2.11-1.88,3.51-.91,1.22.85.66,2.09.29,3.19C231.17,168.7,231.5,172.38,231.19,176Z"/><path class="cls-51" d="M225.23,194c.61.93-1.14,3.47,1.88,2.77l-11.79,15.28a2.37,2.37,0,0,1-1.14-2.2,15.08,15.08,0,0,1,5.28-7.49C222.37,200.28,223.59,197,225.23,194Z"/><path class="cls-16" d="M150.27,219.05c4.73.61.91,4.19,2.1,6,.35,2.9.47,5.82.59,8.75-.29.73-.65,1.37-1.62,1C146.5,229,146.19,224.36,150.27,219.05Z"/><path class="cls-103" d="M162.09,216.71c-.44,1.18-.88,2.36-1.46,3.89-2-6.95-1.88-13.16,2.56-18.72,3.36.68,3.44,1.08,1.08,5.16C163.79,210.32,161.27,213.14,162.09,216.71Z"/><path class="cls-104" d="M192.25,207c.25-.88-.15-2.2,1.13-2.43a1.76,1.76,0,0,1,2.06,1.67c.13,3.92.05,7.85.05,12.33-3-1.43-1.73-3.7-3.08-4.76C192,211.59,193.4,209.29,192.25,207Z"/><path class="cls-17" d="M195.08,187.16c.69,1,2.45,2-.19,2.75-1.57.47-3.36-.08-4.8,1l-.43,0-.38.21c-.81.09-1.63.21-2.45.27-1.15.08-2.05-.36-2-1.61.05-.94.88-1.29,1.79-1.37,2-.17,4-.1,5.75-1.27A1.68,1.68,0,0,1,195.08,187.16Z"/><path class="cls-105" d="M151.34,234.89l1.14-.94c1-1.63,1.88-1.37,2.79,0l1.07.11c1.23,1.09,1,3.21,2.86,3.88a3.16,3.16,0,0,1-2.53,3.62c-1.94.47-2-1.44-2.68-2.72A33.15,33.15,0,0,0,151.34,234.89Z"/><path class="cls-25" d="M170.08,258.12c-2.1,0-3.62-.66-3.72-3-.06-1.68,1-3.59,2.25-3.3,2,.46,3.08,2.85,3.87,4.67C173,257.73,171.16,257.92,170.08,258.12Z"/><path class="cls-106" d="M197.5,230.07c-.15.64-.29,1.29-.46,1.93-.53,1.95-1.78,3.73-3.78,2.82s-.27-2.9.15-4.3a18.76,18.76,0,0,1,1.87-3.46c.43-.69,1.06-1.46,1.84-.89C198.55,227.23,197.68,228.73,197.5,230.07Z"/><path class="cls-107" d="M208.12,201c1.77-.87,2.26-2.56,3-4.22.95-2.12,2.31-3.38,3.06.23-1.84,2.52-2.63,5.7-5,7.86C205.67,204.43,208.29,202.34,208.12,201Z"/><path class="cls-108" d="M188.12,202.21c.1,1.37-.81,1.75-1.92,1.92a2.63,2.63,0,0,0-.49,0,6.81,6.81,0,0,1-6.41-4.23c-.72-2.45,1.91-1.12,3.2-.56,1,.46,2,1.07,3,1.6S187.25,201.77,188.12,202.21Z"/><path class="cls-75" d="M197.5,230.07c-1-.8,2.29-4.79-2.22-3-.06-.34-.11-.67-.17-1,2-2.74,2.74-6,4-9.11,1,.29,1.32,1.24,1.93,1.9C198.24,222.08,200.49,226.9,197.5,230.07Z"/><path class="cls-17" d="M170.36,197.2a3.73,3.73,0,0,0,.78-.31c1.92,0,1.64,1.12,1.31,2.33-.51,2.8-2,5.2-3.3,7.65-3.83-.37-1.55-2.36-1-3.89Z"/><path class="cls-109" d="M224.22,181l1.09.09c-.62,1-2.18,1.38-1.54,3.22.71,2-1,2.45-2.51,2.7-4.41-2.12.08-4.1.1-6.14A2.06,2.06,0,0,1,224.22,181Z"/><path class="cls-110" d="M159.2,238c-5.41,2-1.88-2.61-2.86-3.88,1.3-.59,2.57-3.68,3.93-.05C159.22,235.16,159.3,236.59,159.2,238Z"/><path class="cls-111" d="M168,245.16a3.32,3.32,0,0,1,2.75,2.47c.27,1.41-1,1.52-2,1.46-1.52-.09-3.22-.3-3.08-2.36C165.75,245.69,166.78,245.14,168,245.16Z"/><path class="cls-112" d="M168.12,203c.28,1.32-1.51,3.18,1,3.89-.39,1.41-1.24,1.31-2,.44a1.87,1.87,0,0,0-2.88-.27c-.34-1.72,3.76-4.37-1.08-5.16,1.05-2,2.14-1.93,2.89.12C166.51,203.2,167,203.64,168.12,203Z"/><path class="cls-113" d="M187.17,211.76c-1-.16-1.65-.08-1.81-.33-1.1-1.71-4.06-1.7-4.09-4.33a1,1,0,0,1,1.39-.9C185,207.17,186.3,209,187.17,211.76Z"/><path class="cls-114" d="M214.18,209.88c1,.38,1,1.35,1.14,2.2-1.42,1.91-2.3,4.61-6.18,3.82Z"/><path class="cls-92" d="M176.2,236.72a4.07,4.07,0,0,1-3.27,3.16c-.65.13-1.5-.27-1.28-1a5.24,5.24,0,0,1,3.32-3.39C175.62,235.2,176.12,235.86,176.2,236.72Z"/><path class="cls-115" d="M201,218.84c-1.59.33-1.87-.67-1.92-1.9.93-1.19,2-2.32,2.11-3.95.75-.22,1.54-1,2.21.13Z"/><path class="cls-116" d="M195.36,197c1.28-1.57,3-1.61,4.21-.39s-.34,1.92-1.33,2.51C196.65,199.25,196.3,197.73,195.36,197Z"/><path class="cls-117" d="M172.45,199.22l-1.31-2.33c.28-1.47-.52-3.19,1.05-4.56,1.66.89.91,2.53,1.24,3.78C173.1,197.14,172.78,198.18,172.45,199.22Z"/><path class="cls-79" d="M230.41,152.83c3.72.69,5.73-.62,5.33-4.62-.1-1.08-.09-2.3,1.15-2.22,4.91.34,6.91-4,10.31-6.09,2,1.46,2.46,3.61.73,5.08a10.34,10.34,0,0,0-4,8c0,.67-.68,1.09-1.37,1.26-1.6-1.47-2.73-.46-4.22.48-2.44,1.52-5.09,3.19-8.13,1.13C231.13,154.91,230.51,153.86,230.41,152.83Z"/><path class="cls-118" d="M230.24,155.88c4.76.13,8.53-1.64,10.81-6,2.07,1.16.95,2.86,1.35,4.15.28,4.19-2.93,5.1-5.88,5.93a23.78,23.78,0,0,1-9.25.24c-1.26-.37-2.53-.84-2.36-2.47a1.91,1.91,0,0,1,2.36-1.76Z"/><path class="cls-79" d="M230.41,145.11c-.89.34-1.8.62-2.65,1-.54.27-1.26.65-1.39,1.13a1.32,1.32,0,0,0,1.37,1.62c2.79.1,3.15,1.75,2.73,4-2.07-.32-4.51,2.61-6.24-1.17C221.24,145.13,221.39,144.86,230.41,145.11Z"/><path class="cls-79" d="M227.27,156c-.72.54-1.94,1-2,1.65-.18,1.19,1.3,1,2,1.39-.78,3-2.83,2-4.45,1.18a8.38,8.38,0,0,1-4.14-3.94,2.13,2.13,0,0,1,.73-2.25Z"/><path class="cls-119" d="M219.41,154c-.08.59-.15,1.18-.23,1.77-2.36.89-3.49-1.08-5-2.13-.9-1-2.55-1.87-1.77-3.48.55-1.15,1.94-.56,3-.37C217.62,150.35,218.15,152.53,219.41,154Z"/><path class="cls-70" d="M247.22,105.84c.7,1.06,4.59-2.27,2.9,2.1-.94.23-1.86.51-2.81.66-1.12.19-2.7.31-2.87-.94C244.2,105.87,246.14,106.27,247.22,105.84Z"/><path class="cls-65" d="M215.39,149.8c-5.6.59.12,2.32-.35,3.43-.21.8,0,1.85-1.21,2.08a6.69,6.69,0,0,1-3.41-2.1c.92-1.79.59-4.69,3.86-4.41Z"/><path class="cls-120" d="M280.46,66c-2.56,1.37-4.26,1.68-6.37.41C275.93,64.22,277.69,64.41,280.46,66Z"/><path class="cls-44" d="M70.43,225.67c2,1.45,4,3.21,6.84,2.44-1,1.71-1.72,3.62.69,4.56,1.9.73,3.25-.44,4.38-2.21,2.47-3.85,6-3.94,7.94-.42a3.41,3.41,0,0,1,0,5c-1.5,2.14-1.18,6.09-5.73,5.46.14-2.35,2.2-4.14,1.78-6.51.35-.83,1-1.74-.11-2.38-.19-.1-.53,1-.92,1.47-2.87.64-4.83,4-8.52,2.55-.89-.35-1.42,1.58-1.61,2.74-.8.42-1.55.3-3.11-.62,2.2,3.4,4.32,5.95,5.14,9.14.52,1.94-.15,4.5,2.76,5.16.78.47,1.71.84,1.31,2.05-.65.08-1.74,0-1.87.27-2.73,6.38-5.5,1.55-6.54-.55-2-4-6-6.4-7.62-10.58,4-1-.07-3.51.91-5.09,4.47.89,4.45-3.74,6.64-5.63,1.45-1.26.18-3.31-1.18-4.71A8.68,8.68,0,0,1,70.43,225.67Z"/><path class="cls-53" d="M115.12,215.71c.74,1.44,2.19,1.27,3.46,1.5a1.41,1.41,0,0,1-.45,1.25,1.69,1.69,0,0,1-.88.41c-6.26-.18-9.08,3.88-11.08,9-.46,2.84-3.89,2.86-4.93,5.15-1.22.32-2.12,2.52-3.34,1.41-1.52-1.38.22-2.77,1.13-3.78,1.89-2.08,4-3.94,6-5.91,1.35-1.33,1.23-2.28-.77-2.65-.33-1.72-2.2-2-3.05-3.16-1.81-4.22-4.86-1-6.81-.57-1.74.4-3,4.33-5.45,1.62-2.19-2.38-5.58-5-2.63-9.08a2.32,2.32,0,0,1,2.63-.3c1,2.14,2.15,4.18,4.28,5.44a8.35,8.35,0,0,1,7.17-1.88C105.17,216.11,110.35,214,115.12,215.71Z"/><path class="cls-32" d="M102.49,252.11c-.93.65-1.91,1.24-2.78,2a2.65,2.65,0,0,1-3.95-.08c-1.2-1.1-1.81-2.32-1-3.93.67-1.32,1.39-2.63,1.94-4,1-2.46,2.18-5.29,4.81-5.7,3-.47,3.22,3.18,4.82,4.87C106.94,248.58,105.28,250.66,102.49,252.11Z"/><path class="cls-32" d="M126.41,209.1c-1.37.49-2.7,1.18-4.23.75a8.68,8.68,0,0,0-8.08,0c-1.37.67-2.68,1.77-4.08.66s-.28-2.51.34-3.56c.91-1.54,1.84-3.42,4.24-2.23,1.68.83,2.92,1.43,4.74-.47,3-3.18,6.92-1.1,8,4A.92.92,0,0,1,126.41,209.1Z"/><path class="cls-121" d="M115.12,215.71c-4.78,1.64-9.59.68-14.38.09-.92-.11-.25-1.09-.31-1.68,6.45-3.67,13.91-2.15,20.71-4,2.15,1.76.54,2.52-.88,3.39C118.65,214.48,116.34,213.82,115.12,215.71Z"/><path class="cls-118" d="M76.32,247c-1.16-2-2.26-4-3.51-5.88-.87-1.32-2.85-2.61-1.32-4.17,1.38-1.4,2.09,1.67,3.65,1.38l6,5.93a11,11,0,0,1,4.92,3.85l1.28,1.9c1,3-1.41,4.32-3.36,4.89s-1.62-2-2.24-3.13a5.42,5.42,0,0,0-1.1-1.57C79.33,249,77.09,249,76.32,247Z"/><path class="cls-11" d="M110.16,240c4.23-4.73,6.6-10.66,10.11-15.85,1.06.83,2.88,1.41,1,3.18-1.33,1.27-1.78,3-2.32,4.62-.39,1.58-.16,3.32-1.19,4.74a56.51,56.51,0,0,1-5.16,7.82c-1.27,1.47-2.42,3.22-4.79,2.91-1-.62-1.39-1.41-.63-2.49Z"/><path class="cls-32" d="M90.25,235l0-5c1.56-.59.51-3.92,2.85-3.2,1.9.59,2.8,2.61,2.79,4.75,0,.78-.38,1.67-.13,2.34.8,2.19.65,4.15-1.86,4.62S90.57,237.14,90.25,235Z"/><path class="cls-49" d="M96.4,263.2c-.55,2.59,1.54,3.71,2.88,5.27,1,1.16,3.21,2.09,2.27,3.83-.84,1.55-3,.57-4.52.61-1.09-.38-3,.45-2.75-1.88,2.53,0,3.33-.68,1.57-3.11-1.93-2.67-4.83-5.13-3.41-9.11,2.11.26,1.6,2.8,3.13,3.56A1.9,1.9,0,0,1,96.4,263.2Z"/><path class="cls-122" d="M83.46,279c-.46-.85-1.27-.76-2-.85-1.15-.14-3,.87-3.26-.86-.34-2.11,1.92-1.5,3.07-2,1,.27,2.17.08,3,.9A12,12,0,0,0,91,278.18c2.58,2.75.58,3-1.69,3.05C86.54,282.53,84.65,281.67,83.46,279Z"/><path class="cls-123" d="M107.22,244.94l1,2.09a18.42,18.42,0,0,1-7.38,12.45q-2.72,0-1.73-2.49c.51-2,3.06-2.69,3.36-4.88,1.28-2.29,2.57-4.58,3.85-6.88A5.33,5.33,0,0,0,107.22,244.94Z"/><path class="cls-32" d="M86.11,248.11c-2.52-.17-3.81-1.89-4.92-3.85,1.08-3.68,4.07-2.67,5.77-1.49C89.34,244.41,88.62,246.66,86.11,248.11Z"/><path class="cls-22" d="M81.41,248.84c2.64,1,2.28,3.26,1.84,5.83,2.61-1,4.24-2.08,4.14-4.66,2.65,1.5,1.33,2.48-.29,3.85-2,1.73-3.77,3.52-5.86.2-.41-.93-1.33-1-2.13-1.18C78.48,250.74,77.56,248.43,81.41,248.84Z"/><path class="cls-29" d="M67.2,232.83c-2.3-2.68-2.16-6.48-5.6-8.77C67.79,224.49,69.22,226.93,67.2,232.83Z"/><path class="cls-121" d="M89.27,211.14l-2.92-.28c-1.22-4.19,2.62-2.94,4.28-3.67,1.44-.64,4.08-.26,4.15,1.5.1,2.86-3.45.63-4.59,2.32A.61.61,0,0,1,89.27,211.14Z"/><path class="cls-32" d="M122.27,195.07a5.94,5.94,0,0,1,4,1.06c.87,1.28,3.21,1.5,2.75,3.72a1.33,1.33,0,0,1-1.94,1C124.45,199.81,121.57,198.93,122.27,195.07Z"/><path class="cls-124" d="M95.46,263.11c-3.88.58-1.65-3.12-3-4.3a11.18,11.18,0,0,1-.25-2c0-1-1.53-2.32.45-2.82,1.3-.32,2.21.57,2.64,1.77s.61,2.21.9,3.32C97.71,260.76,96.71,262,95.46,263.11Z"/><path class="cls-125" d="M94.28,271,97,272.91l-2.77,1.21c-3.09-2.16-6.28-4.25-7-9C91,266,90.9,270.64,94.28,271Z"/><path class="cls-32" d="M89.27,211.14a.93.93,0,0,1,.92-.13c4.08-.22,4.18,2,3.07,5C90.22,215.78,87.56,215.26,89.27,211.14Z"/><path class="cls-126" d="M66.12,238.11c.59.77,1.22,1.51,1.76,2.3.79,1.16,2.3,2.39,1,3.83-1.56,1.69-2.44-.58-3.65-1C64.69,241.36,62.07,239.14,66.12,238.11Z"/><path class="cls-39" d="M84.24,276.12l-3-.9-3-7.18c2.78.95,6.27,1.33,4.28,5.89C82.37,274.33,83.64,275.38,84.24,276.12Z"/><path class="cls-20" d="M101.24,218.89c1.67.16,3.81-1,4.8,1.15.47,1.07-1.27,1.22-1.75,2a13.88,13.88,0,0,1-2.41,0c-1.15-.18-3,.78-3.3-.89S100.37,219.72,101.24,218.89Z"/><path class="cls-127" d="M85.27,233c-.67-1.35-2.29-2.84.17-3.93,1.26-.56,2.77-.44,2.82,1.42,0,1.39,1.59,4-2,3.42Z"/><path class="cls-55" d="M95.46,263.11a6.85,6.85,0,0,0,.72-4c1.59.13,2-1.34,2.95-2.12.17,1.17.23,2.44,2,1.88.29.24.38.48.26.69s-.23.32-.33.32L96.4,263.2C96.09,263.18,95.77,263.15,95.46,263.11Z"/><path class="cls-128" d="M126.28,196a2.48,2.48,0,0,1,2-2.77c1.47-.35,1.93.59,2.07,1.83C129.23,196.39,127.74,196.11,126.28,196Z"/><path class="cls-129" d="M126.41,209.1l1-.81.88-.42c.88.1,2.15-.19,1.77,1.37a2.36,2.36,0,0,1-1.86,2C126.53,211.45,126.36,210.33,126.41,209.1Z"/><path class="cls-9" d="M57,277.17c2.08,1.6,4.09,3.16,5.32,5.65s3.71,4.06,6.5,4.93c1.33.41,4-.5,3.38,2.18-.5,2.07-2.76,1.07-4.31,1.05a7.55,7.55,0,0,1-1.46-.29c-3.07-3.11-6-6.38-9.7-8.82a14.32,14.32,0,0,1-5.29-5.05l.06.08c-.33-.55-.6-1.13-1-1.64-.75-1-3.5-1.35-1.86-3,1.31-1.34,3.45-.59,4.63,1.22C54.25,275,55,276.7,57,277.17Z"/><path class="cls-118" d="M83.41,290c-2.66-2-6.13.3-8.93-2.14,3.31-.23,5-7.86,9.71-1.58a6.1,6.1,0,0,1,5.1-1.11c3.59,1.47,3,4.08,1.88,6.85C88.22,292.72,86.41,289.07,83.41,290Z"/><path class="cls-78" d="M85.17,303.69c-4.82,5.47-19.6,3.51-22.61-3.14C69.79,304.86,77.47,301.79,85.17,303.69Z"/><path class="cls-130" d="M84.92,298.12c-6.14,1.66-11.74.69-17.33.14C73.14,297.27,78.63,294.1,84.92,298.12Z"/><path class="cls-131" d="M60,312c5.22-.62,10.28-3,15.72-1.33C70.67,313.56,65.34,313.08,60,312Z"/><path class="cls-105" d="M55.52,304.38a2.71,2.71,0,0,1,2.07,1.92c.22,1.05-.58,1.5-1.42,1.59-1.19.14-1.85-.5-1.85-1.72C54.31,305.31,54.44,304.52,55.52,304.38Z"/><path class="cls-130" d="M90.22,301.85c.92.39,2.83-.18,2.57,1.26-.32,1.81-2.33.74-3.56,1.09l-1.35-1Z"/><path class="cls-47" d="M101.07,259.88l.07-1c3.8-3.09,4.33-8.14,7.1-11.84,4.5-2.52,6.1-7.35,8.94-11.19,2.7.15,1.92,2.12,1.87,3.66a11,11,0,0,0-.3,1.92c.12-.85.28-1.66,1.44-1.5,1.85,6.57-4,8.48-7.25,12a1.6,1.6,0,0,0-2.19,1.31c-.12.63,1,.43,1.49.79-1.23,2.55-.38,4.61,2.78,6.8-5.43-.16-6.74-3.53-8.67-6.53-2,2.06-.5,4.59-1.33,6.74C103.46,261.63,102.54,259.64,101.07,259.88Z"/><path class="cls-33" d="M89.29,285.15a7.54,7.54,0,0,1-5.1,1.11c.13-2.17.41-4.39-2.93-4.25-1.41.06-3.5.13-3.36-1.75s2.34-.9,3.62-1.19a10.38,10.38,0,0,1,1.94-.1,10.42,10.42,0,0,0,5.82,2.26C90.37,282.53,90,283.84,89.29,285.15Z"/><path class="cls-132" d="M120.19,239.92c-1.71,1.59.6,5.24-3,6-.88-3.46,3.37-6.78,0-10.1.61-1.29,1.21-2.59,1.81-3.88C118.19,234.79,120.71,237.13,120.19,239.92Z"/><path class="cls-133" d="M112.24,254c-1.13.6-1.75,2.93-3.47,1.47-1.2-1-.66-2.54.57-3.29,1-.63,2.18-3.46,3.6-.28C112.16,252.4,112.28,253.22,112.24,254Z"/><path class="cls-134" d="M120.88,273.71c-2.31.48-3.92.13-4.65-2-.31-.91.06-1.72,1.06-1.75C119.52,269.92,120.29,271.52,120.88,273.71Z"/><path class="cls-32" d="M155.27,234c-.93-.17-1.85-.95-2.79,0-1.15-2.94-2.21-5.88-.11-8.86l1.86,1a3.09,3.09,0,0,1,2.94.95c1.17-.33,2.42-1.43,3.29.54.64,1.47-.28,2.23-1.21,2.86C157.75,231.42,156.09,232.21,155.27,234Z"/><path class="cls-16" d="M157.17,227c-1.16.25-2.32.48-2.94-.95.29-2.61.57-5.22.86-7.83-.12-1.22-1.19-2.79,1.13-3.15C158,218.93,159.69,222.8,157.17,227Z"/><path class="cls-135" d="M156.22,215.07c-1.27.73-.72,2.11-1.13,3.15-1.81-2.84-2.1-6-1.83-9.25C156.05,210.13,156.22,212.56,156.22,215.07Z"/><path class="cls-18" d="M287.28,92.06,283.76,97c0-2.18,1.21-3.5.58-4.93a21.33,21.33,0,0,1,.8-5.59c.42-1.49,1.19-2.57,2.56-2.21S289.53,86,289,87.47,287.84,90.53,287.28,92.06Z"/><path class="cls-136" d="M128.19,186.22l2.84.53-.75,1.34A8.32,8.32,0,0,1,123,190c-1.16-.16-1.85-.9-1.45-2s1.28-.7,2-.34C125.55,188.57,127.68,190,128.19,186.22Z"/><path class="cls-13" d="M106.17,227.83c-.32-.32-1.73.26-.91-.94.64-.94,2.22-1.63,2.29-2.51.56-7.37,5.92-6.32,10.72-6.35a1.65,1.65,0,0,1,.13,2.14c-2.3,2.31-5.5,2.79-8.28,4.12A8,8,0,0,0,106.17,227.83Z"/><path class="cls-137" d="M118.4,220.17c-.05-.71-.09-1.43-.13-2.14a5.1,5.1,0,0,1,.31-.82c3-1.63,6-2.87,7.67,1.4.79,2-.28,2.34-1.93,1.31C122.21,216.73,120.34,219.38,118.4,220.17Z"/><path class="cls-19" d="M208.26,298.72c-.12,1.31-.76,2-1.57,2a1.7,1.7,0,0,1-1.68-2,1.56,1.56,0,0,1,2-1.52A1.43,1.43,0,0,1,208.26,298.72Z"/><path class="cls-32" d="M206.28,158.52c-.22-3.38,1.85-3,4.05-2.5,1.53-.37,2.71.84,4.14.89a4.85,4.85,0,0,1,.83,1c.8,2.07,4.23,2.74,3.11,5.83q-6.3,6.45-10.89-3.7C206.67,159.89,206.14,159.48,206.28,158.52Z"/><path class="cls-32" d="M213.19,185c2.35-.88,1.59-2.07.28-3.25-1.5-1.35-.95-2.72.08-3.93s2.2-.76,3,.18,3.36,1.87,1.31,3.88c-2.33,2.27,1.5,5-.64,7.18h0c-3.42,1.46-4.74.06-4.55-3.37Z"/><path class="cls-32" d="M226.41,173.9c-.53,1.74.69,3.92-1.33,5.29-1.49.16-2.69-.13-2.89-1.92a12.78,12.78,0,0,1-.76-2.26c-.22-1.57-.59-3.33,1-4.37s2.43,1,3.71,1.4A1.32,1.32,0,0,1,226.41,173.9Z"/><path class="cls-32" d="M202.23,185c.21-1.68-.59-3.55,1-5,6.24-3.47,3.25,2.29,4.15,4.16a1.39,1.39,0,0,1,0,1.37C203.91,188.12,203.39,188.07,202.23,185Z"/><path class="cls-57" d="M206.28,158.52l1.24,1.5c.61,2.41-1.52,3.84-2.07,5.83-.34,1.23-.62,2.44-2.22,1.5-1.18-.69-2.51-2.35-1.21-3.12C204.39,162.83,203.67,159.47,206.28,158.52Z"/><path class="cls-32" d="M199.16,171.86a.82.82,0,0,1,.2-.83c2.34-1.33,4-1.43,3.91,2a5.42,5.42,0,0,1-.28,1.42c-.63,1.24-1,3.31-2.62,3-1.9-.33-.86-2.39-1.07-3.71C199.2,173.15,199.2,172.5,199.16,171.86Z"/><path class="cls-13" d="M226.41,173.9c-.08-.62-.15-1.24-.23-1.86s.07-1.33.1-2c.94-.14,2-2.67,2.47-.87.74,3.08,1.86,6.61-.45,9.88C226.59,177.5,227.94,175.2,226.41,173.9Z"/><path class="cls-138" d="M218.41,163.72c-.42-2.61-4.23-2.75-4.16-5.71,4.5,0,7.61,2.52,8.87,7.17l-1.93,1Z"/><path class="cls-90" d="M207.23,185a8,8,0,0,0,.1-.87c2,.06,4.45-3.39,5.86.81h0C210.19,188.84,209.11,188.85,207.23,185Z"/><path class="cls-70" d="M214.27,157.06c-1.93,2-2.5-1.18-3.94-1-.35-1-.9-1.91.09-2.81,1.67-.24,2.84.64,3.89,1.77A1.58,1.58,0,0,1,214.27,157.06Z"/><path class="cls-124" d="M222.19,177.27l2.89,1.92c-.28.61-.57,1.22-.86,1.82l-2.86-.13C220.07,179.32,218.15,177.61,222.19,177.27Z"/><path class="cls-32" d="M213.27,173c.34-1.5-1-4.1,2.33-3.64a1.52,1.52,0,0,1,1.29,1.84c-.48,1.9-2.12,1.77-3.61,1.8Z"/><path class="cls-129" d="M208.16,172.11c1.21,1.82.27,2.61-1.44,3s-2.45-.29-2.29-2A4.17,4.17,0,0,1,208.16,172.11Z"/><path class="cls-33" d="M51.41,276.82c-.54,1.35.77,3.57-1.73,3.95-1,.15-1.31-.81-1.34-1.67-.08-2.29,1.1-2.86,3.13-2.2Z"/><path class="cls-115" d="M74.28,281c-2.34-.84-4.2-.87-4.71-3,0-.21.61-.82,1-.85C72.89,276.9,73.49,278.46,74.28,281Z"/><path class="cls-139" d="M159.42,187.88c-.1-.32-.19-.64-.28-1a14.21,14.21,0,0,0,4-7.67c.15-1.19.46-2.35,2-2.13,1.07.16,1,1.07,1,1.9C163.91,182,164,186.72,159.42,187.88Z"/><path class="cls-39" d="M207.23,185c2,3.55,4,1.26,6,0-.13,2.82,1.11,4.29,4,4-2.32,5.64-6.26,3.27-10,2-2.31-.9-4.62-2.26-7-.12-2.24-.56-2-4.52-5.22-3.77l-2.69,0-2.19-1.06c1.49-1.93,4.15-.53,6.16-2.29-3.23-1.73-5.54-4.34-8.06-6.72,6.62-2.07,9.85-.25,10.81,6.43.37,2.53,1.27,2.68,3.12,1.52C203.87,188.22,205.56,185.38,207.23,185Z"/><path class="cls-32" d="M188.3,177.05a3.85,3.85,0,0,1,4.08,2.11c.52,1,1.41,2.14,2.34,2.37,1.71.42,3.93-.06,3.4,2.76s-2.86,1.49-4.47,1.72a26.44,26.44,0,0,1-3.45.05c-1.61-1.42-.22-3.86-1.79-5.29C188.38,179.53,188.34,178.29,188.3,177.05Z"/><path class="cls-69" d="M30.24,227a2.33,2.33,0,0,0-.74-3.42c-3.84-2-4.14-5.88-5.22-9.36l0-3.17a2.48,2.48,0,0,1,.94.06c.09.65-.05,1.69.29,1.88,3.12,1.74,4.39,5.19,7,7.35a9.8,9.8,0,0,0,2.74,3.81,2.89,2.89,0,0,0-.07,4C33.22,229.24,31.64,228.48,30.24,227Z"/><path class="cls-140" d="M35.3,224.11c-3.58.64-4-1-2.74-3.81l1.7-.37c1.48.55,3.1-1,4.56.2.06,2.1-2,2.5-2.77,3.81l-.4,0Z"/><path class="cls-23" d="M30.24,227l5,1.14c1.83,1.43,3.88.9,5.89.66,2.37.53,2.09,1.8.94,3.32l-.82,1c-3-2.27-6,.9-9,0a3.26,3.26,0,0,0-2-2C29.09,229.68,27.94,228.32,30.24,227Z"/><path class="cls-93" d="M44.17,226l2.94-1.69c.13,1.81.26,3.63.37,5.44.22,3.82-1.49,4.24-4.42,2.5A7,7,0,0,1,44.17,226Z"/><path class="cls-141" d="M44.17,226c.51,2.24-1.11,4.1-1.11,6.25l-1-.13c.15-1.23.89-2.64-.94-3.32,1.76-1.6.87-4.08,1.94-5.9C43.47,223.88,43.09,225.18,44.17,226Z"/><path class="cls-32" d="M186.08,436.12c-.3.81-.75,1.58-1.7,1.49-1.19-.1-1.1-1.09-.82-1.86s.86-1.53,1.84-1.25C186.12,434.7,186.25,435.41,186.08,436.12Z"/><path class="cls-35" d="M214.27,157.06c0-.7,0-1.39,0-2.08.24-.59.49-1.17.73-1.75l4.14,2.55c2.83.76,3.74,6.3,8.09,3.24,1.81-.68,3.58.07,5.37.15,4.24.19,7.8-1,9.76-5.13a2.72,2.72,0,0,0,.84-3.11c-1-2.73-.78-4.41,2.55-5.34,3.07-.85,2-3.51,1.41-5.69a47.82,47.82,0,0,1,10.16-8.15c-1.8,4.66-2,8.76-4.08,12.29-3.6,5.82-8.29,10.84-12.27,16.29-3.56,4.88-8.58,9.21-9.82,15.66a15.15,15.15,0,0,1,1.15-13.46c-3.94-.55-4.75,7.57-9.22,2.65a14.07,14.07,0,0,0-8.87-7.17C214.24,157.69,214.25,157.37,214.27,157.06Z"/><path class="cls-32" d="M200.3,190.93c2.3-4,3.44-4,7,.12-2.42,1.81-1.8,5.81-5.05,7C200.27,196.05,202.37,192.93,200.3,190.93Z"/><path class="cls-120" d="M81.41,248.84c-3.11,0-1,3-2.3,4-3.92-.54-2.58-3.58-2.79-5.88C77.7,248.5,79.92,247.65,81.41,248.84Z"/></g></g></svg>